<?xml version="1.0" standalone="no"?>
<!DOCTYPE svg PUBLIC "-//W3C//DTD SVG 1.1//EN" "http://www.w3.org/Graphics/SVG/1.1/DTD/svg11.dtd" >
<svg>
<metadata>
Created by FontForge 20090914 at Mon Nov 21 23:58:06 2016
 By www-data
&#194;&#169;2009 Commercial Type.
</metadata>
<defs>
<font id="GiorgioSans-Bold" horiz-adv-x="749" >
  <font-face 
    font-family="GiorgioSans-Bold"
    font-weight="700"
    font-stretch="normal"
    units-per-em="2048"
    panose-1="2 11 8 3 3 2 2 4 2 4"
    ascent="1864"
    descent="-184"
    x-height="1161"
    cap-height="1389"
    bbox="-328 -221 1606 1722"
    underline-thickness="102"
    underline-position="-102"
    unicode-range="U+0020-U+FB00"
  />
<missing-glyph horiz-adv-x="1280" 
 />
    <glyph glyph-name="f_f" unicode="ff" horiz-adv-x="899" 
d="M29 989v171.996h82v35c0 66.667 17 115.334 51 146.001s89.333 46.334 166 47.001h129v-154h-74c-31.333 0 -47 -15.667 -47 -47v-27h186v35c0 66.667 17 115.334 51 146.001s89.333 46.334 166 47.001h131v-154h-75c-31.333 0 -47 -15.667 -47 -47v-27h122v-172h-122
v-989h-226v989h-186v-989h-225v989h-82z" />
    <glyph glyph-name=".notdef" horiz-adv-x="1280" 
 />
    <glyph glyph-name="space" unicode=" " horiz-adv-x="184" 
 />
    <glyph glyph-name="exclam" unicode="!" horiz-adv-x="339" 
d="M115 279l-66 1110h242l-64 -1110h-112zM59 0v205h224v-205h-224z" />
    <glyph glyph-name="quotedbl" unicode="&#x22;" horiz-adv-x="532" 
d="M494 1389l-37 -312h-138l-34 312h209zM248 1389l-37 -312h-135l-37 312h209z" />
    <glyph glyph-name="numbersign" unicode="#" horiz-adv-x="712" 
d="M317 819l-20 -190h102l21 190h-103zM33 440v189h131l20 190h-114v189h133l41 381h133l-41 -381h102l41 381h133l-41 -381h109v-189h-127l-21 -190h111v-189h-131l-45 -440h-133l45 440h-103l-45 -440h-133l45 440h-110z" />
    <glyph glyph-name="dollar" unicode="$" 
d="M256 1073c0 -52 28 -107.333 84 -166v310c-56 -10.667 -84 -49 -84 -115v-29zM483 348c0 61.333 -28 120 -84 176v-354c56 9.33301 84 51 84 125v53zM334 -102l0.000976562 88c-196.667 10.667 -295 115 -295 313v186h209v-190c0 -72.667 28.667 -114.334 86 -125.001
v420l-98 98c-74 72 -125 132 -153 180s-42 109.667 -42 185v47c0 86 25 156.667 75 212s124.667 85.666 224 90.999v67h68v-67c191.333 -10.667 286.666 -115 285.999 -313v-113h-205v121c0 66.667 -27 106.334 -81 119.001v-375l112 -111
c70.667 -72.667 120 -132.334 148 -179.001s41.667 -105 41 -175v-68c0 -95.333 -25.667 -171.666 -77 -228.999s-129 -88.666 -233 -93.999v-88h-65z" />
    <glyph glyph-name="percent" unicode="%" horiz-adv-x="1091" 
d="M780 131c53.333 0 80 34 80 102v109c0 68 -26.667 102 -80 102s-80 -34 -80 -102v-109c0 -68 26.667 -102 80 -102zM780 -16c-85.333 0 -150 24.667 -194 74s-66 116 -66 200v59c0 83.333 22 150 66 200s108.667 75 194 75s150.333 -25 195 -75
c44 -50 65.667 -116.667 65 -200v-59c0 -83.333 -21.667 -150 -65 -200c-44 -49.333 -109 -74 -195 -74zM311 944c53.333 0 80 34.333 80 103v108c0 68 -26.667 102 -80 102s-80 -34 -80 -102v-108c0 -68.667 26.667 -103 80 -103zM311 797
c-86 0.666992 -151 25.668 -195 75.001s-65.667 115.666 -65 198.999v59c0 83.333 22 150 66 200c44.667 50 109.667 75 195 75s150 -25 194 -75s65.667 -116.667 65 -200v-59c0 -83.333 -21.667 -150 -65 -200c-44 -49.333 -109 -74 -195 -74zM856 1389h141l-761 -1389
h-142z" />
    <glyph glyph-name="ampersand" unicode="&#x26;" horiz-adv-x="796" 
d="M381 178c75.333 0 113 45 113 135v332h-109c-39.333 0 -67.333 -9.33301 -84 -28s-25 -47 -25 -85v-229c0.666992 -83.333 35.667 -125 105 -125zM768 645l-55 0.000976562v-645h-168v152c-28.667 -112 -103 -168 -223 -168c-87.333 0 -155.666 28.333 -204.999 85
s-74 134 -74 232v205c0 132.667 55.333 211 166 235c-96.667 31.333 -145.334 106.666 -146.001 225.999v120c0 211.333 104 317.333 312 318c116 0 198 -27 246 -81s71.667 -138.333 71 -253v-96h-213v100c0 90 -32.333 135 -97 135s-97 -41.667 -97 -125v-149
c0 -75.333 39.333 -113 118 -113h365v-178z" />
    <glyph glyph-name="quotesingle" unicode="'" horiz-adv-x="286" 
d="M248 1389l-37 -312h-135l-37 312h209z" />
    <glyph glyph-name="parenleft" unicode="(" horiz-adv-x="481" 
d="M76 215v815c0 124 32.333 219.333 97 286s154.334 104.667 269.001 114v-150c-116 -13.333 -174 -96 -174 -248v-819c0 -151.333 58 -234 174 -248v-149c-114.667 9.33301 -204.334 47.333 -269.001 114s-97 161.667 -97 285z" />
    <glyph glyph-name="parenright" unicode=")" horiz-adv-x="481" 
d="M406 1030v-815c0 -123.333 -32.667 -218.333 -98 -285s-155 -104.667 -269 -114v149c116 13.333 174 96 174 248v819c0 151.333 -58 234 -174 248v150c114 -9.33301 203.667 -47.333 269 -114s98 -162 98 -286z" />
    <glyph glyph-name="asterisk" unicode="*" horiz-adv-x="569" 
d="M346 915l-61 183l-62 -183l-143 105l149 115l-186 6l55 168l154 -111l-55 191h176l-56 -191l154 111l55 -168l-186 -6l149 -115z" />
    <glyph glyph-name="plus" unicode="+" horiz-adv-x="739" 
d="M45 598v180h229v248h193v-248h227v-180h-227v-248h-193v248h-229z" />
    <glyph glyph-name="comma" unicode="," horiz-adv-x="342" 
d="M291 223v-18l-119 -314h-131l29 332h221z" />
    <glyph glyph-name="hyphen" unicode="-" horiz-adv-x="401" 
d="M37 551v188h328v-188h-328z" />
    <glyph glyph-name="period" unicode="." horiz-adv-x="342" 
d="M59 0v223h224v-223h-224z" />
    <glyph glyph-name="slash" unicode="/" horiz-adv-x="503" 
d="M301 1430h182l-297 -1614h-182z" />
    <glyph glyph-name="zero" unicode="0" horiz-adv-x="792" 
d="M396 -16c-114 0 -200 34 -258 102s-87 158.667 -87 272v672c0 113.333 29 204 87 272s144 102.333 258 103c114 0 200 -34 258 -102s87 -159 87 -273v-672c0 -113.333 -29 -204 -87 -272s-144 -102 -258 -102zM396 178c74.667 0 112 48 112 144v745
c0 95.333 -37.333 143 -112 143s-111.667 -47.667 -111 -143v-745c-0.666992 -96 36.333 -144 111 -144z" />
    <glyph glyph-name="one" unicode="1" horiz-adv-x="524" 
d="M442 1389v-1389h-233v1063h-2l-164 -170h-2v244l215 252h186z" />
    <glyph glyph-name="two" unicode="2" horiz-adv-x="710" 
d="M45 0l-0.000976562 255.999c0 66.667 13 126.667 39 180s71 114 135 182l131 140c36.667 38 60.334 72.333 71.001 103c10 30.667 15 76 15 136v115c0 69.333 -28 104.333 -84 105c-60 0 -90 -36.333 -90 -109v-174h-213v168c0 98 26.333 173 79 225
c52 52 129.333 78 232 78s179 -24 229 -72s75 -121.667 75 -221v-135c0 -72.667 -10 -133.667 -30 -183s-59.333 -105 -118 -167l-149 -158c-24.667 -27.333 -42.334 -47.666 -53.001 -60.999c-29.333 -35.333 -44.666 -86 -45.999 -152v-66h383v-190h-606z" />
    <glyph glyph-name="three" unicode="3" horiz-adv-x="747" 
d="M379 1405c206 0 309 -106 309 -318v-120c0 -116 -53.333 -191.333 -160 -226c114.667 -26 172 -104.333 172 -235v-205c0 -99.333 -27.667 -177 -83 -233s-140.333 -84 -255 -84c-214.667 0 -321.667 115.333 -321 346v182h213v-199c0 -90 35.333 -135 106 -135
s106.334 41.667 107.001 125v229c0 75.333 -38.333 113 -115 113h-98v178h88c38 0 68.333 9.66699 91 29s34 47.333 34 84v149c0 83.333 -33.333 125 -100 125s-100.334 -45 -101.001 -135v-141h-213v123c0 232 108.667 348 326 348z" />
    <glyph glyph-name="four" unicode="4" horiz-adv-x="790" 
d="M442 408v571h-2l-209 -571h211zM27 225v144l403 1020h229v-981h95v-183h-95v-225h-221v225h-411z" />
    <glyph glyph-name="five" unicode="5" horiz-adv-x="757" 
d="M473 948c68 0 124.667 -25.667 170 -77s68 -128 68 -230v-340c0 -211.333 -110.667 -317 -332 -317c-214.667 0 -322 115.333 -322 346v157h213v-174c0 -90 36.333 -135 109 -135c65.333 0 98 41.667 98 125v336c0 83.333 -33.667 125 -101 125
s-101.333 -42.333 -102 -127v-31h-213v783h615v-191h-402v-346h2c37.333 64 103 96 197 96z" />
    <glyph glyph-name="six" unicode="6" horiz-adv-x="782" 
d="M393 174c74 0 111 46.333 111 139v242c0 92.667 -37 139 -111 139c-69.333 0 -106 -42.333 -110 -127v-254c-0.666992 -92.667 36 -139 110 -139zM391 -16c-117.333 0 -203.333 32.999 -258 98.999s-82 156.333 -82 271v676c0 116 27 207.333 81 274
s140.667 100.334 260 101.001c119.333 0 203 -30 251 -90s72 -146 72 -258v-74h-213v92c0 45.333 -8.33301 79.333 -25 102s-44.667 33.667 -84 33c-74 0 -110.667 -47.667 -110 -143v-299h2c38 75.333 102 113 192 113c172 0 258 -114 258 -342v-205
c0 -233.333 -114.667 -350 -344 -350z" />
    <glyph glyph-name="seven" unicode="7" horiz-adv-x="655" 
d="M25 1198v191h585v-215l-305 -1174h-231l311 1198h-360z" />
    <glyph glyph-name="eight" unicode="8" horiz-adv-x="792" 
d="M291 991c0 -88.667 35 -133.001 105 -133.001s105.333 44.333 106 133v94c0 88.667 -35.667 133.334 -107 134.001c-69.333 0 -104 -44.667 -104 -134v-94zM396 173.999c76 0 114 47.667 114 143v226c0 95.333 -38 143 -114 143s-113.667 -47.667 -113 -143v-226
c-0.666992 -95.333 37 -143 113 -143zM396 -16.001c-118 0 -205.334 32.001 -262.001 96.001s-85 151.333 -85 262v152c0 139.333 51.333 232 154 278c-87.333 44 -131 124.667 -131 242v57c0 109.333 27.333 192.333 82 249s135.334 85 242.001 85s188 -28.333 244 -85
c55.333 -56.667 83 -139.667 83 -249v-57c0 -117.333 -45 -198 -135 -242c104 -46.667 155.667 -139.334 155 -278.001v-152c0 -110.667 -28.333 -198 -85 -262s-144 -96 -262 -96z" />
    <glyph glyph-name="nine" unicode="9" horiz-adv-x="782" 
d="M500 1075c0 92.667 -37 139.001 -111 139.001s-110.667 -46.333 -110 -139v-241c0 -92.667 36.667 -139.334 110 -140.001c69.333 0 106.333 42.333 111 127v254zM391 1405c117.333 0 203.333 -33 258 -99s82 -156.667 82 -272v-676c0 -114.667 -28 -205.667 -84 -273
s-143.667 -101 -263 -101s-204 30 -254 90s-75 146 -75 258v74h213v-93c0 -90 38.667 -135 116 -135s116 48 116 144v299h-2c-38 -75.333 -102.333 -113 -193 -113c-172 0 -258 114 -258 342v205c0 233.333 114.667 350 344 350z" />
    <glyph glyph-name="colon" unicode=":" horiz-adv-x="342" 
d="M59 494v225h224v-225h-224zM59 0v223h224v-223h-224z" />
    <glyph glyph-name="semicolon" unicode=";" horiz-adv-x="342" 
d="M291 223v-18l-119 -314h-131l29 332h221zM70 494v225h223v-225h-223z" />
    <glyph glyph-name="less" unicode="&#x3c;" horiz-adv-x="665" 
d="M45 618v127l559 275v-207l-309 -131l309 -131v-207z" />
    <glyph glyph-name="equal" unicode="=" horiz-adv-x="747" 
d="M49 438v168h649v-168h-649zM49 705v167h649v-167h-649z" />
    <glyph glyph-name="greater" unicode="&#x3e;" horiz-adv-x="665" 
d="M621 745v-127l-560 -274v207l310 131l-310 131v207z" />
    <glyph glyph-name="question" unicode="?" horiz-adv-x="700" 
d="M203 0v205h223v-205h-223zM414 279h-198.999v172c0 74.667 11.667 133.667 35 177c8 16 25.667 45 53 87l84 133c26 42 39 88.333 39 139v117c0 75.333 -29.333 113 -88 113s-88 -36.333 -88 -109v-174h-215v168c0 98 26.333 173 79 225c52 52 130 78 234 78
s180.667 -24.333 230 -73s73.666 -127.334 72.999 -236.001v-111c0 -48 -5.66699 -87.333 -17 -118s-34.333 -71.334 -69 -122.001l-94 -141c-26 -39.333 -42 -69.666 -48 -90.999s-9 -42.666 -9 -63.999v-170z" />
    <glyph glyph-name="at" unicode="@" horiz-adv-x="1050" 
d="M453 870l-0.000976562 -574.999c0.666992 -53.333 24.334 -80 71.001 -80s70 26.667 70 80v573c0 64 -23.333 96.333 -70 97c-47.333 -0.666992 -71 -32.334 -71 -95.001zM783.999 1100l0.000976562 -861.999c0 -44 18 -66 54 -66s53.667 22 53 66v778
c0 198 -121 297 -363 297c-108 0 -196.333 -26.333 -265 -79s-103 -130.334 -103 -233.001v-761c0 -105.333 34 -187 102 -245s162.333 -87 283 -87h327v-92h-327c-151.333 0 -271 36.667 -359 110c-87.333 74 -131 178.667 -131 314v761
c-0.666992 130 45.666 229.667 138.999 299s206 104 338 104s242 -32 330 -96c88.667 -64.667 133 -162 133 -292v-770c0 -117.333 -61.333 -176 -184 -176c-102.667 0 -162.667 40 -180 120h-2c-30 -80.667 -88 -120.667 -174 -120c-57.333 0 -104 18.333 -140 55
c-35.333 36.667 -53 94 -53 172v573c0 84 20 145.333 60 184s89.667 58 149 58c78 0 129.333 -30.667 154 -92h4v80h155z" />
    <glyph glyph-name="A" unicode="A" horiz-adv-x="821" 
d="M399 997l-92 -557h187l-93 557h-2zM236 0h-222l262 1389h267l264 -1389h-240l-43 254h-248z" />
    <glyph glyph-name="B" unicode="B" horiz-adv-x="770" 
d="M285 1198v-395h82c74 0 110.667 37.333 110 112v170c0 75.333 -37.333 113 -112 113h-80zM385 625h-100v-435h102c76.667 0 115 37.667 115 113v209c0 75.333 -39 113 -117 113zM51 0l0.00292969 1389h338c113.333 0 193.666 -25.333 240.999 -76
s70.666 -127.334 69.999 -230.001v-141c0 -117.333 -46.333 -191 -139 -221c116 -26 174 -103.333 174 -232v-184c0 -102 -25.333 -178.333 -76 -229s-132.334 -76 -245.001 -76h-363z" />
    <glyph glyph-name="C" unicode="C" horiz-adv-x="774" 
d="M399 -16c-117.333 0 -204.666 34 -261.999 102s-86 158.667 -86 272v672c0 114.667 28.667 206 86 274s145.666 101.667 264.999 101c119.333 0 203.666 -30 252.999 -90s74 -146 74 -258v-164h-213v182c0 90 -37.667 135 -113 135
c-79.333 0 -118.666 -47.667 -117.999 -143v-745c0 -95.333 39.333 -143.333 118 -144c75.333 0 113 45 113 135v256h213v-239c0 -230.667 -110 -346 -330 -346z" />
    <glyph glyph-name="D" unicode="D" horiz-adv-x="800" 
d="M412 1389c225.333 0 338 -124.333 338 -373v-643c0 -248.667 -112.667 -373 -338 -373h-361v1389h361zM285 190h98c88.667 0 133 47.333 133 142v727c0 92.667 -44.333 139 -133 139h-98v-1008z" />
    <glyph glyph-name="E" unicode="E" horiz-adv-x="651" 
d="M51 0v1389h557v-191h-323v-397h231v-189h-231v-422h323v-190h-557z" />
    <glyph glyph-name="F" unicode="F" horiz-adv-x="618" 
d="M51 0v1389h547v-191h-313v-397h233v-189h-233v-612h-234z" />
    <glyph glyph-name="G" unicode="G" horiz-adv-x="786" 
d="M403 557v184.001h332v-741h-168v152c-32.667 -112 -107 -168 -223 -168c-96.667 0 -169.667 34 -219 102s-74 158.667 -74 272v672c0 114.667 29 206 87 274s146.667 101.667 266 101c119.333 0 204.333 -30.333 255 -91s76 -146.334 76 -257.001v-123h-213v141
c0 90 -38.667 135 -116 135c-80.667 0 -121 -47.667 -121 -143v-745c0 -95.333 38 -143.333 114 -144c76.667 0 115 44.333 115 133v246h-111z" />
    <glyph glyph-name="H" unicode="H" horiz-adv-x="796" 
d="M510 0v612h-225v-612h-234v1389h234v-588h225v588h235v-1389h-235z" />
    <glyph glyph-name="I" unicode="I" horiz-adv-x="337" 
d="M51 0v1389h234v-1389h-234z" />
    <glyph glyph-name="J" unicode="J" horiz-adv-x="720" 
d="M438 1389l233.999 -0.00195312v-1074c0 -221.333 -107.333 -331.666 -322 -330.999c-113.333 0 -192.666 27.333 -237.999 82s-68.333 130.334 -69 227.001v276h221v-280c0 -74 29 -111 87 -111s87 37.667 87 113v1098z" />
    <glyph glyph-name="K" unicode="K" horiz-adv-x="780" 
d="M285 0h-234v1389h234v-611l254 611h229l-270 -625l276 -764h-246l-243 676v-676z" />
    <glyph glyph-name="L" unicode="L" horiz-adv-x="587" 
d="M51 0v1389h234v-1199h278v-190h-512z" />
    <glyph glyph-name="M" unicode="M" horiz-adv-x="958" 
d="M694 0v901h-6l-158 -901h-108l-174 901h-4v-901h-193v1389h273l151 -783h2l135 783h295v-1389h-213z" />
    <glyph glyph-name="N" unicode="N" horiz-adv-x="778" 
d="M248 0h-197v1389h230l251 -797v797h195v-1389h-205l-274 872v-872z" />
    <glyph glyph-name="O" unicode="O" horiz-adv-x="808" 
d="M758 358c0 -113.333 -29.333 -204.001 -88 -272.001s-147.334 -102 -266.001 -102c-118 0 -206.333 34 -265 102s-88 158.667 -88 272v672c0 114.667 29.333 206 88 274s147 101.667 265 101c118.667 0 207.334 -33.667 266.001 -101s88 -158.666 88 -273.999v-672z
M404 177.999c80 0 120 48 120 144v745c0 95.333 -40 143 -120 143s-119.667 -47.667 -119 -143v-745c-0.666992 -96 39 -144 119 -144z" />
    <glyph glyph-name="P" unicode="P" horiz-adv-x="757" 
d="M371 1198h-86v-547h86c76.667 0 114.667 38.333 114 115v319c0.666992 75.333 -37.333 113 -114 113zM51 0v1389h346c113.333 0 195.333 -26.667 246 -80s76 -130.666 76 -231.999v-293c0 -102.667 -25.333 -180.667 -76 -234s-132.667 -79.666 -246 -78.999h-112v-471
h-234z" />
    <glyph glyph-name="Q" unicode="Q" horiz-adv-x="808" 
d="M403 166c39.333 0 69.667 13 91 39c20.667 26 30.667 60.667 30 104v758c0 95.333 -40 143 -120 143s-119.667 -47.667 -119 -143v-758c-0.666992 -44.667 9 -79.667 29 -105s49.667 -38 89 -38zM51.001 358l-0.000976562 672c0 114.667 29.333 206 88 274
s147 101.667 265 101c118.667 0 207.334 -33.667 266.001 -101s88 -158.666 88 -273.999v-672c0 -162.667 -57.333 -271.667 -172 -327l172 -33v-174l-441 82v94c-177.333 31.333 -266 150.666 -266 357.999z" />
    <glyph glyph-name="R" unicode="R" horiz-adv-x="757" 
d="M362 1198h-77v-432h77c76.667 0 115 38.333 115 115v204c0 75.333 -38.333 113 -115 113zM285 0l-234 -0.000976562v1389h340c113.333 0 195.333 -26.667 246 -80s76 -130.666 76 -231.999v-178c0 -150 -62.333 -239.333 -187 -268l224 -631h-246l-219 637v-637z" />
    <glyph glyph-name="S" unicode="S" 
d="M709 309c0 -99.333 -27.998 -178.332 -83.998 -236.999s-141 -88 -255 -88s-197.667 28.333 -251 85s-80 133.334 -80 230.001v186h217v-190c0 -82 38.333 -123 115 -123c70.667 0 106 41 106 123v53c0.666992 37.333 -7 70.666 -23 99.999s-43 61.666 -81 96.999
l-137 137c-72.667 70.667 -123.334 131.334 -152.001 182.001s-43 113.667 -43 189v47c0 91.333 27.333 165 82 221s137.667 84 249 84c214.667 0 322 -105 322 -315v-113h-213v121c-0.666992 79.333 -37.667 119 -111 119s-110 -38.333 -110 -115v-29
c0 -35.333 8.66699 -66 26 -92s45.666 -58 84.999 -96l149 -148c69.333 -70.667 118 -130.334 146 -179.001s42.333 -109 43 -181v-68z" />
    <glyph glyph-name="T" unicode="T" horiz-adv-x="671" 
d="M25 1198v191h620v-191h-192v-1198h-236v1198h-192z" />
    <glyph glyph-name="U" unicode="U" horiz-adv-x="780" 
d="M514 1389h215v-1051c0 -236 -110 -354 -330 -354c-232 0 -348 118 -348 354v1051h234v-1074c0.666992 -91.333 39 -137 115 -137s114 45.667 114 137v1074z" />
    <glyph glyph-name="V" unicode="V" horiz-adv-x="813" 
d="M580 1389h219l-264 -1389h-254l-265 1389h238l160 -969h2z" />
    <glyph glyph-name="W" unicode="W" horiz-adv-x="1114" 
d="M557 858h-2l-131 -858h-219l-187 1389h226l108 -881h2l117 881h191l129 -881h2l106 881h197l-181 -1389h-221z" />
    <glyph glyph-name="X" unicode="X" horiz-adv-x="811" 
d="M23 0l221 735l-205 654h244l129 -459l133 459h221l-205 -664l227 -725h-243l-154 526l-147 -526h-221z" />
    <glyph glyph-name="Y" unicode="Y" horiz-adv-x="776" 
d="M506 0h-234v528l-260 861h244l141 -527h2l142 527h223l-258 -861v-528z" />
    <glyph glyph-name="Z" unicode="Z" horiz-adv-x="688" 
d="M633 190v-190h-598v190l366 1008h-329v191h575v-191l-368 -1008h354z" />
    <glyph glyph-name="bracketleft" unicode="[" horiz-adv-x="462" 
d="M76 -184v1614h348v-150h-156v-1317h156v-147h-348z" />
    <glyph glyph-name="backslash" unicode="\" horiz-adv-x="503" 
d="M20 1430h183l297 -1614h-183z" />
    <glyph glyph-name="bracketright" unicode="]" horiz-adv-x="462" 
d="M387 1430v-1614h-348v147h156v1317h-156v150h348z" />
    <glyph glyph-name="asciicircum" unicode="^" horiz-adv-x="614" 
d="M264 1389h86l234 -416h-187l-90 166l-90 -166h-186z" />
    <glyph glyph-name="underscore" unicode="_" horiz-adv-x="579" 
d="M-4 -184v141h588v-141h-588z" />
    <glyph glyph-name="grave" unicode="`" horiz-adv-x="819" 
d="M215 1262v161l367 -77v-132z" />
    <glyph glyph-name="a" unicode="a" horiz-adv-x="735" 
d="M360 164c69.333 0 104.333 41 105 123v297c-12 -13.333 -42.667 -34 -92 -62s-80 -52 -92 -72s-18.333 -50.667 -19 -92v-71c0 -82 32.667 -123 98 -123zM690 0l-225 -0.00195312v96h-6c-45.333 -75.333 -107 -112.666 -185 -111.999
c-158.667 0 -237.667 97.333 -237 292v89c0 87.333 20.667 151.333 62 192s102.333 78.334 183 113.001s131.334 61.667 152.001 81c20.667 18.667 31 42 31 70v53c-0.666992 41.333 -7.66699 71.333 -21 90s-36.333 27.667 -69 27
c-66.667 0 -100.334 -39.667 -101.001 -119v-114h-204v98c0 214.667 104.333 322 313 322c108.667 0 187 -27.333 235 -82s72 -136 72 -244v-852z" />
    <glyph glyph-name="b" unicode="b" 
d="M479 285l-0.000976562 589c0 79.333 -33 119 -99 119s-100.667 -34.667 -104 -104v-621c2.66699 -68 37.334 -102 104.001 -102s99.667 39.667 99 119zM50.999 0l0.000976562 1389h225v-347h5c39.333 90 107.333 135.333 204 136c146 0 219.333 -97.667 220 -293v-609
c0 -195.333 -76.667 -292.666 -230 -291.999c-54.667 0 -96.334 12 -125.001 36s-51.667 56.333 -69 97h-5v-117h-225z" />
    <glyph glyph-name="c" unicode="c" horiz-adv-x="735" 
d="M489 459h211v-137c0 -225.333 -106.333 -338 -319 -338c-109.333 0 -192.333 31.667 -249 95s-85 149 -85 257v489c0 108 28.333 193.667 85 257s139.667 95.333 249 96c212.667 0 319 -112 319 -336v-84h-217v104c0 86 -34 129 -102 129
c-72.667 0 -109 -43.667 -109 -131v-559c0 -87.333 37 -131 111 -131c70.667 0 106 43.667 106 131v158z" />
    <glyph glyph-name="d" unicode="d" 
d="M272 874v-589c0 -79.333 34 -119 102 -119s101.667 39.667 101 119v604c-4.66699 69.333 -39.667 104 -105 104s-98 -39.667 -98 -119zM700 1389l-0.000976562 -1389h-225v119h-4c-39.333 -90 -104.333 -135 -195 -135c-152.667 0 -229 97.333 -229 292v609
c0 195.333 73.667 293 221 293c96.667 0 164.334 -45.333 203.001 -136h4v347h225z" />
    <glyph glyph-name="e" unicode="e" 
d="M272 860v-137h213v137c0 87.333 -34.667 131 -104 131c-72.667 0 -109 -43.667 -109 -131zM489 459h213v-137c0 -225.333 -107 -338 -321 -338c-109.333 0 -192.333 31.667 -249 95s-85 149 -85 257v489c0 108 28.333 193.667 85 257s139.667 95.333 249 96
c214.667 0 321.667 -112.667 321 -338v-281h-430v-258c0 -87.333 37.667 -131 113 -131c69.333 0 104 43.667 104 131v158z" />
    <glyph glyph-name="f" unicode="f" horiz-adv-x="487" 
d="M29 989v171.998h82v35c0 66.667 17 115.334 51 146.001s89.333 46.334 166 47.001h131v-154h-76c-31.333 0 -47 -15.667 -47 -47v-27h123v-172h-123v-989h-225v989h-82z" />
    <glyph glyph-name="g" unicode="g" 
d="M272 874l-0.000976562 -393c0 -38 7.33301 -67 22 -87s40.334 -29.667 77.001 -29c69.333 0 104 38.667 104 116v393c0.666992 79.333 -33 119 -101 119s-102 -39.667 -102 -119zM474.999 1161h223.001v-1014c0 -232 -109.667 -348 -329 -348
c-110.667 0 -192.334 25.667 -245.001 77s-79 119.333 -79 204v43h207v-29c0 -72.667 37.667 -108.667 113 -108c74 0 110.667 42.333 110 127v202h-4c-38 -88.667 -103 -133 -195 -133c-152.667 0 -229 97 -229 291v412c0 195.333 73 293 219 293
c98 0 166.333 -45.333 205 -136h4v119z" />
    <glyph glyph-name="h" unicode="h" 
d="M477 0l0.000976562 874c0 79.333 -33.333 119 -100 119s-100.334 -39.667 -101.001 -119v-874h-225v1389h225v-347h5c38 90 105.333 135.333 202 136c146 0 219 -97.667 219 -293v-885h-225z" />
    <glyph glyph-name="i" unicode="i" horiz-adv-x="327" 
d="M51 1212v177h225v-177h-225zM51 0v1161h225v-1161h-225z" />
    <glyph glyph-name="j" unicode="j" horiz-adv-x="327" 
d="M51 1212v177h225v-177h-225zM51 1161l225 -0.000976562v-1147c0 -73.333 -19 -124.666 -57 -153.999s-105 -44 -201 -44h-28v153h14c31.333 0 47 16.333 47 49v1143z" />
    <glyph glyph-name="k" unicode="k" horiz-adv-x="716" 
d="M276 0h-225v1389h225v-727l207 499h222l-226 -516l236 -645h-238l-201 559v-559z" />
    <glyph glyph-name="l" unicode="l" horiz-adv-x="327" 
d="M51 0v1389h225v-1389h-225z" />
    <glyph glyph-name="m" unicode="m" horiz-adv-x="1144" 
d="M463 0v876.999c0.666992 38 -5.66602 67 -18.999 87s-37.666 29.667 -72.999 29c-62.667 0 -94.334 -38.667 -95.001 -116v-877h-225v1161h225v-117h5c38 89.333 103.667 134 197 134s155.333 -45.333 186 -136h6c39.333 90 109 135.333 209 136
c75.333 0 130.333 -23.667 165 -71s52.667 -120.666 54 -219.999v-887h-226v877c0 38 -6.33301 67 -19 87s-36.334 29.667 -71.001 29c-61.333 0 -93.333 -35.333 -96 -106v-887h-223z" />
    <glyph glyph-name="n" unicode="n" 
d="M477 0l0.000976562 874c0 79.333 -33.333 119 -100 119s-100.334 -39.667 -101.001 -119v-874h-225v1161h225v-119h5c38 90 105.333 135.333 202 136c146 0 219 -97.667 219 -293v-885h-225z" />
    <glyph glyph-name="o" unicode="o" horiz-adv-x="759" 
d="M272 301c0 -87.333 36 -131 108 -131s107.667 43.667 107 131v559c0.666992 87.333 -35 131 -107 131s-108 -43.667 -108 -131v-559zM380 -16c-108.667 0 -191.334 31.667 -248.001 95s-85 149 -85 257v489c0 108 28.333 193.667 85 257c56.667 64 139.334 96 248.001 96
s191.334 -32 248.001 -96s85 -149.667 85 -257v-489c0 -108 -28.333 -193.667 -85 -257s-139.334 -95 -248.001 -95z" />
    <glyph glyph-name="p" unicode="p" 
d="M479 285l-0.000976562 589c0 79.333 -33 119 -99 119s-100.667 -34.667 -104 -104v-621c2.66699 -68 37.334 -102 104.001 -102s99.667 39.667 99 119zM50.999 -184l0.000976562 1345h225v-119h5c39.333 90 107.333 135.333 204 136c146 0 219.333 -97.667 220 -293v-609
c0 -195.333 -76.667 -292.666 -230 -291.999c-54.667 0 -96.334 12 -125.001 36s-51.667 56.333 -69 97h-5v-301h-225z" />
    <glyph glyph-name="q" unicode="q" 
d="M272 874v-589c0 -79.333 32.667 -119 98 -119s100.333 34 105 102v606c0.666992 79.333 -33 119 -101 119s-102 -39.667 -102 -119zM698 1161v-1345h-223v303h-4c-39.333 -90 -104.333 -135 -195 -135c-152.667 0 -229 97.333 -229 292v609c0 195.333 73 293 219 293
c98 0 166.333 -45.333 205 -136h4v119h223z" />
    <glyph glyph-name="r" unicode="r" horiz-adv-x="483" 
d="M457 905h-64.001c-78 0 -117 -39 -117 -117v-788h-225v1161h225v-119h5c28.667 82 87.334 124.333 176.001 127v-264z" />
    <glyph glyph-name="s" unicode="s" horiz-adv-x="702" 
d="M664 330l-0.000976562 -38.9971c0 -96.667 -26 -172 -78 -226s-130 -81 -234 -81s-182 27.667 -234 83s-77.667 133.333 -77 234v121h203v-131c0 -80.667 34.333 -121 103 -121s103.334 34.667 104.001 104v33c0 28.667 -9.33301 54.667 -28 78s-54 55.333 -106 96
l-86 68c-65.333 51.333 -112 99.666 -140 144.999s-42 102 -42 170v29c0 87.333 25.667 156.666 77 207.999c52 51.333 130 77 234 77s179.333 -26.333 226 -79s69.667 -129.667 69 -231v-63h-200v74c0 75.333 -33 112.666 -99 111.999c-64 0 -96 -30.667 -96 -92v-18
c0 -27.333 8 -52 24 -74s44.333 -46.667 85 -74l82 -65c86 -68 143 -122.667 171 -164s42 -99.333 42 -174z" />
    <glyph glyph-name="t" unicode="t" horiz-adv-x="503" 
d="M25 989v171.998h84v228h223v-228h141v-172h-141v-743c0 -23.333 5 -39.666 15 -48.999s28 -14.333 54 -15h72v-182h-96c-100 0 -169.667 19.333 -209 58s-59 105.334 -59 200.001v731h-84z" />
    <glyph glyph-name="u" unicode="u" 
d="M272 1161l-0.00195312 -874c0 -79.333 33.333 -119 100 -119s100.334 39.667 101.001 119v874h225v-1161h-225v119h-4c-39.333 -90 -107.666 -135 -204.999 -135c-144.667 0 -217 97.333 -217 292v885h225z" />
    <glyph glyph-name="v" unicode="v" horiz-adv-x="704" 
d="M494 1161h206l-223 -1161h-250l-223 1161h232l126 -776h3z" />
    <glyph glyph-name="w" unicode="w" horiz-adv-x="1003" 
d="M793 1161h200l-174 -1161h-203l-110 717l-121 -717h-201l-176 1161h228l77 -696h2l117 696h166l117 -696h2z" />
    <glyph glyph-name="x" unicode="x" horiz-adv-x="722" 
d="M485 1161h209l-176 -551l199 -610h-232l-135 436l-133 -436h-211l197 621l-176 540h229l115 -373z" />
    <glyph glyph-name="y" unicode="y" horiz-adv-x="692" 
d="M180 -184l-78.002 0.000976562v180h74c24.667 0 42.667 4.66699 54 14s21.333 28.666 30 57.999l8 36h-53l-211 1057h234l106 -712h2l137 712h205l-233 -1145c-15.333 -74.667 -43.666 -126.667 -84.999 -156s-104.666 -44 -189.999 -44z" />
    <glyph glyph-name="z" unicode="z" horiz-adv-x="624" 
d="M578 180v-180h-539v180l313 801h-295v180h523v-180l-314 -801h312z" />
    <glyph glyph-name="braceleft" unicode="{" horiz-adv-x="514" 
d="M55 547l-15.999 -0.000976562v151h16c46 0 77 9.66699 93 29s22 49.333 18 90l-33 291c-12 106.667 5 187 51 241c46.667 54 128.667 81 246 81h45v-150h-55c-75.333 0 -107.333 -45 -96 -135l34 -303c13.333 -116 -31.667 -189 -135 -219
c104 -27.333 149 -100.666 135 -219.999l-34 -303c-10.667 -90 20.666 -135 93.999 -135h57v-149h-45c-117.333 0 -199.333 27 -246 81s-63.667 134 -51 240l33 291c4 40.667 -2 70.667 -18 90s-47 29 -93 29z" />
    <glyph glyph-name="bar" unicode="|" horiz-adv-x="313" 
d="M66 1430h174v-1614h-174v1614z" />
    <glyph glyph-name="braceright" unicode="}" horiz-adv-x="514" 
d="M459 698l16 -0.000976562v-151h-16c-46 0 -77 -9.66699 -93 -29s-22 -49.333 -18 -90l33 -291c12.667 -107.333 -4.33301 -187.666 -51 -240.999s-128.667 -80 -246 -80h-45v149h55c75.333 0 107.333 45 96 135l-34 303c-13.333 116 31.667 189.333 135 220
c-104 27.333 -149 100.333 -135 219l34 303c10.667 90 -21.333 135 -96 135h-55v150h45c117.333 0 199.333 -27 246 -81s63.667 -134.333 51 -241l-33 -291c-4 -40.667 2 -70.667 18 -90s47 -29 93 -29z" />
    <glyph glyph-name="asciitilde" unicode="~" horiz-adv-x="532" 
d="M160 539h-141.998c2.66699 64 17.334 115.667 44.001 155s66 59.333 118 60c24.667 0 54.667 -7.33301 90 -22s58.666 -21.667 69.999 -21c22 0 33 13 33 39h141c-6.66699 -143.333 -60.667 -215 -162 -215c-24.667 -0.666992 -54.334 6.33301 -89.001 21
s-57.334 22 -68.001 22c-23.333 0 -35 -13 -35 -39z" />
    <glyph glyph-name="exclamdown" unicode="&#xa1;" horiz-adv-x="339" 
d="M225 926l66 -1110h-242l64 1110h112zM281 1204v-205h-224v205h224z" />
    <glyph glyph-name="cent" unicode="&#xa2;" horiz-adv-x="735" 
d="M272 301c0 -72.667 26 -115.667 78 -129v815c-52 -10.667 -78 -53 -78 -127v-559zM350 -102l0.00195312 87.998c-100 5.33301 -175.333 39.333 -226 102s-76.334 145.334 -77.001 248.001v489c0 102.667 25.667 185.334 77 248.001s126.666 97 225.999 103v106h68v-106
c188.667 -12 282.667 -123.333 282 -334v-84h-217v104c0 68 -21.667 109 -65 123v-811c48 12 71.667 54.333 71 127v158h211v-137c0 -211.333 -94 -323.333 -282 -336v-88h-68z" />
    <glyph glyph-name="sterling" unicode="&#xa3;" 
d="M16 569v174h72v336c0 113.333 26.333 196 79 248s131 78 235 78s182 -26 234 -78s77.667 -127 77 -225v-125h-215v131c0 72.667 -29.333 109 -88 109s-88 -38.333 -88 -115v-359h241v-174h-241v-379h385v-190h-619v569h-72z" />
    <glyph glyph-name="yen" unicode="&#xa5;" horiz-adv-x="776" 
d="M72 432h200v57h-200v127h198l-258 773h244l141 -490h2l142 490h223l-256 -773h197v-127h-199v-57h199v-127h-199v-305h-234v305h-200v127z" />
    <glyph glyph-name="brokenbar" unicode="&#xa6;" horiz-adv-x="313" 
d="M66 1430h174v-730h-174v730zM240 -184h-174v757h174v-757z" />
    <glyph glyph-name="section" unicode="&#xa7;" horiz-adv-x="839" 
d="M240 676c0 -30 6.66797 -54.6689 20.001 -74.002s38.666 -39.666 75.999 -60.999l176 -107c58.667 23.333 88 61 88 113c0 32.667 -6.66699 58.334 -20 77.001s-39.333 38.667 -78 60l-183 109c-52.667 -22 -79 -61 -79 -117zM43.001 634.998
c0 106.667 58 180.336 174 221.003v6c-69.333 61.333 -104 142.666 -104 243.999v22c0 83.333 26 150.333 78 201c52.667 50.667 129 76 229 76s176 -27.333 228 -82s78.333 -131.667 79 -231v-64h-197v74c0 39.333 -10 69.666 -30 90.999
c-20.667 21.333 -49.334 32 -86.001 32c-72.667 0 -109 -32.333 -109 -97v-16c-0.666992 -24 5 -44 17 -60s33.667 -33.667 65 -53l238 -145c61.333 -37.333 105.333 -75.333 132 -114s40 -87.334 40 -146.001c0 -110.667 -58.667 -185.667 -176 -225v-7
c75.333 -61.333 112.666 -139.666 111.999 -234.999v-43c0 -190 -103.667 -285 -311 -285c-101.333 0 -178.666 27.667 -231.999 83s-79.666 132.333 -78.999 231v84h202v-95c0 -78 37.667 -116.667 113 -116c74 0 111 33.333 111 100v23
c-0.666992 26 -7.66699 47.667 -21 65s-41.333 38.666 -84 63.999l-219 133c-113.333 69.333 -170 157.333 -170 264z" />
    <glyph glyph-name="dieresis" unicode="&#xa8;" horiz-adv-x="819" 
d="M434 1212v177h199v-177h-199zM186 1212v177h199v-177h-199z" />
    <glyph glyph-name="copyright" unicode="&#xa9;" horiz-adv-x="851" 
d="M479 649l125 -0.000976562v-78c0 -121.333 -58.667 -182 -176 -182c-60 0 -105.333 17.333 -136 52s-46 81.667 -46 141v209c0 58.667 15.333 105.334 46 140.001s76 52 136 52c117.333 0 176 -60.667 176 -182v-45h-129v57c0 40.667 -16.333 61 -49 61
s-49 -20.333 -49 -61v-254c0 -40.667 17 -61 51 -61s51 20.333 51 61v90zM121 749.999v-123c0 -106.667 26 -191.334 78 -254.001c51.333 -62.667 127 -94 227 -94s176 31.333 228 94s77.667 147.334 77 254.001v123c0 106.667 -26 191.334 -78 254.001
c-51.333 62.667 -127 94 -227 94s-176 -31.333 -228 -94s-77.667 -147.334 -77 -254.001zM795 749.999l0.00195312 -123c0.666992 -118.667 -31.666 -215.334 -96.999 -290.001s-156 -112 -272 -112s-206.333 37.333 -271 112s-97.334 171.334 -98.001 290.001v123
c-0.666992 118.667 31.666 215.334 96.999 290.001s156 111.667 272 111c116 0.666992 206.667 -36.333 272 -111s97.666 -171.334 96.999 -290.001z" />
    <glyph glyph-name="ordfeminine" unicode="&#xaa;" horiz-adv-x="647" 
d="M319 530c58.667 0 88.332 35.667 88.999 107v248c-9.33301 -10 -35.666 -27 -78.999 -51s-69.333 -44 -78 -60s-13 -42.667 -13 -80v-57c-0.666992 -71.333 26.333 -107 81 -107zM607.998 385h-199.999v84h-7c-39.333 -65.333 -92.333 -98 -159 -98
c-136.667 0 -205 84.667 -205 254v75c0 75.333 18.333 131.333 55 168c36 36 88.667 69.333 158 100s113 54 131 70s27 36 27 60v43c0 34 -5.33301 58.333 -16 73s-31.334 21.667 -62.001 21c-30.667 0 -52 -8 -64 -24s-18 -40 -18 -72v-99h-182v84
c0 186 90.333 279 271 279s271 -93.667 271 -281v-737z" />
    <glyph glyph-name="guillemotleft" unicode="&#xab;" horiz-adv-x="591" 
d="M391 774h162l-111 -299l111 -299h-162l-115 299zM154 774h161l-110 -299l110 -299h-161l-115 299z" />
    <glyph glyph-name="registered" unicode="&#xae;" horiz-adv-x="851" 
d="M428 1141h-43v-162h43c31.333 0 47 15 47 45v72c0 30 -15.667 45 -47 45zM385 653h-117v582h172c100 0 150 -46.333 150 -139v-60c0 -70.667 -27.333 -113 -82 -127l92 -256h-121l-94 273v-273zM121 1001v-122c0 -106.667 26 -191.334 78 -254.001
c51.333 -63.333 127 -95 227 -95s176 31.333 228 94s77.667 147.667 77 255v122c0 106.667 -26 191.334 -78 254.001c-51.333 63.333 -127 95 -227 95s-176 -31.333 -228 -94s-77.667 -147.667 -77 -255zM795 1001l0.00195312 -122
c0.666992 -118.667 -31.666 -215.334 -96.999 -290.001s-156 -112 -272 -112s-206.333 37.333 -271 112s-97.334 171.334 -98.001 290.001v122c-0.666992 118.667 31.666 215.334 96.999 290.001s156 112 272 112s206.667 -37.333 272 -112s97.666 -171.334 96.999 -290.001
z" />
    <glyph glyph-name="macron" unicode="&#xaf;" horiz-adv-x="819" 
d="M209 1229v137h401v-137h-401z" />
    <glyph glyph-name="degree" unicode="&#xb0;" horiz-adv-x="409" 
d="M135 1227c-0.666992 -22 5.66602 -40.333 18.999 -55s30.333 -22 51 -22s37.334 7.33301 50.001 22s19 33 19 55s-6.33301 40.333 -19 55s-29.334 21.667 -50.001 21c-20.667 0.666992 -37.667 -6.33301 -51 -21s-19.666 -33 -18.999 -55zM35 1227c0 48 16 88.333 48 121
s72.667 49 122 49s90 -16.333 122 -49s48 -73 48 -121s-16 -88.333 -48 -121s-72.667 -49 -122 -49s-90 16.333 -122 49s-48 73 -48 121z" />
    <glyph glyph-name="twosuperior" unicode="&#xb2;" horiz-adv-x="438" 
d="M51 811l0.000976562 95.999c0.666992 48 7 83.667 19 107s35.667 47 71 71l72 52c22 15.333 33 39 33 71v39c0 26 -10.667 39 -32 39s-32 -15 -32 -45v-51h-131v49c0 105.333 54.667 158 164 158c57.333 0 99.666 -12 126.999 -36s41 -62.667 41 -116v-45
c0 -62.667 -24 -111 -72 -145l-88 -62c-18 -12 -29 -21.667 -33 -29s-6 -20.666 -6 -39.999v-2h189v-111h-322z" />
    <glyph glyph-name="threesuperior" unicode="&#xb3;" horiz-adv-x="440" 
d="M47 1237c0 106.667 55 160 165 160s165 -50 165 -150v-37c0 -52 -23.333 -84 -70 -96c52 -9.33301 78 -42.666 78 -99.999v-60c0 -101.333 -56.667 -152 -170 -152s-170 53.667 -170 161v55h129v-62c0 -32.667 12.333 -49 37 -49s37 15 37 45v62
c0 19.333 -3 32.333 -9 39s-18.667 10 -38 10h-45v94h34c22 0 36.667 3.66699 44 11s11.333 20.666 12 39.999v39c0 30 -11.667 45 -35 45s-35 -16.333 -35 -49v-41h-129v35z" />
    <glyph glyph-name="acute" unicode="&#xb4;" horiz-adv-x="819" 
d="M604 1423v-161l-366 -48v132z" />
    <glyph glyph-name="paragraph" unicode="&#xb6;" 
d="M461 0l-158 -0.000976562v594h-16c-165.333 0 -248 74.333 -248 223v348c0 148.667 82.667 223.334 248 224.001h411v-1389h-157v1231h-80v-1231z" />
    <glyph glyph-name="periodcentered" unicode="&#xb7;" horiz-adv-x="342" 
d="M59 596v225h224v-225h-224z" />
    <glyph glyph-name="cedilla" unicode="&#xb8;" horiz-adv-x="819" 
d="M262 -207v66c50.667 1.33301 76 12 76 32c0 15.333 -11 23 -33 23h-10v86h88v-35c57.333 -8 86 -32.667 86 -74c0 -65.333 -69 -98 -207 -98z" />
    <glyph glyph-name="onesuperior" unicode="&#xb9;" horiz-adv-x="321" 
d="M260 1389v-578h-147v406h-2l-80 -68h-2v137l106 103h125z" />
    <glyph glyph-name="ordmasculine" unicode="&#xba;" horiz-adv-x="657" 
d="M238 649c0 -74.667 30.333 -112 91 -112s91 37.333 91 112v475c0 75.333 -30.333 113 -91 113s-91 -37.667 -91 -113v-475zM330 371c-94 0 -166.333 27.667 -217 83s-76 129.333 -76 222v422c0 94 25 168.333 75 223s122.333 82 217 82s167 -27.333 217 -82
s75 -129 75 -223v-422c0 -92.667 -25 -166.667 -75 -222s-122 -83 -216 -83z" />
    <glyph glyph-name="guillemotright" unicode="&#xbb;" horiz-adv-x="591" 
d="M39 774h162l114 -299l-114 -299h-162l111 299zM276 774h162l115 -299l-115 -299h-162l111 299z" />
    <glyph glyph-name="onequarter" unicode="&#xbc;" horiz-adv-x="536" 
d="M256 176v207h-2l-92 -207h94zM47 80v80l203 418h143v-402h47v-96h-47v-80h-139v80h-207zM340 1389v-578h-147v406h-3l-79 -68h-2v137l106 103h125zM53 649v92h441v-92h-441z" />
    <glyph glyph-name="onehalf" unicode="&#xbd;" horiz-adv-x="528" 
d="M98 0l0.000976562 95.999c0 48 6 83.667 18 107s36 47 72 71l72 52c22 15.333 33 39 33 71v39c0 26 -10.667 39 -32 39s-32 -15 -32 -45v-51h-131v49c0 105.333 54.667 158 164 158c57.333 0 99.666 -12 126.999 -36s41 -62.667 41 -116v-45c0 -62.667 -24 -111 -72 -145
l-88 -62c-17.333 -12 -28 -21.667 -32 -29s-6.33301 -20.666 -7 -39.999v-2h189v-111h-322zM332.001 1389v-578h-148v406h-2l-80 -68h-2v137l107 103h125zM43.001 648.999v92h442v-92h-442z" />
    <glyph glyph-name="threequarters" unicode="&#xbe;" horiz-adv-x="518" 
d="M258 176v207h-2l-92 -207h94zM49 80v80l203 418h143v-402h47v-96h-47v-80h-139v80h-207zM90 1237c0 106.667 55 160 165 160s165 -50 165 -150v-37c0 -52 -23.333 -84 -70 -96c52 -9.33301 78 -42.666 78 -99.999v-60c0 -101.333 -56.667 -152 -170 -152
s-170 53.667 -170 161v55h129v-62c0 -32.667 12.333 -49 37 -49s37 15 37 45v62c0 19.333 -3 32.333 -9 39s-18.667 10 -38 10h-45v94h34c22 0 37 3.66699 45 11c7.33301 7.33301 11 20.666 11 39.999v39c0 30 -11.667 45 -35 45s-35 -16.333 -35 -49v-41h-129v35zM45 649
v92h430v-92h-430z" />
    <glyph glyph-name="questiondown" unicode="&#xbf;" horiz-adv-x="700" 
d="M498 1204v-205h-224v205h224zM287 926l197.999 -0.00195312v-172c0 -74.667 -11.333 -133.667 -34 -177c-8 -16 -26 -45.333 -54 -88l-84 -133c-26 -42 -39 -88.333 -39 -139v-117c0 -75.333 28.667 -112.666 86 -111.999c60 0 90.333 36 91 108v174h215v-168
c0 -98 -26.333 -173 -79 -225s-131 -78 -235 -78s-180.667 24.333 -230 73s-73.666 127.667 -72.999 237v110c0 48 6 87.333 18 118c11.333 30.667 34 71.334 68 122.001l94 141c25.333 38.667 41.333 68.667 48 90c6.66699 22 10 44 10 66v170z" />
    <glyph glyph-name="Agrave" unicode="&#xc0;" horiz-adv-x="821" 
d="M399 997l-92 -557h187l-93 557h-2zM223 1487v162l367 -78v-131zM236 0h-222l262 1389h267l264 -1389h-240l-43 254h-248z" />
    <glyph glyph-name="Aacute" unicode="&#xc1;" horiz-adv-x="821" 
d="M399 997l-92 -557h187l-93 557h-2zM600 1649v-162l-367 -47v131zM236 0h-222l262 1389h267l264 -1389h-240l-43 254h-248z" />
    <glyph glyph-name="Acircumflex" unicode="&#xc2;" horiz-adv-x="821" 
d="M399 997l-92 -557h187l-93 557h-2zM412 1499l-201 -59v112l147 109h103l147 -109v-112zM236 0h-222l262 1389h267l264 -1389h-240l-43 254h-248z" />
    <glyph glyph-name="Atilde" unicode="&#xc3;" horiz-adv-x="821" 
d="M399 997l-92 -557h187l-93 557h-2zM311 1444h-114c5.33301 116 53 174 143 174c22 0 48.667 -5.66699 80 -17s51 -17.333 59 -18c19.333 0 29 10.333 29 31h115c-5.33301 -116 -53.333 -174 -144 -174c-22 0 -48.667 5.66699 -80 17s-51 17.333 -59 18
c-19.333 0 -29 -10.333 -29 -31zM236 0h-222l262 1389h267l264 -1389h-240l-43 254h-248z" />
    <glyph glyph-name="Adieresis" unicode="&#xc4;" horiz-adv-x="821" 
d="M434 1438v176h199v-176h-199zM186 1438v176h199v-176h-199zM399 997l-92 -557h187l-93 557h-2zM236 0h-222l262 1389h267l264 -1389h-240l-43 254h-248z" />
    <glyph glyph-name="Aring" unicode="&#xc5;" horiz-adv-x="821" 
d="M344 1569c0 -19.333 5.66602 -35.332 16.999 -47.999s27 -19 47 -19s35.333 6 46 18c11.333 13.333 17 29.666 17 48.999s-5.66699 35.333 -17 48s-26.666 19 -45.999 19c-18.667 0 -34 -6.33301 -46 -19s-18 -28.667 -18 -48zM398.999 997.001l-92 -557h187l-93 557h-2z
M249.999 1569c0 42 15.002 78 45.002 108s67.667 45 113 45s82.666 -15 111.999 -45s43.666 -66 42.999 -108c0 -42 -14.667 -78.333 -44 -109c-28.667 -30.667 -65.667 -45.667 -111 -45c-45.333 -0.666992 -83 14.333 -113 45s-45 67 -45 109zM236.001 0.000976562h-222
l262 1389h267l264 -1389h-240l-43 254h-248z" />
    <glyph glyph-name="AE" unicode="&#xc6;" horiz-adv-x="1107" 
d="M508 440v734h-2l-172 -734h174zM1065 1389v-191h-324v-397h232v-189h-232v-422h324v-190h-557v254h-217l-60 -254h-221l355 1389h700z" />
    <glyph glyph-name="Ccedilla" unicode="&#xc7;" horiz-adv-x="774" 
d="M299 -207l0.000976562 66c50.667 1.33301 76 12 76 32c0 15.333 -11 23 -33 23h-10v76c-95.333 12 -166 50.667 -212 116s-69 149.333 -69 252v672c0 114.667 28.667 206 86 274s145.666 101.667 264.999 101c119.333 0 203.666 -30 252.999 -90s74 -146 74 -258v-164
h-213v182c0 90 -37.667 135 -113 135c-79.333 0 -118.666 -47.667 -117.999 -143v-745c0 -95.333 39.333 -143.333 118 -144c75.333 0 113 45 113 135v256h213v-239c0 -224 -103 -339.333 -309 -346v-19c57.333 -8 86 -32.667 86 -74c0 -65.333 -69 -98 -207 -98z" />
    <glyph glyph-name="Egrave" unicode="&#xc8;" horiz-adv-x="651" 
d="M160 1487v162l366 -78v-131zM51 0v1389h557v-191h-323v-397h231v-189h-231v-422h323v-190h-557z" />
    <glyph glyph-name="Eacute" unicode="&#xc9;" horiz-adv-x="651" 
d="M537 1649v-162l-367 -47v131zM51 0v1389h557v-191h-323v-397h231v-189h-231v-422h323v-190h-557z" />
    <glyph glyph-name="Ecircumflex" unicode="&#xca;" horiz-adv-x="651" 
d="M348 1499l-201 -59v112l148 109h102l148 -109v-112zM51 0v1389h557v-191h-323v-397h231v-189h-231v-422h323v-190h-557z" />
    <glyph glyph-name="Edieresis" unicode="&#xcb;" horiz-adv-x="651" 
d="M371 1438v176h198v-176h-198zM123 1438v176h199v-176h-199zM51 0v1389h557v-191h-323v-397h231v-189h-231v-422h323v-190h-557z" />
    <glyph glyph-name="Igrave" unicode="&#xcc;" horiz-adv-x="337" 
d="M-18 1487v162l366 -78v-131zM51 0v1389h234v-1389h-234z" />
    <glyph glyph-name="Iacute" unicode="&#xcd;" horiz-adv-x="337" 
d="M358 1649v-162l-366 -47v131zM51 0v1389h234v-1389h-234z" />
    <glyph glyph-name="Icircumflex" unicode="&#xce;" horiz-adv-x="337" 
d="M170 1499l-180 -59v112l127 109h102l127 -109v-112zM51 0v1389h234v-1389h-234z" />
    <glyph glyph-name="Idieresis" unicode="&#xcf;" horiz-adv-x="337" 
d="M188 1438v176h172v-176h-172zM-25 1438v176h172v-176h-172zM51 0v1389h234v-1389h-234z" />
    <glyph glyph-name="Eth" unicode="&#xd0;" horiz-adv-x="800" 
d="M285 190h98c88.667 0 133 47.333 133 142v727c0 92.667 -44.333 139 -133 139h-98v-397h149v-189h-149v-422zM-8 612v189h59v588h361c225.333 0 338 -124.333 338 -373v-643c0 -248.667 -112.667 -373 -338 -373h-361v612h-59z" />
    <glyph glyph-name="Ntilde" unicode="&#xd1;" horiz-adv-x="778" 
d="M313 1444h-114c5.33301 116 53 174 143 174c22 0 48.667 -5.66699 80 -17s51 -17.333 59 -18c19.333 0 29 10.333 29 31h115c-5.33301 -116 -53.333 -174 -144 -174c-22 0 -48.667 5.66699 -80 17s-51 17.333 -59 18c-19.333 0 -29 -10.333 -29 -31zM248 0h-197v1389h230
l251 -797v797h195v-1389h-205l-274 872v-872z" />
    <glyph glyph-name="Ograve" unicode="&#xd2;" horiz-adv-x="808" 
d="M217 1487v162l367 -78v-131zM758 358c0 -113.333 -29.333 -204.001 -88 -272.001s-147.334 -102 -266.001 -102c-118 0 -206.333 34 -265 102s-88 158.667 -88 272v672c0 114.667 29.333 206 88 274s147 101.667 265 101c118.667 0 207.334 -33.667 266.001 -101
s88 -158.666 88 -273.999v-672zM404 177.999c80 0 120 48 120 144v745c0 95.333 -40 143 -120 143s-119.667 -47.667 -119 -143v-745c-0.666992 -96 39 -144 119 -144z" />
    <glyph glyph-name="Oacute" unicode="&#xd3;" horiz-adv-x="808" 
d="M594 1649v-162l-367 -47v131zM758 358c0 -113.333 -29.333 -204.001 -88 -272.001s-147.334 -102 -266.001 -102c-118 0 -206.333 34 -265 102s-88 158.667 -88 272v672c0 114.667 29.333 206 88 274s147 101.667 265 101c118.667 0 207.334 -33.667 266.001 -101
s88 -158.666 88 -273.999v-672zM404 177.999c80 0 120 48 120 144v745c0 95.333 -40 143 -120 143s-119.667 -47.667 -119 -143v-745c-0.666992 -96 39 -144 119 -144z" />
    <glyph glyph-name="Ocircumflex" unicode="&#xd4;" horiz-adv-x="808" 
d="M406 1499l-201 -59v112l147 109h103l147 -109v-112zM758 358c0 -113.333 -29.333 -204.001 -88 -272.001s-147.334 -102 -266.001 -102c-118 0 -206.333 34 -265 102s-88 158.667 -88 272v672c0 114.667 29.333 206 88 274s147 101.667 265 101
c118.667 0 207.334 -33.667 266.001 -101s88 -158.666 88 -273.999v-672zM404 177.999c80 0 120 48 120 144v745c0 95.333 -40 143 -120 143s-119.667 -47.667 -119 -143v-745c-0.666992 -96 39 -144 119 -144z" />
    <glyph glyph-name="Otilde" unicode="&#xd5;" horiz-adv-x="808" 
d="M305 1444h-115c5.33301 116 53.333 174 144 174c22 0 48.667 -5.66699 80 -17s51 -17.333 59 -18c19.333 0 29 10.333 29 31h114c-5.33301 -116 -53 -174 -143 -174c-22 0 -48.667 5.66699 -80 17s-51 17.333 -59 18c-19.333 0 -29 -10.333 -29 -31zM758 358
c0 -113.333 -29.333 -204.001 -88 -272.001s-147.334 -102 -266.001 -102c-118 0 -206.333 34 -265 102s-88 158.667 -88 272v672c0 114.667 29.333 206 88 274s147 101.667 265 101c118.667 0 207.334 -33.667 266.001 -101s88 -158.666 88 -273.999v-672zM404 177.999
c80 0 120 48 120 144v745c0 95.333 -40 143 -120 143s-119.667 -47.667 -119 -143v-745c-0.666992 -96 39 -144 119 -144z" />
    <glyph glyph-name="Odieresis" unicode="&#xd6;" horiz-adv-x="808" 
d="M428 1438v176h199v-176h-199zM180 1438v176h199v-176h-199zM758 358c0 -113.333 -29.333 -204.001 -88 -272.001s-147.334 -102 -266.001 -102c-118 0 -206.333 34 -265 102s-88 158.667 -88 272v672c0 114.667 29.333 206 88 274s147 101.667 265 101
c118.667 0 207.334 -33.667 266.001 -101s88 -158.666 88 -273.999v-672zM404 177.999c80 0 120 48 120 144v745c0 95.333 -40 143 -120 143s-119.667 -47.667 -119 -143v-745c-0.666992 -96 39 -144 119 -144z" />
    <glyph glyph-name="multiply" unicode="&#xd7;" horiz-adv-x="716" 
d="M176 381l-129 129l182 182l-180 180l129 129l180 -182l183 182l129 -129l-183 -182l183 -180l-129 -127l-183 180z" />
    <glyph glyph-name="Oslash" unicode="&#xd8;" horiz-adv-x="808" 
d="M403 172c40.667 0 72.667 13 96 39c22.667 26 33.667 60.667 33 104v566l-251 -609c13.333 -66.667 54 -100 122 -100zM276 1073v-567l252 606c-13.333 69.333 -55 104.333 -125 105c-39.333 0 -70.333 -13 -93 -39s-34 -61 -34 -105zM403 -16
c-90 0 -163 19.668 -219 59.001l-32 -80h-101l64 154c-42 62.667 -63.333 143 -64 241v672c0 114.667 29.333 206 88 274s146.667 101.667 264 101c88.667 0 162.667 -20.667 222 -62l32 80h101l-64 -151c42 -62.667 63.333 -143.334 64 -242.001v-672
c0 -113.333 -29.333 -204 -88 -272s-147.667 -102 -267 -102z" />
    <glyph glyph-name="Ugrave" unicode="&#xd9;" horiz-adv-x="780" 
d="M209 1487v162l366 -78v-131zM514 1389h215v-1051c0 -236 -110 -354 -330 -354c-232 0 -348 118 -348 354v1051h234v-1074c0.666992 -91.333 39 -137 115 -137s114 45.667 114 137v1074z" />
    <glyph glyph-name="Uacute" unicode="&#xda;" horiz-adv-x="780" 
d="M586 1649v-162l-367 -47v131zM514 1389h215v-1051c0 -236 -110 -354 -330 -354c-232 0 -348 118 -348 354v1051h234v-1074c0.666992 -91.333 39 -137 115 -137s114 45.667 114 137v1074z" />
    <glyph glyph-name="Ucircumflex" unicode="&#xdb;" horiz-adv-x="780" 
d="M397 1499l-200 -59v112l147 109h102l148 -109v-112zM514 1389h215v-1051c0 -236 -110 -354 -330 -354c-232 0 -348 118 -348 354v1051h234v-1074c0.666992 -91.333 39 -137 115 -137s114 45.667 114 137v1074z" />
    <glyph glyph-name="Udieresis" unicode="&#xdc;" horiz-adv-x="780" 
d="M420 1438v176h198v-176h-198zM172 1438v176h199v-176h-199zM514 1389h215v-1051c0 -236 -110 -354 -330 -354c-232 0 -348 118 -348 354v1051h234v-1074c0.666992 -91.333 39 -137 115 -137s114 45.667 114 137v1074z" />
    <glyph glyph-name="Yacute" unicode="&#xdd;" horiz-adv-x="776" 
d="M573 1649v-162l-366 -47v131zM506 0h-234v528l-260 861h244l141 -527h2l142 527h223l-258 -861v-528z" />
    <glyph glyph-name="Thorn" unicode="&#xde;" horiz-adv-x="757" 
d="M371 977h-86v-526h86c76.667 0 114.667 38 114 114v299c0.666992 75.333 -37.333 113 -114 113zM51 -2v1391h234v-222h112c113.333 0 195.333 -26.667 246 -80s76 -130.333 76 -231v-272c0 -102.667 -25.333 -180.667 -76 -234s-132.667 -80 -246 -80h-112v-272h-234z
" />
    <glyph glyph-name="germandbls" unicode="&#xdf;" horiz-adv-x="755" 
d="M475 1161c0 46.667 -29.333 70.667 -88 72c-39.333 0.666992 -67.666 -9.66602 -84.999 -30.999s-26 -56.666 -26 -105.999v-1096h-225v1081c0 102.667 29 182.334 87 239.001c58.667 56.667 138.667 85 240 85c101.333 0.666992 176.666 -20.333 225.999 -63
s74 -91.334 74 -146.001c0 -108.667 -50 -171.334 -150 -188.001c120 -19.333 180.333 -97.333 181 -234v-469c0 -102 -23.667 -178.333 -71 -229s-127 -76 -239 -76h-67v182h41c74 0 110.667 39 110 117v502c0 75.333 -37.333 112.666 -112 111.999h-39v172h26
c78 0 117 25.333 117 76z" />
    <glyph glyph-name="agrave" unicode="&#xe0;" horiz-adv-x="735" 
d="M197 1262v161l366 -77v-132zM360 164c69.333 0 104.333 41 105 123v297c-12 -13.333 -42.667 -34 -92 -62s-80 -52 -92 -72s-18.333 -50.667 -19 -92v-71c0 -82 32.667 -123 98 -123zM690 0l-225 -0.00195312v96h-6c-45.333 -75.333 -107 -112.666 -185 -111.999
c-158.667 0 -237.667 97.333 -237 292v89c0 87.333 20.667 151.333 62 192s102.333 78.334 183 113.001s131.334 61.667 152.001 81c20.667 18.667 31 42 31 70v53c-0.666992 41.333 -7.66699 71.333 -21 90s-36.333 27.667 -69 27
c-66.667 0 -100.334 -39.667 -101.001 -119v-114h-204v98c0 214.667 104.333 322 313 322c108.667 0 187 -27.333 235 -82s72 -136 72 -244v-852z" />
    <glyph glyph-name="aacute" unicode="&#xe1;" horiz-adv-x="735" 
d="M573 1423v-161l-366 -48v132zM360 164c69.333 0 104.333 41 105 123v297c-12 -13.333 -42.667 -34 -92 -62s-80 -52 -92 -72s-18.333 -50.667 -19 -92v-71c0 -82 32.667 -123 98 -123zM690 0l-225 -0.00195312v96h-6c-45.333 -75.333 -107 -112.666 -185 -111.999
c-158.667 0 -237.667 97.333 -237 292v89c0 87.333 20.667 151.333 62 192s102.333 78.334 183 113.001s131.334 61.667 152.001 81c20.667 18.667 31 42 31 70v53c-0.666992 41.333 -7.66699 71.333 -21 90s-36.333 27.667 -69 27
c-66.667 0 -100.334 -39.667 -101.001 -119v-114h-204v98c0 214.667 104.333 322 313 322c108.667 0 187 -27.333 235 -82s72 -136 72 -244v-852z" />
    <glyph glyph-name="acircumflex" unicode="&#xe2;" horiz-adv-x="735" 
d="M385 1274l-201 -60v113l148 109h102l148 -109v-113zM360 164c69.333 0 104.333 41 105 123v297c-12 -13.333 -42.667 -34 -92 -62s-80 -52 -92 -72s-18.333 -50.667 -19 -92v-71c0 -82 32.667 -123 98 -123zM690 0l-225 -0.00195312v96h-6
c-45.333 -75.333 -107 -112.666 -185 -111.999c-158.667 0 -237.667 97.333 -237 292v89c0 87.333 20.667 151.333 62 192s102.333 78.334 183 113.001s131.334 61.667 152.001 81c20.667 18.667 31 42 31 70v53c-0.666992 41.333 -7.66699 71.333 -21 90
s-36.333 27.667 -69 27c-66.667 0 -100.334 -39.667 -101.001 -119v-114h-204v98c0 214.667 104.333 322 313 322c108.667 0 187 -27.333 235 -82s72 -136 72 -244v-852z" />
    <glyph glyph-name="atilde" unicode="&#xe3;" horiz-adv-x="735" 
d="M285 1219h-114.999c5.33301 116 53 174 143 174c22 0.666992 48.667 -5 80 -17s51.333 -18 60 -18c19.333 0 28.666 10.333 27.999 31h115c-5.33301 -116 -53 -174.333 -143 -175c-22 0 -48.667 6 -80 18s-51.333 17.667 -60 17c-18.667 0.666992 -28 -9.33301 -28 -30z
M360.001 164c69.333 0 104.333 41 105 123v297c-12 -13.333 -42.667 -34 -92 -62s-80 -52 -92 -72s-18.333 -50.667 -19 -92v-71c0 -82 32.667 -123 98 -123zM690.001 0l-225 -0.00195312v96h-6c-45.333 -75.333 -107 -112.666 -185 -111.999
c-158.667 0 -237.667 97.333 -237 292v89c0 87.333 20.667 151.333 62 192s102.333 78.334 183 113.001s131.334 61.667 152.001 81c20.667 18.667 31 42 31 70v53c-0.666992 41.333 -7.66699 71.333 -21 90s-36.333 27.667 -69 27
c-66.667 0 -100.334 -39.667 -101.001 -119v-114h-204v98c0 214.667 104.333 322 313 322c108.667 0 187 -27.333 235 -82s72 -136 72 -244v-852z" />
    <glyph glyph-name="adieresis" unicode="&#xe4;" horiz-adv-x="735" 
d="M408 1212v177h198v-177h-198zM160 1212v177h198v-177h-198zM360 164c69.333 0 104.333 41 105 123v297c-12 -13.333 -42.667 -34 -92 -62s-80 -52 -92 -72s-18.333 -50.667 -19 -92v-71c0 -82 32.667 -123 98 -123zM690 0l-225 -0.00195312v96h-6
c-45.333 -75.333 -107 -112.666 -185 -111.999c-158.667 0 -237.667 97.333 -237 292v89c0 87.333 20.667 151.333 62 192s102.333 78.334 183 113.001s131.334 61.667 152.001 81c20.667 18.667 31 42 31 70v53c-0.666992 41.333 -7.66699 71.333 -21 90
s-36.333 27.667 -69 27c-66.667 0 -100.334 -39.667 -101.001 -119v-114h-204v98c0 214.667 104.333 322 313 322c108.667 0 187 -27.333 235 -82s72 -136 72 -244v-852z" />
    <glyph glyph-name="aring" unicode="&#xe5;" horiz-adv-x="735" 
d="M322 1364c0 -19.333 5.66797 -35.333 17.001 -48c11.333 -13.333 26.666 -20 45.999 -20s34.666 6.66699 45.999 20s17.333 29.333 18 48c0.666992 19.333 -5 35.333 -17 48c-12 13.333 -27.667 20 -47 20s-34.666 -6.66699 -45.999 -20s-17 -29.333 -17 -48z
M227.001 1364c0 41.333 15 77.333 45 108s67.667 46 113 46s82.666 -15 111.999 -45s44 -66.333 44 -109s-14.667 -78.667 -44 -108c-29.333 -30.667 -66.666 -46 -111.999 -46s-83 15.333 -113 46s-45 66.667 -45 108zM360.001 164c69.333 0 104.333 41 105 123v297
c-12 -13.333 -42.667 -34 -92 -62s-80 -52 -92 -72s-18.333 -50.667 -19 -92v-71c0 -82 32.667 -123 98 -123zM690.001 0l-225 -0.00195312v96h-6c-45.333 -75.333 -107 -112.666 -185 -111.999c-158.667 0 -237.667 97.333 -237 292v89c0 87.333 20.667 151.333 62 192
s102.333 78.334 183 113.001s131.334 61.667 152.001 81c20.667 18.667 31 42 31 70v53c-0.666992 41.333 -7.66699 71.333 -21 90s-36.333 27.667 -69 27c-66.667 0 -100.334 -39.667 -101.001 -119v-114h-204v98c0 214.667 104.333 322 313 322
c108.667 0 187 -27.333 235 -82s72 -136 72 -244v-852z" />
    <glyph glyph-name="ae" unicode="&#xe6;" horiz-adv-x="1167" 
d="M690 860v-162h213v162c0 87.333 -34.667 131 -104 131c-72.667 0 -109 -43.667 -109 -131zM360 164c69.333 0 104.333 41 105 123l-2 248h-86c-44.667 0 -75 -10.667 -91 -32s-24 -57.333 -24 -108v-108c0 -82 32.667 -123 98 -123zM907 459h213.001v-137
c0 -225.333 -107 -338 -321 -338c-124 0 -208 45 -252 135h-2c-40.667 -90 -122 -135 -244 -135c-176 0 -264 97.333 -264 292v125c0 198 88.667 297 266 297h162v176c-0.666992 41.333 -7.66699 71.333 -21 90s-36.333 27.667 -69 27
c-66.667 0 -100.334 -39.667 -101.001 -119v-114h-204v98c0 214.667 100.333 322 301 322c100 0 173 -31 219 -93c54.667 62 130.667 93 228 93s172 -29.333 224 -88s78 -142 78 -250v-305h-430v-234c0 -87.333 37.667 -131 113 -131c69.333 0 104 43.667 104 131v158z" />
    <glyph glyph-name="ccedilla" unicode="&#xe7;" horiz-adv-x="735" 
d="M287 -207v66.001c50.667 1.33301 75.667 12 75 32c0 15.333 -10.667 23 -32 23h-11v74c-90 12 -157.667 48.667 -203 110s-68.333 140.666 -69 237.999v489c0 108 28.333 193.667 85 257s139.667 95.333 249 96c212.667 0 319 -112 319 -336v-84h-217v104
c0 86 -34 129 -102 129c-72.667 0 -109 -43.667 -109 -131v-559c0 -87.333 37 -131 111 -131c70.667 0 106 43.667 106 131v158h211v-137c0 -214.667 -97.333 -326.667 -292 -336v-21c57.333 -8 86 -32.667 86 -74c0 -65.333 -69 -98 -207 -98z" />
    <glyph glyph-name="egrave" unicode="&#xe8;" 
d="M272 860v-137h213v137c0 87.333 -34.667 131 -104 131c-72.667 0 -109 -43.667 -109 -131zM201 1262v161l366 -77v-132zM489 459h213v-137c0 -225.333 -107 -338 -321 -338c-109.333 0 -192.333 31.667 -249 95s-85 149 -85 257v489c0 108 28.333 193.667 85 257
s139.667 95.333 249 96c214.667 0 321.667 -112.667 321 -338v-281h-430v-258c0 -87.333 37.667 -131 113 -131c69.333 0 104 43.667 104 131v158z" />
    <glyph glyph-name="eacute" unicode="&#xe9;" 
d="M272 860v-137h213v137c0 87.333 -34.667 131 -104 131c-72.667 0 -109 -43.667 -109 -131zM578 1423v-161l-367 -48v132zM489 459h213v-137c0 -225.333 -107 -338 -321 -338c-109.333 0 -192.333 31.667 -249 95s-85 149 -85 257v489c0 108 28.333 193.667 85 257
s139.667 95.333 249 96c214.667 0 321.667 -112.667 321 -338v-281h-430v-258c0 -87.333 37.667 -131 113 -131c69.333 0 104 43.667 104 131v158z" />
    <glyph glyph-name="ecircumflex" unicode="&#xea;" 
d="M272 860v-137h213v137c0 87.333 -34.667 131 -104 131c-72.667 0 -109 -43.667 -109 -131zM389 1274l-201 -60v113l148 109h102l148 -109v-113zM489 459h213v-137c0 -225.333 -107 -338 -321 -338c-109.333 0 -192.333 31.667 -249 95s-85 149 -85 257v489
c0 108 28.333 193.667 85 257s139.667 95.333 249 96c214.667 0 321.667 -112.667 321 -338v-281h-430v-258c0 -87.333 37.667 -131 113 -131c69.333 0 104 43.667 104 131v158z" />
    <glyph glyph-name="edieresis" unicode="&#xeb;" 
d="M412 1212v177h198v-177h-198zM164 1212v177h198v-177h-198zM272 860v-137h213v137c0 87.333 -34.667 131 -104 131c-72.667 0 -109 -43.667 -109 -131zM489 459h213v-137c0 -225.333 -107 -338 -321 -338c-109.333 0 -192.333 31.667 -249 95s-85 149 -85 257v489
c0 108 28.333 193.667 85 257s139.667 95.333 249 96c214.667 0 321.667 -112.667 321 -338v-281h-430v-258c0 -87.333 37.667 -131 113 -131c69.333 0 104 43.667 104 131v158z" />
    <glyph glyph-name="igrave" unicode="&#xec;" horiz-adv-x="327" 
d="M8 1262v161l305 -77v-132zM51 0v1161h225v-1161h-225z" />
    <glyph glyph-name="iacute" unicode="&#xed;" horiz-adv-x="327" 
d="M324 1423v-161l-306 -48v132zM51 0v1161h225v-1161h-225z" />
    <glyph glyph-name="icircumflex" unicode="&#xee;" horiz-adv-x="327" 
d="M166 1274l-170 -60v113l117 109h102l117 -109v-113zM51 0v1161h225v-1161h-225z" />
    <glyph glyph-name="idieresis" unicode="&#xef;" horiz-adv-x="327" 
d="M184 1212v177h172v-177h-172zM-29 1212v177h172v-177h-172zM51 0v1161h225v-1161h-225z" />
    <glyph glyph-name="eth" unicode="&#xf0;" horiz-adv-x="759" 
d="M272 301c0 -87.333 36 -131 108 -131s107.667 43.667 107 131v559c0.666992 87.333 -35 131 -107 131s-108 -43.667 -108 -131v-559zM713 862l0.00292969 -526c0 -108 -28.333 -193.667 -85 -257s-139.334 -95 -248.001 -95s-191.334 31.667 -248.001 95s-85 149 -85 257
v489c0.666992 102.667 21.667 180.667 63 234s97.666 80 168.999 80c42 0 79.333 -16.333 112 -49c-5.33301 13.333 -16.333 30.333 -33 51l-59 71l-180 -47v92l119 31l-78 101h246l34 -46l152 41v-92l-90 -24l53 -64c57.333 -70.667 98 -129.667 122 -177
s36 -102.333 36 -165z" />
    <glyph glyph-name="ntilde" unicode="&#xf1;" 
d="M285 1219h-114.999c5.33301 116 53 174 143 174c22 0.666992 48.667 -5 80 -17s51.333 -18 60 -18c19.333 0 28.666 10.333 27.999 31h115c-5.33301 -116 -53 -174.333 -143 -175c-22 0 -48.667 6 -80 18s-51.333 17.667 -60 17c-18.667 0.666992 -28 -9.33301 -28 -30z
M477.001 0l0.000976562 874c0 79.333 -33.333 119 -100 119s-100.334 -39.667 -101.001 -119v-874h-225v1161h225v-119h5c38 90 105.333 135.333 202 136c146 0 219 -97.667 219 -293v-885h-225z" />
    <glyph glyph-name="ograve" unicode="&#xf2;" horiz-adv-x="759" 
d="M193 1262v161l366 -77v-132zM272 301c0 -87.333 36 -131 108 -131s107.667 43.667 107 131v559c0.666992 87.333 -35 131 -107 131s-108 -43.667 -108 -131v-559zM380 -16c-108.667 0 -191.334 31.667 -248.001 95s-85 149 -85 257v489c0 108 28.333 193.667 85 257
c56.667 64 139.334 96 248.001 96s191.334 -32 248.001 -96s85 -149.667 85 -257v-489c0 -108 -28.333 -193.667 -85 -257s-139.334 -95 -248.001 -95z" />
    <glyph glyph-name="oacute" unicode="&#xf3;" horiz-adv-x="759" 
d="M569 1423v-161l-366 -48v132zM272 301c0 -87.333 36 -131 108 -131s107.667 43.667 107 131v559c0.666992 87.333 -35 131 -107 131s-108 -43.667 -108 -131v-559zM380 -16c-108.667 0 -191.334 31.667 -248.001 95s-85 149 -85 257v489c0 108 28.333 193.667 85 257
c56.667 64 139.334 96 248.001 96s191.334 -32 248.001 -96s85 -149.667 85 -257v-489c0 -108 -28.333 -193.667 -85 -257s-139.334 -95 -248.001 -95z" />
    <glyph glyph-name="ocircumflex" unicode="&#xf4;" horiz-adv-x="759" 
d="M381 1274l-201 -60v113l148 109h102l148 -109v-113zM272 301c0 -87.333 36 -131 108 -131s107.667 43.667 107 131v559c0.666992 87.333 -35 131 -107 131s-108 -43.667 -108 -131v-559zM380 -16c-108.667 0 -191.334 31.667 -248.001 95s-85 149 -85 257v489
c0 108 28.333 193.667 85 257c56.667 64 139.334 96 248.001 96s191.334 -32 248.001 -96s85 -149.667 85 -257v-489c0 -108 -28.333 -193.667 -85 -257s-139.334 -95 -248.001 -95z" />
    <glyph glyph-name="otilde" unicode="&#xf5;" horiz-adv-x="759" 
d="M281 1219h-114.999c5.33301 116 53 174 143 174c22 0.666992 48.667 -5 80 -17s51.333 -18 60 -18c19.333 0 28.666 10.333 27.999 31h115c-5.33301 -116 -53 -174.333 -143 -175c-22 0 -48.667 6 -80 18s-51.333 17.667 -60 17c-18.667 0.666992 -28 -9.33301 -28 -30z
M272.001 301c0 -87.333 36 -131 108 -131s107.667 43.667 107 131v559c0.666992 87.333 -35 131 -107 131s-108 -43.667 -108 -131v-559zM380.001 -16c-108.667 0 -191.334 31.667 -248.001 95s-85 149 -85 257v489c0 108 28.333 193.667 85 257
c56.667 64 139.334 96 248.001 96s191.334 -32 248.001 -96s85 -149.667 85 -257v-489c0 -108 -28.333 -193.667 -85 -257s-139.334 -95 -248.001 -95z" />
    <glyph glyph-name="odieresis" unicode="&#xf6;" horiz-adv-x="759" 
d="M403 1212v177h199v-177h-199zM156 1212v177h198v-177h-198zM272 301c0 -87.333 36 -131 108 -131s107.667 43.667 107 131v559c0.666992 87.333 -35 131 -107 131s-108 -43.667 -108 -131v-559zM380 -16c-108.667 0 -191.334 31.667 -248.001 95s-85 149 -85 257v489
c0 108 28.333 193.667 85 257c56.667 64 139.334 96 248.001 96s191.334 -32 248.001 -96s85 -149.667 85 -257v-489c0 -108 -28.333 -193.667 -85 -257s-139.334 -95 -248.001 -95z" />
    <glyph glyph-name="divide" unicode="&#xf7;" horiz-adv-x="739" 
d="M45 598v180h649v-180h-649zM258 829v226h223v-226h-223zM258 319v224h223v-224h-223z" />
    <glyph glyph-name="oslash" unicode="&#xf8;" horiz-adv-x="759" 
d="M370 164c84 0 126 43.667 126 131v420l-222 -486c20 -43.333 52 -65 96 -65zM264 866v-440l223 494c-15.333 52 -50.666 77.667 -105.999 77c-36.667 0 -65.334 -11.667 -86.001 -35s-31 -55.333 -31 -96zM381 -16c-78 0 -143 16.335 -195 49.002l-34 -76h-101l64 141
c-45.333 61.333 -68 140.666 -68 237.999v489c0 108 28.333 193.667 85 257s139.667 95.333 249 96c78 0 144.333 -18.667 199 -56l32 72h101l-64 -139c42 -58.667 63.333 -135.334 64 -230.001v-489c0 -108 -28.333 -193.667 -85 -257s-139 -95 -247 -95z" />
    <glyph glyph-name="ugrave" unicode="&#xf9;" 
d="M186 1262v161l367 -77v-132zM272 1161l-0.00195312 -874c0 -79.333 33.333 -119 100 -119s100.334 39.667 101.001 119v874h225v-1161h-225v119h-4c-39.333 -90 -107.666 -135 -204.999 -135c-144.667 0 -217 97.333 -217 292v885h225z" />
    <glyph glyph-name="uacute" unicode="&#xfa;" 
d="M563 1423v-161l-366 -48v132zM272 1161v-874c0 -79.333 32.667 -119 98 -119s99.666 34 102.999 102v891h225v-1161h-225v119h-4c-39.333 -90 -107.666 -135 -204.999 -135c-144.667 0 -217 97.333 -217 292v885h225z" />
    <glyph glyph-name="ucircumflex" unicode="&#xfb;" 
d="M375 1274l-201 -60v113l148 109h102l147 -109v-113zM272 1161v-874c0 -79.333 32.667 -119 98 -119s99.666 34 102.999 102v891h225v-1161h-225v119h-4c-39.333 -90 -107.666 -135 -204.999 -135c-144.667 0 -217 97.333 -217 292v885h225z" />
    <glyph glyph-name="udieresis" unicode="&#xfc;" 
d="M150 1212v177h198v-177h-198zM397 1212v177h199v-177h-199zM272 1161v-874c0 -79.333 32.667 -119 98 -119s99.666 34 102.999 102v891h225v-1161h-225v119h-4c-39.333 -90 -107.666 -135 -204.999 -135c-144.667 0 -217 97.333 -217 292v885h225z" />
    <glyph glyph-name="yacute" unicode="&#xfd;" horiz-adv-x="692" 
d="M537 1423v-161l-367 -48v132zM180 -184l-78.002 0.000976562v180h74c24.667 0 42.667 4.66699 54 14s21.333 28.666 30 57.999l8 36h-53l-211 1057h234l106 -712h2l137 712h205l-233 -1145c-15.333 -74.667 -43.666 -126.667 -84.999 -156s-104.666 -44 -189.999 -44z
" />
    <glyph glyph-name="thorn" unicode="&#xfe;" 
d="M479 285l-0.000976562 589c0 79.333 -33 119 -99 119s-100.667 -34.667 -104 -104v-621c2.66699 -68 37.334 -102 104.001 -102s99.667 39.667 99 119zM50.999 -184l0.000976562 1573h225v-347h5c39.333 90 107.333 135.333 204 136c146 0 219.333 -97.667 220 -293v-609
c0 -195.333 -76.667 -292.666 -230 -291.999c-54.667 0 -96.334 12 -125.001 36s-51.667 56.333 -69 97h-5v-301h-225z" />
    <glyph glyph-name="ydieresis" unicode="&#xff;" horiz-adv-x="692" 
d="M371 1212v177h198v-177h-198zM123 1212v177h199v-177h-199zM180 -184l-78.002 0.000976562v180h74c24.667 0 42.667 4.66699 54 14s21.333 28.666 30 57.999l8 36h-53l-211 1057h234l106 -712h2l137 712h205l-233 -1145c-15.333 -74.667 -43.666 -126.667 -84.999 -156
s-104.666 -44 -189.999 -44z" />
    <glyph glyph-name="Amacron" unicode="&#x100;" horiz-adv-x="821" 
d="M399 997l-92 -557h187l-93 557h-2zM209 1454v137h401v-137h-401zM236 0h-222l262 1389h267l264 -1389h-240l-43 254h-248z" />
    <glyph glyph-name="amacron" unicode="&#x101;" horiz-adv-x="735" 
d="M182 1229v137h402v-137h-402zM360 164c69.333 0 104.333 41 105 123v297c-12 -13.333 -42.667 -34 -92 -62s-80 -52 -92 -72s-18.333 -50.667 -19 -92v-71c0 -82 32.667 -123 98 -123zM690 0l-225 -0.00195312v96h-6c-45.333 -75.333 -107 -112.666 -185 -111.999
c-158.667 0 -237.667 97.333 -237 292v89c0 87.333 20.667 151.333 62 192s102.333 78.334 183 113.001s131.334 61.667 152.001 81c20.667 18.667 31 42 31 70v53c-0.666992 41.333 -7.66699 71.333 -21 90s-36.333 27.667 -69 27
c-66.667 0 -100.334 -39.667 -101.001 -119v-114h-204v98c0 214.667 104.333 322 313 322c108.667 0 187 -27.333 235 -82s72 -136 72 -244v-852z" />
    <glyph glyph-name="Abreve" unicode="&#x102;" horiz-adv-x="821" 
d="M399 997l-92 -557h187l-93 557h-2zM411 1440c-55.333 0 -102.001 17 -140.001 51c-37.333 34 -56.666 79 -57.999 135h137c4 -31.333 24 -47 60 -47s57 15.667 63 47h133c-1.33301 -56 -20.333 -101 -57 -135s-82.667 -51 -138 -51zM235.999 0h-222l262 1389h267
l264 -1389h-240l-43 254h-248z" />
    <glyph glyph-name="abreve" unicode="&#x103;" horiz-adv-x="735" 
d="M383 1354c35.333 0 56.3311 15.667 62.998 47h134c-1.33301 -56 -20.666 -101 -57.999 -135c-37.333 -34.667 -83.333 -52 -138 -52c-55.333 0 -101.666 17.333 -138.999 52s-57 79.667 -59 135h138c4 -31.333 23.667 -47 59 -47zM359.998 164
c69.333 0 104.333 41 105 123v297c-12 -13.333 -42.667 -34 -92 -62s-80 -52 -92 -72s-18.333 -50.667 -19 -92v-71c0 -82 32.667 -123 98 -123zM689.998 0l-225 -0.00195312v96h-6c-45.333 -75.333 -107 -112.666 -185 -111.999c-158.667 0 -237.667 97.333 -237 292v89
c0 87.333 20.667 151.333 62 192s102.333 78.334 183 113.001s131.334 61.667 152.001 81c20.667 18.667 31 42 31 70v53c-0.666992 41.333 -7.66699 71.333 -21 90s-36.333 27.667 -69 27c-66.667 0 -100.334 -39.667 -101.001 -119v-114h-204v98
c0 214.667 104.333 322 313 322c108.667 0 187 -27.333 235 -82s72 -136 72 -244v-852z" />
    <glyph glyph-name="Aogonek" unicode="&#x104;" horiz-adv-x="821" 
d="M399 997l-92 -557h187l-93 557h-2zM764 -49c0 -12 9 -18.335 27 -19.002h8v-116h-82c-94 0 -141.333 28 -142 84c0 26.667 12.667 49.334 38 68.001s45 29.334 59 32.001h-105l-43 254h-248l-40 -254h-222l262 1389h267l264 -1389h-8c-23.333 -20.667 -35 -37 -35 -49z
" />
    <glyph glyph-name="aogonek" unicode="&#x105;" horiz-adv-x="735" 
d="M360 164c69.333 0 104.333 41 105 123v297c-12 -13.333 -42.667 -34 -92 -62s-80 -52 -92 -72s-18.333 -50.667 -19 -92v-71c0 -82 32.667 -123 98 -123zM655 -49c0 -12 9.00098 -18.3369 27.001 -19.0039h8v-116h-82c-94 0 -141 28 -141 84
c0 26.667 12.667 49.334 38 68.001s44.666 29.334 57.999 32.001h-98v96h-6c-45.333 -75.333 -107 -112.666 -185 -111.999c-158.667 0 -237.667 97.333 -237 292v89c0 87.333 20.667 151.333 62 192s102.333 78.334 183 113.001s131.334 61.667 152.001 81
c20.667 18.667 31 42 31 70v53c-0.666992 41.333 -7.66699 71.333 -21 90s-36.333 27.667 -69 27c-66.667 0 -100.334 -39.667 -101.001 -119v-114h-204v98c0 214.667 104.333 322 313 322c108.667 0 187 -27.333 235 -82s72 -136 72 -244v-852
c-23.333 -20.667 -35 -37 -35 -49z" />
    <glyph glyph-name="Cacute" unicode="&#x106;" horiz-adv-x="774" 
d="M586 1649v-162l-367 -47v131zM399 -16c-117.333 0 -204.666 34 -261.999 102s-86 158.667 -86 272v672c0 114.667 28.667 206 86 274s145.666 101.667 264.999 101c119.333 0 203.666 -30 252.999 -90s74 -146 74 -258v-164h-213v182c0 90 -37.667 135 -113 135
c-79.333 0 -118.666 -47.667 -117.999 -143v-745c0 -95.333 39.333 -143.333 118 -144c75.333 0 113 45 113 135v256h213v-239c0 -230.667 -110 -346 -330 -346z" />
    <glyph glyph-name="cacute" unicode="&#x107;" horiz-adv-x="735" 
d="M573 1423v-161l-366 -48v132zM489 459h211v-137c0 -225.333 -106.333 -338 -319 -338c-109.333 0 -192.333 31.667 -249 95s-85 149 -85 257v489c0 108 28.333 193.667 85 257s139.667 95.333 249 96c212.667 0 319 -112 319 -336v-84h-217v104c0 86 -34 129 -102 129
c-72.667 0 -109 -43.667 -109 -131v-559c0 -87.333 37 -131 111 -131c70.667 0 106 43.667 106 131v158z" />
    <glyph glyph-name="Ccircumflex" unicode="&#x108;" horiz-adv-x="774" 
d="M397 1499l-200 -59v112l147 109h102l148 -109v-112zM399 -16c-117.333 0 -204.666 34 -261.999 102s-86 158.667 -86 272v672c0 114.667 28.667 206 86 274s145.666 101.667 264.999 101c119.333 0 203.666 -30 252.999 -90s74 -146 74 -258v-164h-213v182
c0 90 -37.667 135 -113 135c-79.333 0 -118.666 -47.667 -117.999 -143v-745c0 -95.333 39.333 -143.333 118 -144c75.333 0 113 45 113 135v256h213v-239c0 -230.667 -110 -346 -330 -346z" />
    <glyph glyph-name="ccircumflex" unicode="&#x109;" horiz-adv-x="735" 
d="M385 1274l-201 -60v113l148 109h102l148 -109v-113zM489 459h211v-137c0 -225.333 -106.333 -338 -319 -338c-109.333 0 -192.333 31.667 -249 95s-85 149 -85 257v489c0 108 28.333 193.667 85 257s139.667 95.333 249 96c212.667 0 319 -112 319 -336v-84h-217v104
c0 86 -34 129 -102 129c-72.667 0 -109 -43.667 -109 -131v-559c0 -87.333 37 -131 111 -131c70.667 0 106 43.667 106 131v158z" />
    <glyph glyph-name="Cdotaccent" unicode="&#x10a;" horiz-adv-x="774" 
d="M285 1438v176h225v-176h-225zM399 -16c-117.333 0 -204.666 34 -261.999 102s-86 158.667 -86 272v672c0 114.667 28.667 206 86 274s145.666 101.667 264.999 101c119.333 0 203.666 -30 252.999 -90s74 -146 74 -258v-164h-213v182c0 90 -37.667 135 -113 135
c-79.333 0 -118.666 -47.667 -117.999 -143v-745c0 -95.333 39.333 -143.333 118 -144c75.333 0 113 45 113 135v256h213v-239c0 -230.667 -110 -346 -330 -346z" />
    <glyph glyph-name="cdotaccent" unicode="&#x10b;" horiz-adv-x="735" 
d="M272 1212v177h226v-177h-226zM489 459h211v-137c0 -225.333 -106.333 -338 -319 -338c-109.333 0 -192.333 31.667 -249 95s-85 149 -85 257v489c0 108 28.333 193.667 85 257s139.667 95.333 249 96c212.667 0 319 -112 319 -336v-84h-217v104c0 86 -34 129 -102 129
c-72.667 0 -109 -43.667 -109 -131v-559c0 -87.333 37 -131 111 -131c70.667 0 106 43.667 106 131v158z" />
    <glyph glyph-name="Ccaron" unicode="&#x10c;" horiz-adv-x="774" 
d="M393 1599l201 60v-113l-148 -108h-102l-147 108v113zM399 -16c-117.333 0 -204.666 34 -261.999 102s-86 158.667 -86 272v672c0 114.667 28.667 206 86 274s145.666 101.667 264.999 101c119.333 0 203.666 -30 252.999 -90s74 -146 74 -258v-164h-213v182
c0 90 -37.667 135 -113 135c-79.333 0 -118.666 -47.667 -117.999 -143v-745c0 -95.333 39.333 -143.333 118 -144c75.333 0 113 45 113 135v256h213v-239c0 -230.667 -110 -346 -330 -346z" />
    <glyph glyph-name="ccaron" unicode="&#x10d;" horiz-adv-x="735" 
d="M381 1374l201 60v-113l-148 -109h-102l-148 109v113zM489 459h211v-137c0 -225.333 -106.333 -338 -319 -338c-109.333 0 -192.333 31.667 -249 95s-85 149 -85 257v489c0 108 28.333 193.667 85 257s139.667 95.333 249 96c212.667 0 319 -112 319 -336v-84h-217v104
c0 86 -34 129 -102 129c-72.667 0 -109 -43.667 -109 -131v-559c0 -87.333 37 -131 111 -131c70.667 0 106 43.667 106 131v158z" />
    <glyph glyph-name="Dcaron" unicode="&#x10e;" horiz-adv-x="800" 
d="M369 1599l200 60v-113l-147 -108h-103l-147 108v113zM412 1389c225.333 0 338 -124.333 338 -373v-643c0 -248.667 -112.667 -373 -338 -373h-361v1389h361zM285 190h98c88.667 0 133 47.333 133 142v727c0 92.667 -44.333 139 -133 139h-98v-1008z" />
    <glyph glyph-name="dcaron" unicode="&#x10f;" 
d="M909 1389v-19l-51 -172h-108v191h159zM272 874v-589c0 -79.333 34 -119 102 -119s101.667 39.667 101 119v604c-4.66699 69.333 -39.667 104 -105 104s-98 -39.667 -98 -119zM700 1389l-0.000976562 -1389h-225v119h-4c-39.333 -90 -104.333 -135 -195 -135
c-152.667 0 -229 97.333 -229 292v609c0 195.333 73.667 293 221 293c96.667 0 164.334 -45.333 203.001 -136h4v347h225z" />
    <glyph glyph-name="Dcroat" unicode="&#x110;" horiz-adv-x="800" 
d="M285 190h98c88.667 0 133 47.333 133 142v727c0 92.667 -44.333 139 -133 139h-98v-397h149v-189h-149v-422zM-8 612v189h59v588h361c225.333 0 338 -124.333 338 -373v-643c0 -248.667 -112.667 -373 -338 -373h-361v612h-59z" />
    <glyph glyph-name="dcroat" unicode="&#x111;" 
d="M272 874v-589c0 -79.333 34 -119 102 -119s101.667 39.667 101 119v589c0.666992 79.333 -33 119 -101 119s-102 -39.667 -102 -119zM700 1389l-0.000976562 -82h58v-90h-58v-1217h-225v119h-4c-39.333 -90 -104.333 -135 -195 -135c-152.667 0 -229 97.333 -229 292v609
c0 195.333 73.667 293 221 293c96.667 0 164.334 -45.333 203.001 -136h4v175h-166v90h166v82h225z" />
    <glyph glyph-name="Emacron" unicode="&#x112;" horiz-adv-x="651" 
d="M145 1454v137h402v-137h-402zM51 0v1389h557v-191h-323v-397h231v-189h-231v-422h323v-190h-557z" />
    <glyph glyph-name="emacron" unicode="&#x113;" 
d="M272 860v-137h213v137c0 87.333 -34.667 131 -104 131c-72.667 0 -109 -43.667 -109 -131zM186 1229v137h402v-137h-402zM489 459h213v-137c0 -225.333 -107 -338 -321 -338c-109.333 0 -192.333 31.667 -249 95s-85 149 -85 257v489c0 108 28.333 193.667 85 257
s139.667 95.333 249 96c214.667 0 321.667 -112.667 321 -338v-281h-430v-258c0 -87.333 37.667 -131 113 -131c69.333 0 104 43.667 104 131v158z" />
    <glyph glyph-name="Ebreve" unicode="&#x114;" horiz-adv-x="651" 
d="M347 1440c-55.333 0 -101.669 17 -139.002 51s-56.666 79 -57.999 135h137c3.33301 -31.333 23 -47 59 -47s57.333 15.667 64 47h133c-0.666992 -56 -19.667 -101 -57 -135s-83.666 -51 -138.999 -51zM50.9971 0v1389h557v-191h-323v-397h231v-189h-231v-422h323v-190
h-557z" />
    <glyph glyph-name="ebreve" unicode="&#x115;" 
d="M272 860v-137h213v137c0 87.333 -34.667 131 -104 131c-72.667 0 -109 -43.667 -109 -131zM388 1354c36 0 56.998 15.667 62.998 47h133c-1.33301 -56 -20.666 -101 -57.999 -135c-37.333 -34.667 -83.333 -52 -138 -52c-55.333 0 -101.666 17.333 -138.999 52
s-57 79.667 -59 135h138c4 -31.333 24 -47 60 -47zM488.998 459h213v-137c0 -225.333 -107 -338 -321 -338c-109.333 0 -192.333 31.667 -249 95s-85 149 -85 257v489c0 108 28.333 193.667 85 257s139.667 95.333 249 96c214.667 0 321.667 -112.667 321 -338v-281h-430
v-258c0 -87.333 37.667 -131 113 -131c69.333 0 104 43.667 104 131v158z" />
    <glyph glyph-name="Edotaccent" unicode="&#x116;" horiz-adv-x="651" 
d="M236 1438v176h225v-176h-225zM51 0v1389h557v-191h-323v-397h231v-189h-231v-422h323v-190h-557z" />
    <glyph glyph-name="edotaccent" unicode="&#x117;" 
d="M276 1212v177h226v-177h-226zM272 860v-137h213v137c0 87.333 -34.667 131 -104 131c-72.667 0 -109 -43.667 -109 -131zM489 459h213v-137c0 -225.333 -107 -338 -321 -338c-109.333 0 -192.333 31.667 -249 95s-85 149 -85 257v489c0 108 28.333 193.667 85 257
s139.667 95.333 249 96c214.667 0 321.667 -112.667 321 -338v-281h-430v-258c0 -87.333 37.667 -131 113 -131c69.333 0 104 43.667 104 131v158z" />
    <glyph glyph-name="Eogonek" unicode="&#x118;" horiz-adv-x="651" 
d="M51 0l0.000976562 1389h557v-191h-323v-397h231v-189h-231v-422h323v-190h-47c-23.333 -20.667 -35 -37 -35 -49s9 -18.333 27 -19h8v-116h-82c-94 0 -141 28 -141 84c0 26.667 12.667 49.334 38 68.001s44.666 29.334 57.999 32.001h-383z" />
    <glyph glyph-name="eogonek" unicode="&#x119;" 
d="M272 860v-137h213v137c0 87.333 -34.667 131 -104 131c-72.667 0 -109 -43.667 -109 -131zM489 459h212.999v-137c0 -116 -27.667 -202 -83 -258s-82.666 -92.333 -81.999 -109c0 -15.333 9.33301 -23 28 -23h8v-116h-81c-94 0 -141.333 26 -142 78
c0 40.667 30.667 72 92 94c-24.667 -2.66699 -45 -4 -61 -4c-109.333 0 -192.333 31.667 -249 95s-85 149 -85 257v489c0 108 28.333 193.667 85 257s139.667 95.333 249 96c214.667 0 321.667 -112.667 321 -338v-281h-430v-258c0 -87.333 37.667 -131 113 -131
c69.333 0 104 43.667 104 131v158z" />
    <glyph glyph-name="Ecaron" unicode="&#x11a;" horiz-adv-x="651" 
d="M344 1599l201 60v-113l-148 -108h-102l-148 108v113zM51 0v1389h557v-191h-323v-397h231v-189h-231v-422h323v-190h-557z" />
    <glyph glyph-name="ecaron" unicode="&#x11b;" 
d="M272 860v-137h213v137c0 87.333 -34.667 131 -104 131c-72.667 0 -109 -43.667 -109 -131zM385 1374l201 60v-113l-148 -109h-102l-148 109v113zM489 459h213v-137c0 -225.333 -107 -338 -321 -338c-109.333 0 -192.333 31.667 -249 95s-85 149 -85 257v489
c0 108 28.333 193.667 85 257s139.667 95.333 249 96c214.667 0 321.667 -112.667 321 -338v-281h-430v-258c0 -87.333 37.667 -131 113 -131c69.333 0 104 43.667 104 131v158z" />
    <glyph glyph-name="Gcircumflex" unicode="&#x11c;" horiz-adv-x="786" 
d="M401 1499l-200 -59v112l147 109h103l147 -109v-112zM403 557v184.001h332v-741h-168v152c-32.667 -112 -107 -168 -223 -168c-96.667 0 -169.667 34 -219 102s-74 158.667 -74 272v672c0 114.667 29 206 87 274s146.667 101.667 266 101
c119.333 0 204.333 -30.333 255 -91s76 -146.334 76 -257.001v-123h-213v141c0 90 -38.667 135 -116 135c-80.667 0 -121 -47.667 -121 -143v-745c0 -95.333 38 -143.333 114 -144c76.667 0 115 44.333 115 133v246h-111z" />
    <glyph glyph-name="gcircumflex" unicode="&#x11d;" 
d="M387 1274l-201 -60v113l148 109h102l148 -109v-113zM272 874l-0.000976562 -393c0 -38 7.33301 -67 22 -87s40.334 -29.667 77.001 -29c69.333 0 104 38.667 104 116v393c0.666992 79.333 -33 119 -101 119s-102 -39.667 -102 -119zM474.999 1161h223.001v-1014
c0 -232 -109.667 -348 -329 -348c-110.667 0 -192.334 25.667 -245.001 77s-79 119.333 -79 204v43h207v-29c0 -72.667 37.667 -108.667 113 -108c74 0 110.667 42.333 110 127v202h-4c-38 -88.667 -103 -133 -195 -133c-152.667 0 -229 97 -229 291v412
c0 195.333 73 293 219 293c98 0 166.333 -45.333 205 -136h4v119z" />
    <glyph glyph-name="Gbreve" unicode="&#x11e;" horiz-adv-x="786" 
d="M400 1440c-56 0 -102.334 17 -139.001 51c-37.333 34 -56.666 79 -57.999 135h137c4 -31.333 24 -47 60 -47s57 15.667 63 47h133c-1.33301 -56 -20.333 -101 -57 -135s-83 -51 -139 -51zM402.999 557v184.001h332v-741h-168v152c-32.667 -112 -107 -168 -223 -168
c-96.667 0 -169.667 34 -219 102s-74 158.667 -74 272v672c0 114.667 29 206 87 274s146.667 101.667 266 101c119.333 0 204.333 -30.333 255 -91s76 -146.334 76 -257.001v-123h-213v141c0 90 -38.667 135 -116 135c-80.667 0 -121 -47.667 -121 -143v-745
c0 -95.333 38 -143.333 114 -144c76.667 0 115 44.333 115 133v246h-111z" />
    <glyph glyph-name="gbreve" unicode="&#x11f;" 
d="M386 1354c36 0 56.998 15.667 62.998 47h133c-1.33301 -56 -20.666 -101 -57.999 -135c-37.333 -34.667 -83.333 -52 -138 -52c-55.333 0 -101.666 17.333 -138.999 52s-57 79.667 -59 135h138c4 -31.333 24 -47 60 -47zM271.998 874l-0.000976562 -393
c0 -38 7.33301 -67 22 -87s40.334 -29.667 77.001 -29c65.333 0 100 33.333 104 100v409c0.666992 79.333 -33 119 -101 119s-102 -39.667 -102 -119zM474.997 1161h223.001v-1014c0 -232 -109.667 -348 -329 -348c-110.667 0 -192.334 25.667 -245.001 77
s-79 119.333 -79 204v43h207v-29c0 -72.667 37.667 -108.667 113 -108c74 0 110.667 42.333 110 127v202h-4c-38 -88.667 -103 -133 -195 -133c-152.667 0 -229 97 -229 291v412c0 195.333 73 293 219 293c98 0 166.333 -45.333 205 -136h4v119z" />
    <glyph glyph-name="Gdotaccent" unicode="&#x120;" horiz-adv-x="786" 
d="M289 1438v176h225v-176h-225zM403 557v184.001h332v-741h-168v152c-32.667 -112 -107 -168 -223 -168c-96.667 0 -169.667 34 -219 102s-74 158.667 -74 272v672c0 114.667 29 206 87 274s146.667 101.667 266 101c119.333 0 204.333 -30.333 255 -91
s76 -146.334 76 -257.001v-123h-213v141c0 90 -38.667 135 -116 135c-80.667 0 -121 -47.667 -121 -143v-745c0 -95.333 38 -143.333 114 -144c76.667 0 115 44.333 115 133v246h-111z" />
    <glyph glyph-name="gdotaccent" unicode="&#x121;" 
d="M274 1212v177h226v-177h-226zM272 874l-0.000976562 -393c0 -38 7.33301 -67 22 -87s40.334 -29.667 77.001 -29c65.333 0 100 33.333 104 100v424c-4.66699 69.333 -39.667 104 -105 104s-98 -39.667 -98 -119zM474.999 1161h223.001v-1014
c0 -232 -109.667 -348 -329 -348c-110.667 0 -192.334 25.667 -245.001 77s-79 119.333 -79 204v43h207v-29c0 -72.667 37.667 -108.667 113 -108c74 0 110.667 42.333 110 127v202h-4c-38 -88.667 -103 -133 -195 -133c-152.667 0 -229 97 -229 291v412
c0 195.333 73 293 219 293c98 0 166.333 -45.333 205 -136h4v119z" />
    <glyph glyph-name="Gcommaaccent" unicode="&#x122;" horiz-adv-x="786" 
d="M504 -43v-18l-64 -123h-139l12 141h191zM403 557v184.001h332v-741h-168v152c-32.667 -112 -107 -168 -223 -168c-96.667 0 -169.667 34 -219 102s-74 158.667 -74 272v672c0 114.667 29 206 87 274s146.667 101.667 266 101c119.333 0 204.333 -30.333 255 -91
s76 -146.334 76 -257.001v-123h-213v141c0 90 -38.667 135 -116 135c-80.667 0 -121 -47.667 -121 -143v-745c0 -95.333 38 -143.333 114 -144c76.667 0 115 44.333 115 133v246h-111z" />
    <glyph glyph-name="gcommaaccent" unicode="&#x123;" 
d="M285 1212v19l63 123h139l-12 -142h-190zM272 874l-0.000976562 -393c0 -38 7.33301 -67 22 -87s40.334 -29.667 77.001 -29c69.333 0 104 38.667 104 116v408c-4.66699 69.333 -39.667 104 -105 104s-98 -39.667 -98 -119zM474.999 1161h223.001v-1014
c0 -232 -109.667 -348 -329 -348c-110.667 0 -192.334 25.667 -245.001 77s-79 119.333 -79 204v43h207v-29c0 -72.667 37.667 -108.667 113 -108c74 0 110.667 42.333 110 127v202h-4c-38 -88.667 -103 -133 -195 -133c-152.667 0 -229 97 -229 291v412
c0 195.333 73 293 219 293c98 0 166.333 -45.333 205 -136h4v119z" />
    <glyph glyph-name="Hcircumflex" unicode="&#x124;" horiz-adv-x="796" 
d="M399 1499l-200 -59v112l147 109h103l147 -109v-112zM510 0v612h-225v-612h-234v1389h234v-588h225v588h235v-1389h-235z" />
    <glyph glyph-name="hcircumflex" unicode="&#x125;" 
d="M379 1499l-201 -59v112l148 109h102l147 -109v-112zM477 0l-0.000976562 874c0 79.333 -32.667 119 -98 119s-99.666 -34.667 -102.999 -104v-889h-225v1389h225v-347h5c38 90 105.333 135.333 202 136c146 0 219 -97.667 219 -293v-885h-225z" />
    <glyph glyph-name="Hbar" unicode="&#x126;" horiz-adv-x="796" 
d="M285 1010v-209h225v209h-225zM-10 1010v131h61v248h234v-248h225v248h235v-248h62v-131h-62v-1010h-235v612h-225v-612h-234v1010h-61z" />
    <glyph glyph-name="hbar" unicode="&#x127;" 
d="M51 0l0.000976562 1217h-57v90h57v82h225v-82h166v-90h-166v-175h5c38 90 105.333 135.333 202 136c146 0 219 -97.667 219 -293v-885h-225v874c0 79.333 -33.333 119 -100 119s-100.334 -39.667 -101.001 -119v-874h-225z" />
    <glyph glyph-name="Itilde" unicode="&#x128;" horiz-adv-x="337" 
d="M72 1446h-114.999c5.33301 116 53 174 143 174c22 0 48.667 -5.66699 80 -17s51.333 -17.333 60 -18c19.333 0 28.666 10.333 27.999 31h115c-5.33301 -116 -53 -174 -143 -174c-22 0 -48.667 5.66699 -80 17s-51.333 17.333 -60 18c-18.667 0 -28 -10.333 -28 -31z
M51.001 0v1389h234v-1389h-234z" />
    <glyph glyph-name="itilde" unicode="&#x129;" horiz-adv-x="327" 
d="M51 0v1161h225v-1161h-225zM76 1219h-115c5.33301 116 50.333 174 135 174c23.333 0.666992 48.666 -5 75.999 -17s44.333 -18 51 -18c19.333 0 29 10.333 29 31h115c-5.33301 -116 -49 -174.333 -131 -175c-26 0 -52.667 6 -80 18s-44.666 17.667 -51.999 17
c-18.667 0.666992 -28 -9.33301 -28 -30z" />
    <glyph glyph-name="Imacron" unicode="&#x12a;" horiz-adv-x="337" 
d="M8 1454v137h320v-137h-320zM51 0v1389h234v-1389h-234z" />
    <glyph glyph-name="imacron" unicode="&#x12b;" horiz-adv-x="327" 
d="M51 0v1161h225v-1161h-225zM4 1229v137h320v-137h-320z" />
    <glyph glyph-name="Ibreve" unicode="&#x12c;" horiz-adv-x="337" 
d="M171 1442c-55.333 0 -101.668 17 -139.001 51s-57 79 -59 135h138c4 -31.333 23.667 -47 59 -47s56.333 15.667 63 47h134c-0.666992 -56 -19.667 -101 -57 -135s-83.666 -51 -138.999 -51zM50.998 0v1389h234v-1389h-234z" />
    <glyph glyph-name="ibreve" unicode="&#x12d;" horiz-adv-x="327" 
d="M340 1401c0 -57.333 -16 -102.667 -48 -136c-32 -34 -74.333 -51 -127 -51s-95.334 16.667 -128.001 50s-49 79 -49 137h133c2.66699 -31.333 17.334 -47 44.001 -47s42 15.667 46 47h129zM51 -0.000976562v1161h225v-1161h-225z" />
    <glyph glyph-name="Iogonek" unicode="&#x12e;" horiz-adv-x="337" 
d="M51 0v1389h234v-1389c-23.333 -20.667 -35 -37 -35 -49s8.66699 -18.333 26 -19h9v-116h-82c-94 0 -141.333 28 -142 84c0 26.667 12.667 49.334 38 68.001s45 29.334 59 32.001h-107z" />
    <glyph glyph-name="iogonek" unicode="&#x12f;" horiz-adv-x="327" 
d="M51 1212v177h225v-177h-225zM51 0v1161h225v-1161c-22.667 -20.667 -34 -37 -34 -49s8.66699 -18.333 26 -19h8v-116h-81c-94 0 -141.333 28 -142 84c0 26.667 12.667 49.334 38 68.001s45 29.334 59 32.001h-99z" />
    <glyph glyph-name="Idotaccent" unicode="&#x130;" horiz-adv-x="337" 
d="M57 1438v176h226v-176h-226zM51 0v1389h234v-1389h-234z" />
    <glyph glyph-name="dotlessi" unicode="&#x131;" horiz-adv-x="327" 
d="M51 0v1161h225v-1161h-225z" />
    <glyph glyph-name="IJ" unicode="&#x132;" horiz-adv-x="1058" 
d="M776 1389l233.999 -0.00195312v-1074c0 -221.333 -107.333 -331.666 -322 -330.999c-113.333 0 -192.666 27.333 -237.999 82s-68.333 130.334 -69 227.001v276h221v-280c0 -74 29 -111 87 -111s87 37.667 87 113v1098zM50.999 -0.00195312v1389h234v-1389h-234z" />
    <glyph glyph-name="ij" unicode="&#x133;" horiz-adv-x="655" 
d="M379 1212v177h225v-177h-225zM379 1161l225 -0.000976562v-1147c0 -73.333 -19 -124.666 -57 -153.999s-105 -44 -201 -44h-29v153h15c31.333 0 47 16.333 47 49v1143zM51 1212v177h225v-177h-225zM51 -0.000976562v1161h225v-1161h-225z" />
    <glyph glyph-name="Jcircumflex" unicode="&#x134;" horiz-adv-x="720" 
d="M559 1499l-201 -59v112l148 109h102l148 -109v-112zM438 1389l233.999 -0.00195312v-1074c0 -221.333 -107.333 -331.666 -322 -330.999c-113.333 0 -192.666 27.333 -237.999 82s-68.333 130.334 -69 227.001v276h221v-280c0 -74 29 -111 87 -111s87 37.667 87 113v1098
z" />
    <glyph glyph-name="jcircumflex" unicode="&#x135;" horiz-adv-x="327" 
d="M51 1161l225 -0.000976562v-1147c0 -73.333 -19 -124.666 -57 -153.999s-105 -44 -201 -44h-28v153h14c31.333 0 47 16.333 47 49v1143zM166 1274l-170 -60v113l117 109h102l117 -109v-113z" />
    <glyph glyph-name="Kcommaaccent" unicode="&#x136;" horiz-adv-x="780" 
d="M489 -43v-18l-63 -123h-139l12 141h190zM285 0h-234v1389h234v-611l254 611h229l-270 -625l276 -764h-246l-243 676v-676z" />
    <glyph glyph-name="kcommaaccent" unicode="&#x137;" horiz-adv-x="716" 
d="M463 -43v-18l-64 -123h-139l12 141h191zM276 0h-225v1389h225v-727l207 499h222l-226 -516l236 -645h-238l-201 559v-559z" />
    <glyph glyph-name="Lacute" unicode="&#x139;" horiz-adv-x="587" 
d="M385 1649v-162l-367 -47v131zM51 0v1389h234v-1199h278v-190h-512z" />
    <glyph glyph-name="lacute" unicode="&#x13a;" horiz-adv-x="327" 
d="M336 1649v-162l-305 -47v131zM51 0v1389h225v-1389h-225z" />
    <glyph glyph-name="Lcommaaccent" unicode="&#x13b;" horiz-adv-x="587" 
d="M399 -43v-18l-63 -123h-139l12 141h190zM51 0v1389h234v-1199h278v-190h-512z" />
    <glyph glyph-name="lcommaaccent" unicode="&#x13c;" horiz-adv-x="327" 
d="M268 -43v-18l-63 -123h-139l12 141h190zM51 0v1389h225v-1389h-225z" />
    <glyph glyph-name="Lcaron" unicode="&#x13d;" horiz-adv-x="587" 
d="M518 1389v-19l-59 -272h-101v291h160zM51 0v1389h234v-1199h278v-190h-512z" />
    <glyph glyph-name="lcaron" unicode="&#x13e;" horiz-adv-x="327" 
d="M485 1389v-19l-51 -172h-108v191h159zM51 0v1389h225v-1389h-225z" />
    <glyph glyph-name="Ldot" unicode="&#x13f;" horiz-adv-x="587" 
d="M377 594v170h170v-170h-170zM51 0v1389h234v-1199h278v-190h-512z" />
    <glyph glyph-name="ldot" unicode="&#x140;" horiz-adv-x="497" 
d="M328 614v170h170v-170h-170zM51 0v1389h225v-1389h-225z" />
    <glyph glyph-name="Lslash" unicode="&#x141;" horiz-adv-x="618" 
d="M82 1389h233v-617l191 90v-168l-191 -90v-414h279v-190h-512v496l-59 -27v168l59 27v725z" />
    <glyph glyph-name="lslash" unicode="&#x142;" horiz-adv-x="364" 
d="M70 1389h225v-408l61 53v-188l-61 -53v-793h-225v598l-56 -47v188l56 47v603z" />
    <glyph glyph-name="Nacute" unicode="&#x143;" horiz-adv-x="778" 
d="M602 1649v-162l-366 -47v131zM248 0h-197v1389h230l251 -797v797h195v-1389h-205l-274 872v-872z" />
    <glyph glyph-name="nacute" unicode="&#x144;" 
d="M573 1423v-161l-366 -48v132zM477 0l0.000976562 874c0 79.333 -33.333 119 -100 119s-100.334 -39.667 -101.001 -119v-874h-225v1161h225v-119h5c38 90 105.333 135.333 202 136c146 0 219 -97.667 219 -293v-885h-225z" />
    <glyph glyph-name="Ncommaaccent" unicode="&#x145;" horiz-adv-x="778" 
d="M473 -43v-18l-63 -123h-140l13 141h190zM248 0h-197v1389h230l251 -797v797h195v-1389h-205l-274 872v-872z" />
    <glyph glyph-name="ncommaaccent" unicode="&#x146;" 
d="M465 -43v-18l-64 -123h-139l12 141h191zM477 0l-0.000976562 874c0 79.333 -32.667 119 -98 119s-99.666 -34.667 -102.999 -104v-889h-225v1161h225v-119h5c38 90 105.333 135.333 202 136c146 0 219 -97.667 219 -293v-885h-225z" />
    <glyph glyph-name="Ncaron" unicode="&#x147;" horiz-adv-x="778" 
d="M410 1599l200 60v-113l-147 -108h-103l-147 108v113zM248 0h-197v1389h230l251 -797v797h195v-1389h-205l-274 872v-872z" />
    <glyph glyph-name="ncaron" unicode="&#x148;" 
d="M381 1374l201 60v-113l-148 -109h-102l-148 109v113zM477 0l-0.000976562 874c0 79.333 -32.667 119 -98 119s-99.666 -34.667 -102.999 -104v-889h-225v1161h225v-119h5c38 90 105.333 135.333 202 136c146 0 219 -97.667 219 -293v-885h-225z" />
    <glyph glyph-name="Eng" unicode="&#x14a;" horiz-adv-x="780" 
d="M455 -31c31.333 0 47 16.332 47 48.999v48l-254 806v-872h-197v1389h230l251 -797v797h195v-1375c0 -73.333 -19 -124.666 -57 -153.999s-105 -44 -201 -44h-70v153h56z" />
    <glyph glyph-name="eng" unicode="&#x14b;" 
d="M477 874c0 79.333 -33.332 118.999 -99.999 118.999s-100.334 -39.667 -101.001 -119v-874h-225v1161h225v-119h5c38 90 105.333 135.333 202 136c146 0 219 -97.667 219 -293v-871c0 -73.333 -19 -124.666 -57 -153.999s-105 -44 -201 -44h-28v153h14
c31.333 0 47 16.333 47 49v856z" />
    <glyph glyph-name="Omacron" unicode="&#x14c;" horiz-adv-x="808" 
d="M203 1454v137h401v-137h-401zM758 358c0 -113.333 -29.333 -204.001 -88 -272.001s-147.334 -102 -266.001 -102c-118 0 -206.333 34 -265 102s-88 158.667 -88 272v672c0 114.667 29.333 206 88 274s147 101.667 265 101c118.667 0 207.334 -33.667 266.001 -101
s88 -158.666 88 -273.999v-672zM404 177.999c80 0 120 48 120 144v745c0 95.333 -40 143 -120 143s-119.667 -47.667 -119 -143v-745c-0.666992 -96 39 -144 119 -144z" />
    <glyph glyph-name="omacron" unicode="&#x14d;" horiz-adv-x="759" 
d="M178 1229v137h402v-137h-402zM272 301c0 -87.333 36 -131 108 -131s107.667 43.667 107 131v559c0.666992 87.333 -35 131 -107 131s-108 -43.667 -108 -131v-559zM380 -16c-108.667 0 -191.334 31.667 -248.001 95s-85 149 -85 257v489c0 108 28.333 193.667 85 257
c56.667 64 139.334 96 248.001 96s191.334 -32 248.001 -96s85 -149.667 85 -257v-489c0 -108 -28.333 -193.667 -85 -257s-139.334 -95 -248.001 -95z" />
    <glyph glyph-name="Obreve" unicode="&#x14e;" horiz-adv-x="808" 
d="M407 1442c-55.333 0 -102.001 17 -140.001 51c-37.333 34 -56.666 79 -57.999 135h137c4 -31.333 24 -47 60 -47s57 15.667 63 47h133c-1.33301 -56 -20.333 -101 -57 -135s-82.667 -51 -138 -51zM757.999 358c0 -113.333 -29.333 -204.001 -88 -272.001
s-147.334 -102 -266.001 -102c-118 0 -206.333 34 -265 102s-88 158.667 -88 272v672c0 114.667 29.333 206 88 274s147 101.667 265 101c118.667 0 207.334 -33.667 266.001 -101s88 -158.666 88 -273.999v-672zM403.999 177.999c80 0 120 48 120 144v745
c0 95.333 -40 143 -120 143s-119.667 -47.667 -119 -143v-745c-0.666992 -96 39 -144 119 -144z" />
    <glyph glyph-name="obreve" unicode="&#x14f;" horiz-adv-x="759" 
d="M381 1354c35.333 0 56.3311 15.667 62.998 47h134c-1.33301 -56 -20.666 -101 -57.999 -135c-37.333 -34.667 -83.333 -52 -138 -52c-55.333 0 -101.666 17.333 -138.999 52s-57 79.667 -59 135h138c4 -31.333 23.667 -47 59 -47zM271.998 301
c0 -87.333 36 -131 108 -131s107.667 43.667 107 131v559c0.666992 87.333 -35 131 -107 131s-108 -43.667 -108 -131v-559zM379.998 -16c-108.667 0 -191.334 31.667 -248.001 95s-85 149 -85 257v489c0 108 28.333 193.667 85 257c56.667 64 139.334 96 248.001 96
s191.334 -32 248.001 -96s85 -149.667 85 -257v-489c0 -108 -28.333 -193.667 -85 -257s-139.334 -95 -248.001 -95z" />
    <glyph glyph-name="Ohungarumlaut" unicode="&#x150;" horiz-adv-x="808" 
d="M485 1663h185l-95 -219h-129zM262 1663h184l-94 -219h-129zM758 358c0 -113.333 -29.333 -204.001 -88 -272.001s-147.334 -102 -266.001 -102c-118 0 -206.333 34 -265 102s-88 158.667 -88 272v672c0 114.667 29.333 206 88 274s147 101.667 265 101
c118.667 0 207.334 -33.667 266.001 -101s88 -158.666 88 -273.999v-672zM404 177.999c80 0 120 48 120 144v745c0 95.333 -40 143 -120 143s-119.667 -47.667 -119 -143v-745c-0.666992 -96 39 -144 119 -144z" />
    <glyph glyph-name="ohungarumlaut" unicode="&#x151;" horiz-adv-x="759" 
d="M461 1438h184l-94 -219h-129zM238 1438h184l-94 -219h-129zM272 301c0 -87.333 36 -131 108 -131s107.667 43.667 107 131v559c0.666992 87.333 -35 131 -107 131s-108 -43.667 -108 -131v-559zM380 -16c-108.667 0 -191.334 31.667 -248.001 95s-85 149 -85 257v489
c0 108 28.333 193.667 85 257c56.667 64 139.334 96 248.001 96s191.334 -32 248.001 -96s85 -149.667 85 -257v-489c0 -108 -28.333 -193.667 -85 -257s-139.334 -95 -248.001 -95z" />
    <glyph glyph-name="OE" unicode="&#x152;" horiz-adv-x="1124" 
d="M404 178c80 0 120 48 120 144v745c0 95.333 -40 143 -120 143s-119.667 -47.667 -119 -143v-745c-0.666992 -96 39 -144 119 -144zM569 0l-0.000976562 88c-39.333 -69.333 -108.333 -104 -207 -104s-175 34.333 -229 103c-54.667 68.667 -82 159 -82 271v672
c0 113.333 28 204 84 272c55.333 68 132.333 102.333 231 103c98.667 0 166.334 -35 203.001 -105v89h512v-191h-323v-397h231v-189h-231v-422h323v-190h-512z" />
    <glyph glyph-name="oe" unicode="&#x153;" horiz-adv-x="1189" 
d="M713 860l0.000976562 -137h213v137c0 87.333 -35.333 131 -106 131s-106.334 -43.667 -107.001 -131zM272.001 301c0 -87.333 36 -131 108 -131s107.667 43.667 107 131v559c0.666992 87.333 -35 131 -107 131s-108 -43.667 -108 -131v-559zM371.001 -16
c-105.333 0 -185.667 31.667 -241 95s-83 149 -83 257v489c0 108 27.667 193.667 83 257c55.333 64 135.666 96 240.999 96s183.666 -37.667 234.999 -113c50.667 75.333 125 113 223 113c208.667 0 313.334 -112.667 314.001 -338v-281h-430v-258
c0 -87.333 37.333 -131 112 -131c69.333 0 104.333 43.667 105 131v158h213v-137c0 -225.333 -104.667 -338 -314 -338c-98 0 -172.333 37.333 -223 112c-51.333 -74.667 -129.666 -112 -234.999 -112z" />
    <glyph glyph-name="Racute" unicode="&#x154;" horiz-adv-x="757" 
d="M561 1649v-162l-366 -47v131zM362 1198h-77v-432h77c76.667 0 115 38.333 115 115v204c0 75.333 -38.333 113 -115 113zM285 0l-234 -0.000976562v1389h340c113.333 0 195.333 -26.667 246 -80s76 -130.666 76 -231.999v-178c0 -150 -62.333 -239.333 -187 -268l224 -631
h-246l-219 637v-637z" />
    <glyph glyph-name="racute" unicode="&#x155;" horiz-adv-x="483" 
d="M469 1423v-161l-367 -48v132zM457 905h-64.001c-76.667 0 -115.667 -35.333 -117 -106v-799h-225v1161h225v-119h5c28.667 82 87.334 124.333 176.001 127v-264z" />
    <glyph glyph-name="Rcommaaccent" unicode="&#x156;" horiz-adv-x="757" 
d="M485 -43v-18l-63 -123h-139l12 141h190zM362 1198h-77v-432h77c76.667 0 115 38.333 115 115v204c0 75.333 -38.333 113 -115 113zM285 0l-234 -0.000976562v1389h340c113.333 0 195.333 -26.667 246 -80s76 -130.666 76 -231.999v-178
c0 -150 -62.333 -239.333 -187 -268l224 -631h-246l-219 637v-637z" />
    <glyph glyph-name="rcommaaccent" unicode="&#x157;" horiz-adv-x="483" 
d="M250 -43v-18l-64 -123h-139l12 141h191zM457 905h-64.001c-78 0 -117 -39 -117 -117v-788h-225v1161h225v-119h5c28.667 82 87.334 124.333 176.001 127v-264z" />
    <glyph glyph-name="Rcaron" unicode="&#x158;" horiz-adv-x="757" 
d="M369 1599l200 60v-113l-147 -108h-103l-147 108v113zM362 1198h-77v-432h77c76.667 0 115 38.333 115 115v204c0 75.333 -38.333 113 -115 113zM285 0l-234 -0.000976562v1389h340c113.333 0 195.333 -26.667 246 -80s76 -130.666 76 -231.999v-178
c0 -150 -62.333 -239.333 -187 -268l224 -631h-246l-219 637v-637z" />
    <glyph glyph-name="rcaron" unicode="&#x159;" horiz-adv-x="483" 
d="M283 1374l200 60v-113l-147 -109h-103l-147 109v113zM457 905h-64.001c-78 0 -117 -39 -117 -117v-788h-225v1161h225v-119h5c28.667 82 87.334 124.333 176.001 127v-264z" />
    <glyph glyph-name="Sacute" unicode="&#x15a;" 
d="M563 1649v-162l-366 -47v131zM709 309c0 -99.333 -27.998 -178.332 -83.998 -236.999s-141 -88 -255 -88s-197.667 28.333 -251 85s-80 133.334 -80 230.001v186h217v-190c0 -82 38.333 -123 115 -123c70.667 0 106 41 106 123v53c0.666992 37.333 -7 70.666 -23 99.999
s-43 61.666 -81 96.999l-137 137c-72.667 70.667 -123.334 131.334 -152.001 182.001s-43 113.667 -43 189v47c0 91.333 27.333 165 82 221s137.667 84 249 84c214.667 0 322 -105 322 -315v-113h-213v121c-0.666992 79.333 -37.667 119 -111 119s-110 -38.333 -110 -115
v-29c0 -35.333 8.66699 -66 26 -92s45.666 -58 84.999 -96l149 -148c69.333 -70.667 118 -130.334 146 -179.001s42.333 -109 43 -181v-68z" />
    <glyph glyph-name="sacute" unicode="&#x15b;" horiz-adv-x="702" 
d="M543 1423v-161l-367 -48v132zM664 330l-0.000976562 -38.9971c0 -96.667 -26 -172 -78 -226s-130 -81 -234 -81s-182 27.667 -234 83s-77.667 133.333 -77 234v121h203v-131c0 -80.667 34.333 -121 103 -121s103.334 34.667 104.001 104v33
c0 28.667 -9.33301 54.667 -28 78s-54 55.333 -106 96l-86 68c-65.333 51.333 -112 99.666 -140 144.999s-42 102 -42 170v29c0 87.333 25.667 156.666 77 207.999c52 51.333 130 77 234 77s179.333 -26.333 226 -79s69.667 -129.667 69 -231v-63h-200v74
c0 75.333 -33 112.666 -99 111.999c-64 0 -96 -30.667 -96 -92v-18c0 -27.333 8 -52 24 -74s44.333 -46.667 85 -74l82 -65c86 -68 143 -122.667 171 -164s42 -99.333 42 -174z" />
    <glyph glyph-name="Scircumflex" unicode="&#x15c;" 
d="M375 1499l-201 -59v112l148 109h102l147 -109v-112zM709 309c0 -99.333 -27.998 -178.332 -83.998 -236.999s-141 -88 -255 -88s-197.667 28.333 -251 85s-80 133.334 -80 230.001v186h217v-190c0 -82 38.333 -123 115 -123c70.667 0 106 41 106 123v53
c0.666992 37.333 -7 70.666 -23 99.999s-43 61.666 -81 96.999l-137 137c-72.667 70.667 -123.334 131.334 -152.001 182.001s-43 113.667 -43 189v47c0 91.333 27.333 165 82 221s137.667 84 249 84c214.667 0 322 -105 322 -315v-113h-213v121
c-0.666992 79.333 -37.667 119 -111 119s-110 -38.333 -110 -115v-29c0 -35.333 8.66699 -66 26 -92s45.666 -58 84.999 -96l149 -148c69.333 -70.667 118 -130.334 146 -179.001s42.333 -109 43 -181v-68z" />
    <glyph glyph-name="scircumflex" unicode="&#x15d;" horiz-adv-x="702" 
d="M354 1274l-200 -60v113l147 109h102l148 -109v-113zM664 330l-0.000976562 -38.9971c0 -96.667 -26 -172 -78 -226s-130 -81 -234 -81s-182 27.667 -234 83s-77.667 133.333 -77 234v121h203v-131c0 -80.667 34.333 -121 103 -121s103.334 34.667 104.001 104v33
c0 28.667 -9.33301 54.667 -28 78s-54 55.333 -106 96l-86 68c-65.333 51.333 -112 99.666 -140 144.999s-42 102 -42 170v29c0 87.333 25.667 156.666 77 207.999c52 51.333 130 77 234 77s179.333 -26.333 226 -79s69.667 -129.667 69 -231v-63h-200v74
c0 75.333 -33 112.666 -99 111.999c-64 0 -96 -30.667 -96 -92v-18c0 -27.333 8 -52 24 -74s44.333 -46.667 85 -74l82 -65c86 -68 143 -122.667 171 -164s42 -99.333 42 -174z" />
    <glyph glyph-name="Scedilla" unicode="&#x15e;" 
d="M276 -207l0.000976562 66c50.667 1.33301 76 12 76 32c0 15.333 -11 23 -33 23h-10v74c-180 18 -270 121.667 -270 311v186h217v-190c0 -82 38.333 -123 115 -123c70.667 0 106 41 106 123v53c0.666992 37.333 -7 70.666 -23 99.999s-43 61.666 -81 96.999l-137 137
c-72.667 70.667 -123.334 131.334 -152.001 182.001s-43 113.667 -43 189v47c0 91.333 27.333 165 82 221s137.667 84 249 84c214.667 0 322 -105 322 -315v-113h-213v121c-0.666992 79.333 -37.667 119 -111 119s-110 -38.333 -110 -115v-29c0 -35.333 8.66699 -66 26 -92
s45.666 -58 84.999 -96l149 -148c69.333 -70.667 118 -130.334 146 -179.001s42.333 -109 43 -181v-68c0 -95.333 -25.667 -171.666 -77 -228.999s-129.666 -88.666 -234.999 -93.999v-21c57.333 -8 86 -32.667 86 -74c0 -65.333 -69 -98 -207 -98z" />
    <glyph glyph-name="scedilla" unicode="&#x15f;" horiz-adv-x="702" 
d="M256 -207l-0.000976562 66.0029c50.667 1.33301 76 12 76 32c0 15.333 -11 23 -33 23h-10v74c-165.333 20.667 -248 125 -248 313v121h203v-131c0 -80.667 34.333 -121 103 -121s103.334 34.667 104.001 104v33c0 28.667 -9.33301 54.667 -28 78s-54 55.333 -106 96
l-86 68c-65.333 51.333 -112 99.666 -140 144.999s-42 102 -42 170v29c0 87.333 25.667 156.666 77 207.999c52 51.333 130 77 234 77s179.333 -26.333 226 -79s69.667 -129.667 69 -231v-63h-200v74c0 75.333 -33 112.666 -99 111.999c-64 0 -96 -30.667 -96 -92v-18
c0 -27.333 8 -52 24 -74s44.333 -46.667 85 -74l82 -65c86 -68 143 -122.667 171 -164s42 -99.333 42 -174v-39c0 -91.333 -24 -164 -72 -218s-119.667 -83 -215 -87v-21c57.333 -8 86 -32.667 86 -74c0 -65.333 -69 -98 -207 -98z" />
    <glyph glyph-name="Scaron" unicode="&#x160;" 
d="M371 1599l200 60v-113l-147 -108h-102l-148 108v113zM709 309c0 -99.333 -27.998 -178.332 -83.998 -236.999s-141 -88 -255 -88s-197.667 28.333 -251 85s-80 133.334 -80 230.001v186h217v-190c0 -82 38.333 -123 115 -123c70.667 0 106 41 106 123v53
c0.666992 37.333 -7 70.666 -23 99.999s-43 61.666 -81 96.999l-137 137c-72.667 70.667 -123.334 131.334 -152.001 182.001s-43 113.667 -43 189v47c0 91.333 27.333 165 82 221s137.667 84 249 84c214.667 0 322 -105 322 -315v-113h-213v121
c-0.666992 79.333 -37.667 119 -111 119s-110 -38.333 -110 -115v-29c0 -35.333 8.66699 -66 26 -92s45.666 -58 84.999 -96l149 -148c69.333 -70.667 118 -130.334 146 -179.001s42.333 -109 43 -181v-68z" />
    <glyph glyph-name="scaron" unicode="&#x161;" horiz-adv-x="702" 
d="M350 1374l201 60v-113l-148 -109h-102l-147 109v113zM664 330l-0.000976562 -38.9971c0 -96.667 -26 -172 -78 -226s-130 -81 -234 -81s-182 27.667 -234 83s-77.667 133.333 -77 234v121h203v-131c0 -80.667 34.333 -121 103 -121s103.334 34.667 104.001 104v33
c0 28.667 -9.33301 54.667 -28 78s-54 55.333 -106 96l-86 68c-65.333 51.333 -112 99.666 -140 144.999s-42 102 -42 170v29c0 87.333 25.667 156.666 77 207.999c52 51.333 130 77 234 77s179.333 -26.333 226 -79s69.667 -129.667 69 -231v-63h-200v74
c0 75.333 -33 112.666 -99 111.999c-64 0 -96 -30.667 -96 -92v-18c0 -27.333 8 -52 24 -74s44.333 -46.667 85 -74l82 -65c86 -68 143 -122.667 171 -164s42 -99.333 42 -174z" />
    <glyph glyph-name="Tcommaaccent" unicode="&#x162;" horiz-adv-x="671" 
d="M426 -43v-18l-64 -123h-139l13 141h190zM25 1198v191h620v-191h-192v-1198h-236v1198h-192z" />
    <glyph glyph-name="tcommaaccent" unicode="&#x163;" horiz-adv-x="503" 
d="M379 -43v-18l-64 -123h-139l12 141h191zM25 989v171.998h84v228h223v-228h141v-172h-141v-743c0 -23.333 5 -39.666 15 -48.999s28 -14.333 54 -15h72v-182h-96c-100 0 -169.667 19.333 -209 58s-59 105.334 -59 200.001v731h-84z" />
    <glyph glyph-name="Tcaron" unicode="&#x164;" horiz-adv-x="671" 
d="M332 1599l200 60v-113l-147 -108h-102l-148 108v113zM25 1198v191h620v-191h-192v-1198h-236v1198h-192z" />
    <glyph glyph-name="tcaron" unicode="&#x165;" horiz-adv-x="503" 
d="M535 1389v-19l-52 -172h-108v191h160zM25 989v171.998h84v228h223v-228h141v-172h-141v-743c0 -23.333 5 -39.666 15 -48.999s28 -14.333 54 -15h72v-182h-96c-100 0 -169.667 19.333 -209 58s-59 105.334 -59 200.001v731h-84z" />
    <glyph glyph-name="Tbar" unicode="&#x166;" horiz-adv-x="671" 
d="M25 1198v191h620v-191h-192v-289h137v-131h-137v-778h-236v778h-135v131h135v289h-192z" />
    <glyph glyph-name="tbar" unicode="&#x167;" horiz-adv-x="503" 
d="M109 1389l223 -0.00195312v-228h141v-172h-141v-125h141v-90h-141v-528c0 -23.333 5 -39.666 15 -48.999s28 -14.333 54 -15h72v-182h-96c-100 0 -169.667 19.333 -209 58s-59 105.334 -59 200.001v516h-84v90h84v125h-84v172h84v228z" />
    <glyph glyph-name="Utilde" unicode="&#x168;" horiz-adv-x="780" 
d="M293 1446h-115.001c5.33301 116 53.333 174 144 174c22.667 0 49.334 -5.66699 80.001 -17s50.334 -17.333 59.001 -18c19.333 0 28.666 10.333 27.999 31h115c-5.33301 -116 -53 -174 -143 -174c-22 0 -48.667 5.66699 -80 17s-51 17.333 -59 18
c-19.333 0 -29 -10.333 -29 -31zM513.999 1389h215v-1051c0 -236 -110 -354 -330 -354c-232 0 -348 118 -348 354v1051h234v-1074c0.666992 -91.333 39 -137 115 -137s114 45.667 114 137v1074z" />
    <glyph glyph-name="utilde" unicode="&#x169;" 
d="M276 1219h-113.998c5.33301 116 53 174 143 174c22 0.666992 48.667 -5 80 -17s51 -18 59 -18c19.333 0 29 10.333 29 31h115c-5.33301 -116 -53.333 -174.333 -144 -175c-22.667 0 -49.334 6 -80.001 18s-50.334 17.667 -59.001 17
c-19.333 0.666992 -29 -9.33301 -29 -30zM272.002 1161l-0.00195312 -874c0 -79.333 33.333 -119 100 -119s100.334 39.667 101.001 119v874h225v-1161h-225v119h-4c-39.333 -90 -107.666 -135 -204.999 -135c-144.667 0 -217 97.333 -217 292v885h225z" />
    <glyph glyph-name="Umacron" unicode="&#x16a;" horiz-adv-x="780" 
d="M195 1454v137h401v-137h-401zM514 1389h215v-1051c0 -236 -110 -354 -330 -354c-232 0 -348 118 -348 354v1051h234v-1074c0.666992 -91.333 39 -137 115 -137s114 45.667 114 137v1074z" />
    <glyph glyph-name="umacron" unicode="&#x16b;" 
d="M172 1229v137h401v-137h-401zM272 1161l-0.00195312 -874c0 -79.333 33.333 -119 100 -119s100.334 39.667 101.001 119v874h225v-1161h-225v119h-4c-39.333 -90 -107.666 -135 -204.999 -135c-144.667 0 -217 97.333 -217 292v885h225z" />
    <glyph glyph-name="Ubreve" unicode="&#x16c;" horiz-adv-x="780" 
d="M396 1440c-56 0 -102.334 17 -139.001 51c-37.333 34 -56.666 79 -57.999 135h137c4 -31.333 24 -47 60 -47s57 15.667 63 47h133c-1.33301 -56 -20.333 -101 -57 -135s-83 -51 -139 -51zM513.999 1389h215v-1051c0 -236 -110 -354 -330 -354c-232 0 -348 118 -348 354
v1051h234v-1074c0.666992 -91.333 39 -137 115 -137s114 45.667 114 137v1074z" />
    <glyph glyph-name="ubreve" unicode="&#x16d;" 
d="M372 1354c36 0 57.332 15.667 63.999 47h133c-1.33301 -56 -20.333 -101 -57 -135c-36.667 -34.667 -82.667 -52 -138 -52c-56 0 -102.667 17.333 -140 52s-56.666 79.667 -57.999 135h137c3.33301 -31.333 23 -47 59 -47zM271.999 1161l-0.00195312 -874
c0 -79.333 33.333 -119 100 -119s100.334 39.667 101.001 119v874h225v-1161h-225v119h-4c-39.333 -90 -107.666 -135 -204.999 -135c-144.667 0 -217 97.333 -217 292v885h225z" />
    <glyph glyph-name="Uring" unicode="&#x16e;" horiz-adv-x="780" 
d="M332 1548c0 -19.333 5.66797 -35.333 17.001 -48s26.666 -19 45.999 -19s34.666 6.33301 45.999 19s17.333 28.667 18 48s-5 35.333 -17 48c-12 13.333 -27.667 20 -47 20s-34.666 -6.66699 -45.999 -20s-17 -29.333 -17 -48zM238.001 1548
c0 41.333 14.999 77.333 44.999 108s67.667 46 113 46s82.333 -15 111 -45c29.333 -30 44 -66.333 44 -109s-14.667 -78.667 -44 -108c-29.333 -30 -66.666 -45 -111.999 -45c-46 0 -83.667 15 -113 45s-44 66 -44 108zM514 1389h215v-1051c0 -236 -110 -354 -330 -354
c-232 0 -348 118 -348 354v1051h234v-1074c0.666992 -91.333 39 -137 115 -137s114 45.667 114 137v1074z" />
    <glyph glyph-name="uring" unicode="&#x16f;" 
d="M311 1364c-0.666992 -19.333 5 -35.333 17 -48c12 -13.333 27.667 -20 47 -20s34.666 6.66699 45.999 20s17 29.333 17 48c0 19.333 -5.66699 35.333 -17 48c-11.333 13.333 -26.666 20 -45.999 20s-35 -6.66699 -47 -20s-17.667 -29.333 -17 -48zM217 1364
c0 41.333 14.998 77.333 44.998 108s67.667 46 113 46c44.667 0 81.667 -15 111 -45s44 -66.333 44 -109s-14.667 -78.667 -44 -108c-29.333 -30.667 -66.666 -46 -111.999 -46s-82.666 15.333 -111.999 46c-30 30.667 -45 66.667 -45 108zM271.998 1161l-0.00195312 -874
c0 -79.333 33.333 -119 100 -119s100.334 39.667 101.001 119v874h225v-1161h-225v119h-4c-39.333 -90 -107.666 -135 -204.999 -135c-144.667 0 -217 97.333 -217 292v885h225z" />
    <glyph glyph-name="Uhungarumlaut" unicode="&#x170;" horiz-adv-x="780" 
d="M477 1663h185l-95 -219h-129zM254 1663h184l-94 -219h-129zM514 1389h215v-1051c0 -236 -110 -354 -330 -354c-232 0 -348 118 -348 354v1051h234v-1074c0.666992 -91.333 39 -137 115 -137s114 45.667 114 137v1074z" />
    <glyph glyph-name="uhungarumlaut" unicode="&#x171;" 
d="M231 1438h185l-94 -219h-129zM455 1438h184l-94 -219h-129zM272 1161l-0.00195312 -874c0 -79.333 33.333 -119 100 -119s100.334 39.667 101.001 119v874h225v-1161h-225v119h-4c-39.333 -90 -107.666 -135 -204.999 -135c-144.667 0 -217 97.333 -217 292v885h225z" />
    <glyph glyph-name="Uogonek" unicode="&#x172;" horiz-adv-x="780" 
d="M514 1389l214.999 0.000976562v-1051c0 -157.333 -49.667 -262.333 -149 -315l-30 -15c-35.333 -16.667 -55.666 -28.667 -60.999 -36s-8 -14.333 -8 -21c0 -12 9 -18.333 27 -19h8v-116h-82c-94 0 -141 28 -141 84c0 35.333 24 64 72 86
c-106.667 5.33301 -185.667 38.666 -237 99.999s-77 145.333 -77 252v1051h234v-1074c0.666992 -91.333 39 -137 115 -137s114 45.667 114 137v1074z" />
    <glyph glyph-name="uogonek" unicode="&#x173;" 
d="M272 1161l0.000976562 -874.002c0 -79.333 32.667 -119 98 -119s99.666 34 102.999 102v891h225v-1161c-22.667 -20.667 -34 -37 -34 -49s8.66699 -18.333 26 -19h8v-116h-82c-94 0 -141 28 -141 84c0 26.667 12.667 49.334 38 68.001s44.666 29.334 57.999 32.001h-98
v119h-4c-39.333 -90 -107.666 -135 -204.999 -135c-144.667 0 -217 97.333 -217 292v885h225z" />
    <glyph glyph-name="Wcircumflex" unicode="&#x174;" horiz-adv-x="1114" 
d="M559 1501l-201 -59v112l148 109h102l148 -109v-112zM557 858h-2l-131 -858h-219l-187 1389h226l108 -881h2l117 881h191l129 -881h2l106 881h197l-181 -1389h-221z" />
    <glyph glyph-name="wcircumflex" unicode="&#x175;" horiz-adv-x="1003" 
d="M504 1274l-201 -60v113l148 109h102l147 -109v-113zM793 1161h200l-174 -1161h-203l-110 717l-121 -717h-201l-176 1161h228l77 -696h2l117 696h166l117 -696h2z" />
    <glyph glyph-name="Ycircumflex" unicode="&#x176;" horiz-adv-x="776" 
d="M391 1501l-201 -59v112l148 109h102l148 -109v-112zM506 0h-234v528l-260 861h244l141 -527h2l142 527h223l-258 -861v-528z" />
    <glyph glyph-name="ycircumflex" unicode="&#x177;" horiz-adv-x="692" 
d="M348 1274l-201 -60v113l148 109h102l148 -109v-113zM180 -184l-78.002 0.000976562v180h74c24.667 0 42.667 4.66699 54 14s21.333 28.666 30 57.999l8 36h-53l-211 1057h234l106 -712h2l137 712h205l-233 -1145c-15.333 -74.667 -43.666 -126.667 -84.999 -156
s-104.666 -44 -189.999 -44z" />
    <glyph glyph-name="Ydieresis" unicode="&#x178;" horiz-adv-x="776" 
d="M408 1438v176h198v-176h-198zM160 1438v176h198v-176h-198zM506 0h-234v528l-260 861h244l141 -527h2l142 527h223l-258 -861v-528z" />
    <glyph glyph-name="Zacute" unicode="&#x179;" horiz-adv-x="688" 
d="M553 1649v-162l-367 -47v131zM633 190v-190h-598v190l366 1008h-329v191h575v-191l-368 -1008h354z" />
    <glyph glyph-name="zacute" unicode="&#x17a;" horiz-adv-x="624" 
d="M518 1423v-161l-366 -48v132zM580 180v-180h-539v180l313 801h-295v180h523v-180l-314 -801h312z" />
    <glyph glyph-name="Zdotaccent" unicode="&#x17b;" horiz-adv-x="688" 
d="M252 1438v176h225v-176h-225zM633 190v-190h-598v190l366 1008h-329v191h575v-191l-368 -1008h354z" />
    <glyph glyph-name="zdotaccent" unicode="&#x17c;" horiz-adv-x="624" 
d="M215 1212v177h225v-177h-225zM580 180v-180h-539v180l313 801h-295v180h523v-180l-314 -801h312z" />
    <glyph glyph-name="Zcaron" unicode="&#x17d;" horiz-adv-x="688" 
d="M360 1599l201 60v-113l-147 -108h-103l-147 108v113zM633 190v-190h-598v190l366 1008h-329v191h575v-191l-368 -1008h354z" />
    <glyph glyph-name="zcaron" unicode="&#x17e;" horiz-adv-x="624" 
d="M324 1374l200 60v-113l-147 -109h-103l-147 109v113zM580 180v-180h-539v180l313 801h-295v180h523v-180l-314 -801h312z" />
    <glyph glyph-name="florin" unicode="&#x192;" horiz-adv-x="524" 
d="M25 723l0.000976562 172.001h114l17 301c2.66699 68 21.667 117 57 147s94.666 45.333 177.999 46h105v-172h-68c-18 -0.666992 -30 -4.33398 -36 -11.001s-9.66699 -19 -11 -37l-14 -274h129v-172h-138l-47 -907h-225l45 907h-106z" />
    <glyph glyph-name="Scommaaccent" unicode="&#x218;" 
d="M477 -43v-18l-63 -123h-140l13 141h190zM709 309c0 -99.333 -27.998 -178.332 -83.998 -236.999s-141 -88 -255 -88s-197.667 28.333 -251 85s-80 133.334 -80 230.001v186h217v-190c0 -82 38.333 -123 115 -123c70.667 0 106 41 106 123v53
c0.666992 37.333 -7 70.666 -23 99.999s-43 61.666 -81 96.999l-137 137c-72.667 70.667 -123.334 131.334 -152.001 182.001s-43 113.667 -43 189v47c0 91.333 27.333 165 82 221s137.667 84 249 84c214.667 0 322 -105 322 -315v-113h-213v121
c-0.666992 79.333 -37.667 119 -111 119s-110 -38.333 -110 -115v-29c0 -35.333 8.66699 -66 26 -92s45.666 -58 84.999 -96l149 -148c69.333 -70.667 118 -130.334 146 -179.001s42.333 -109 43 -181v-68z" />
    <glyph glyph-name="scommaaccent" unicode="&#x219;" horiz-adv-x="702" 
d="M457 -43v-18l-64 -123h-139l12 141h191zM664 330l-0.000976562 -38.9971c0 -96.667 -26 -172 -78 -226s-130 -81 -234 -81s-182 27.667 -234 83s-77.667 133.333 -77 234v121h203v-131c0 -80.667 34.333 -121 103 -121s103.334 34.667 104.001 104v33
c0 28.667 -9.33301 54.667 -28 78s-54 55.333 -106 96l-86 68c-65.333 51.333 -112 99.666 -140 144.999s-42 102 -42 170v29c0 87.333 25.667 156.666 77 207.999c52 51.333 130 77 234 77s179.333 -26.333 226 -79s69.667 -129.667 69 -231v-63h-200v74
c0 75.333 -33 112.666 -99 111.999c-64 0 -96 -30.667 -96 -92v-18c0 -27.333 8 -52 24 -74s44.333 -46.667 85 -74l82 -65c86 -68 143 -122.667 171 -164s42 -99.333 42 -174z" />
    <glyph glyph-name="uni0237" unicode="&#x237;" horiz-adv-x="327" 
d="M51 1161l225 -0.000976562v-1147c0 -73.333 -19 -124.666 -57 -153.999s-105 -44 -201 -44h-28v153h14c31.333 0 47 16.333 47 49v1143z" />
    <glyph glyph-name="circumflex" unicode="&#x2c6;" horiz-adv-x="819" 
d="M412 1274l-201 -60v113l147 109h103l147 -109v-113z" />
    <glyph glyph-name="caron" unicode="&#x2c7;" horiz-adv-x="819" 
d="M408 1374l200 60v-113l-147 -109h-103l-147 109v113z" />
    <glyph glyph-name="breve" unicode="&#x2d8;" horiz-adv-x="819" 
d="M410 1354c36 0 56.999 15.667 62.999 47h133c-1.33301 -56 -20.333 -101 -57 -135c-36.667 -34.667 -82.667 -52 -138 -52s-101.666 17.333 -138.999 52s-57 79.667 -59 135h137c4 -31.333 24 -47 60 -47z" />
    <glyph glyph-name="dotaccent" unicode="&#x2d9;" horiz-adv-x="819" 
d="M297 1212v177h225v-177h-225z" />
    <glyph glyph-name="ring" unicode="&#x2da;" horiz-adv-x="819" 
d="M344 1364c0 -19.333 5.66602 -35.333 16.999 -48c11.333 -13.333 27 -20 47 -20s35.333 6.66699 46 20c11.333 13.333 17 29.333 17 48c0 19.333 -5.66699 35.333 -17 48c-11.333 13.333 -26.666 20 -45.999 20c-18.667 0 -34 -6.66699 -46 -20s-18 -29.333 -18 -48z
M249.999 1364c0 41.333 15.002 77.333 45.002 108s67.667 46 113 46s82.666 -15 111.999 -45s43.666 -66.333 42.999 -109c0 -42.667 -14.667 -78.667 -44 -108c-28.667 -30.667 -65.667 -46 -111 -46s-83 15.333 -113 46s-45 66.667 -45 108z" />
    <glyph glyph-name="ogonek" unicode="&#x2db;" horiz-adv-x="819" 
d="M471 -49c0 -12 9 -18.333 27 -19h8v-116h-82c-94 0 -141 28 -141 84c0.666992 21.333 9 40 25 56s32 27.333 48 34l27 10h123c-23.333 -20.667 -35 -37 -35 -49z" />
    <glyph glyph-name="tilde" unicode="&#x2dc;" horiz-adv-x="819" 
d="M311 1219h-114c5.33301 116 53 174 143 174c22 0.666992 48.667 -5 80 -17s51 -18 59 -18c19.333 0 29 10.333 29 31h115c-5.33301 -116 -53.333 -174.333 -144 -175c-22 0 -48.667 6 -80 18s-51 17.667 -59 17c-19.333 0.666992 -29 -9.33301 -29 -30z" />
    <glyph glyph-name="hungarumlaut" unicode="&#x2dd;" horiz-adv-x="819" 
d="M532 1438h185l-94 -219h-129zM309 1438h185l-95 -219h-129z" />
    <glyph glyph-name="Wgrave" unicode="&#x1e80;" horiz-adv-x="1114" 
d="M373 1489v162l366 -78v-131zM557 858h-2l-131 -858h-219l-187 1389h226l108 -881h2l117 881h191l129 -881h2l106 881h197l-181 -1389h-221z" />
    <glyph glyph-name="wgrave" unicode="&#x1e81;" horiz-adv-x="1003" 
d="M317 1262v161l367 -77v-132zM793 1161h200l-174 -1161h-203l-110 717l-121 -717h-201l-176 1161h228l77 -696h2l117 696h166l117 -696h2z" />
    <glyph glyph-name="Wacute" unicode="&#x1e82;" horiz-adv-x="1114" 
d="M739 1651v-162l-366 -47v131zM557 858h-2l-131 -858h-219l-187 1389h226l108 -881h2l117 881h191l129 -881h2l106 881h197l-181 -1389h-221z" />
    <glyph glyph-name="wacute" unicode="&#x1e83;" horiz-adv-x="1003" 
d="M684 1423v-161l-367 -48v132zM793 1161h200l-174 -1161h-203l-110 717l-121 -717h-201l-176 1161h228l77 -696h2l117 696h166l117 -696h2z" />
    <glyph glyph-name="Wdieresis" unicode="&#x1e84;" horiz-adv-x="1114" 
d="M582 1440v176h198v-176h-198zM334 1440v176h198v-176h-198zM557 858h-2l-131 -858h-219l-187 1389h226l108 -881h2l117 881h191l129 -881h2l106 881h197l-181 -1389h-221z" />
    <glyph glyph-name="wdieresis" unicode="&#x1e85;" horiz-adv-x="1003" 
d="M526 1212v177h199v-177h-199zM279 1212v177h198v-177h-198zM793 1161h200l-174 -1161h-203l-110 717l-121 -717h-201l-176 1161h228l77 -696h2l117 696h166l117 -696h2z" />
    <glyph glyph-name="Ygrave" unicode="&#x1ef2;" horiz-adv-x="776" 
d="M205 1489v162l366 -78v-131zM506 0h-234v528l-260 861h244l141 -527h2l142 527h223l-258 -861v-528z" />
    <glyph glyph-name="ygrave" unicode="&#x1ef3;" horiz-adv-x="692" 
d="M164 1262v161l366 -77v-132zM180 -184l-78.002 0.000976562v180h74c24.667 0 42.667 4.66699 54 14s21.333 28.666 30 57.999l8 36h-53l-211 1057h234l106 -712h2l137 712h205l-233 -1145c-15.333 -74.667 -43.666 -126.667 -84.999 -156s-104.666 -44 -189.999 -44z" />
    <glyph glyph-name="uni2009" unicode="&#x2009;" horiz-adv-x="102" 
 />
    <glyph glyph-name="endash" unicode="&#x2013;" horiz-adv-x="684" 
d="M45 551v188h594v-188h-594z" />
    <glyph glyph-name="emdash" unicode="&#x2014;" horiz-adv-x="1277" 
d="M45 551v188h1188v-188h-1188z" />
    <glyph glyph-name="quoteleft" unicode="&#x2018;" horiz-adv-x="276" 
d="M25 1077v19l84 293h129l-13 -312h-200z" />
    <glyph glyph-name="quoteright" unicode="&#x2019;" horiz-adv-x="276" 
d="M252 1389v-19l-84 -293h-129l12 312h201z" />
    <glyph glyph-name="quotesinglbase" unicode="&#x201a;" horiz-adv-x="276" 
d="M240 223v-18l-84 -293h-129l12 311h201z" />
    <glyph glyph-name="quotedblleft" unicode="&#x201c;" horiz-adv-x="522" 
d="M25 1077v19l84 293h129l-13 -312h-200zM268 1077v19l84 293h131l-14 -312h-201z" />
    <glyph glyph-name="quotedblright" unicode="&#x201d;" horiz-adv-x="522" 
d="M498 1389v-19l-84 -293h-131l14 312h201zM252 1389v-19l-84 -293h-129l12 312h201z" />
    <glyph glyph-name="quotedblbase" unicode="&#x201e;" horiz-adv-x="522" 
d="M485 223v-18l-84 -293h-131l15 311h200zM240 223v-18l-84 -293h-129l12 311h201z" />
    <glyph glyph-name="dagger" unicode="&#x2020;" horiz-adv-x="501" 
d="M33 1006v155h131v228h174v-228h131v-155h-131v-1006h-174v1006h-131z" />
    <glyph glyph-name="daggerdbl" unicode="&#x2021;" horiz-adv-x="501" 
d="M33 1006v155h131v228h174v-228h131v-155h-131v-623h131v-156h-131v-227h-174v227h-131v156h131v623h-131z" />
    <glyph glyph-name="bullet" unicode="&#x2022;" horiz-adv-x="415" 
d="M39 688c0 46.667 16.667 86.666 50 119.999s73 50 119 50s85.667 -16.667 119 -50s50 -73 50 -119s-16.667 -85.667 -50 -119s-73 -50 -119 -50s-85.667 16.333 -119 49s-50 72.334 -50 119.001z" />
    <glyph glyph-name="ellipsis" unicode="&#x2026;" horiz-adv-x="1026" 
d="M743 0v223h224v-223h-224zM59 0v223h224v-223h-224zM401 0v223h224v-223h-224z" />
    <glyph glyph-name="perthousand" unicode="&#x2030;" horiz-adv-x="1656" 
d="M1346 131c53.333 0 79.666 34 78.999 102v109c0.666992 68 -25.666 102 -78.999 102s-80 -34 -80 -102v-109c0 -68 26.667 -102 80 -102zM1346 -16c-86 0 -151 24.667 -195 74s-66 116 -66 200v59c0 83.333 22 150 66 200s109 75 195 75c85.333 0 150 -25 194 -75
s66 -116.667 66 -200v-59c0 -84 -22 -150.667 -66 -200s-108.667 -74 -194 -74zM780 131c53.333 0 80 34 80 102v109c0 68 -26.667 102 -80 102s-80 -34 -80 -102v-109c0 -68 26.667 -102 80 -102zM780 -16c-85.333 0 -150 24.667 -194 74s-66 116 -66 200v59
c0 83.333 22 150 66 200s108.667 75 194 75s150.333 -25 195 -75c44 -50 65.667 -116.667 65 -200v-59c0 -83.333 -21.667 -150 -65 -200c-44 -49.333 -109 -74 -195 -74zM311 944c53.333 0 80 34.333 80 103v108c0 68 -26.667 102 -80 102s-80 -34 -80 -102v-108
c0 -68.667 26.667 -103 80 -103zM311 797c-86 0.666992 -151 25.668 -195 75.001s-65.667 115.666 -65 198.999v59c0 83.333 22 150 66 200c44.667 50 109.667 75 195 75s150 -25 194 -75s65.667 -116.667 65 -200v-59c0 -83.333 -21.667 -150 -65 -200
c-44 -49.333 -109 -74 -195 -74zM856 1389h141l-761 -1389h-142z" />
    <glyph glyph-name="guilsinglleft" unicode="&#x2039;" horiz-adv-x="354" 
d="M154 774h161l-110 -299l110 -299h-161l-115 299z" />
    <glyph glyph-name="guilsinglright" unicode="&#x203a;" horiz-adv-x="354" 
d="M39 774h162l114 -299l-114 -299h-162l111 299z" />
    <glyph glyph-name="fraction" unicode="&#x2044;" horiz-adv-x="247" 
d="M434 1389h141l-761 -1389h-142z" />
    <glyph glyph-name="Euro" unicode="&#x20ac;" horiz-adv-x="813" 
d="M18 700h72v58h-72v127h72v145c0 114.667 28.667 206 86 274s145.666 101.667 264.999 101c119.333 0 203.666 -30 252.999 -90s74 -146 74 -258v-105h-213v123c0 90 -37.667 135 -113 135c-79.333 0 -118.666 -47.667 -117.999 -143v-182h200v-127h-200v-58h200v-127
h-200v-251c0 -95.333 39.333 -143.333 118 -144c75.333 0 113 45 113 135v183h213v-166c0 -230.667 -110 -346 -330 -346c-117.333 0 -204.666 34 -261.999 102s-86 158.667 -86 272v215h-72v127z" />
    <glyph glyph-name="trademark" unicode="&#x2122;" horiz-adv-x="712" 
d="M37 1309v80h239v-80h-69v-410h-101v410h-69zM565 899v293h-2l-55 -293h-43l-62 293h-2v-293h-82v490h115l51 -256h2l45 256h123v-490h-90z" />
    <glyph glyph-name="onethird" unicode="&#x2153;" horiz-adv-x="509" 
d="M94 424c0 106.667 55 160 165 160s165 -50 165 -150v-37c0 -52 -23.333 -84 -70 -96c52 -9.33301 78 -42.666 78 -99.999v-60c0 -100.667 -56.667 -151 -170 -151s-170 53.333 -170 160v55h129v-62c0 -32.667 12.333 -49 37 -49s37 15 37 45v62c0 19.333 -3 32.333 -9 39
s-18.667 10 -38 10h-45v94h35c22 0 36.667 3.66699 44 11s11 20.666 11 39.999v39c0 30 -11.667 45 -35 45s-35 -16.333 -35 -49v-41h-129v35zM330 1389v-578h-148v406h-2l-80 -68h-2v137l107 103h125zM43 649v92h424v-92h-424z" />
    <glyph glyph-name="twothirds" unicode="&#x2154;" horiz-adv-x="536" 
d="M104 811v95.999c0 48 6 83.667 18 107s36.333 47 73 71l71 52c22 15.333 33 39 33 71v39c0 26 -10.667 39 -32 39s-31.666 -15 -30.999 -45v-51h-132v49c0 105.333 54.667 158 164 158c57.333 0 99.666 -12 126.999 -36s41 -62.667 41 -116v-45
c0 -62.667 -23.667 -111 -71 -145l-89 -62c-17.333 -12 -28 -21.667 -32 -29s-6 -20.666 -6 -39.999v-2h188v-111h-322zM111 423.999c0 106.667 54.998 160 164.998 160s164.667 -50 164 -150v-37c0 -52 -23 -84 -69 -96c52 -9.33301 78 -42.666 78 -99.999v-60
c-0.666992 -100.667 -57.667 -151 -171 -151s-169.666 53.333 -168.999 160v55h129v-62c0 -32.667 12 -49 36 -49s36.333 15 37 45v62c0 19.333 -3 32.333 -9 39s-18.667 10 -38 10h-45v94h35c22 0 36.667 3.66699 44 11s11 20.666 11 39.999v39c0 30 -11.667 45 -35 45
s-34.666 -16.333 -33.999 -49v-41h-129v35zM42.998 648.999v92h451v-92h-451z" />
    <glyph glyph-name="minus" unicode="&#x2212;" horiz-adv-x="739" 
d="M45 598v180h649v-180h-649z" />
    <glyph glyph-name=".null" horiz-adv-x="0" 
 />
    <glyph glyph-name="nonmarkingreturn" horiz-adv-x="681" 
 />
    <glyph glyph-name="space_uni0326" horiz-adv-x="819" 
d="M446 -43v-18l-63 -123h-139l12 141h190z" />
    <glyph glyph-name="idotaccent" horiz-adv-x="327" 
d="M51 1212v177h225v-177h-225zM51 0v1161h225v-1161h-225z" />
    <glyph glyph-name="C.round" horiz-adv-x="1415" 
d="M729 1206c-140.667 0 -253.001 -47.999 -337.001 -143.999s-126 -219.333 -126 -370s42 -273 126 -367c84 -95.333 192 -143 324 -143s237.333 34.667 316 104c78 69.333 126 163.666 144 282.999h221c-23.333 -180 -94.666 -323.667 -213.999 -431s-275 -161 -467 -161
s-355.333 67.667 -490 203s-202 306.333 -202 513s67.333 378 202 514s302.334 204 503.001 204c173.333 0 317 -44.667 431 -134s188 -217.333 222 -384h-229c-27.333 98 -77 174.667 -149 230c-72.667 55.333 -164.334 83 -275.001 83z" />
    <glyph glyph-name="Cacute.round" horiz-adv-x="1415" 
d="M934 1649v-162l-367 -47v131zM729 1206c-140.667 0 -253.001 -47.999 -337.001 -143.999s-126 -219.333 -126 -370s42 -273 126 -367c84 -95.333 192 -143 324 -143s237.333 34.667 316 104c78 69.333 126 163.666 144 282.999h221
c-23.333 -180 -94.666 -323.667 -213.999 -431s-275 -161 -467 -161s-355.333 67.667 -490 203s-202 306.333 -202 513s67.333 378 202 514s302.334 204 503.001 204c173.333 0 317 -44.667 431 -134s188 -217.333 222 -384h-229c-27.333 98 -77 174.667 -149 230
c-72.667 55.333 -164.334 83 -275.001 83z" />
    <glyph glyph-name="Ccaron.round" horiz-adv-x="1415" 
d="M741 1599l201 60v-113l-147 -108h-103l-147 108v113zM729 1206c-140.667 0 -253.001 -47.999 -337.001 -143.999s-126 -219.333 -126 -370s42 -273 126 -367c84 -95.333 192 -143 324 -143s237.333 34.667 316 104c78 69.333 126 163.666 144 282.999h221
c-23.333 -180 -94.666 -323.667 -213.999 -431s-275 -161 -467 -161s-355.333 67.667 -490 203s-202 306.333 -202 513s67.333 378 202 514s302.334 204 503.001 204c173.333 0 317 -44.667 431 -134s188 -217.333 222 -384h-229c-27.333 98 -77 174.667 -149 230
c-72.667 55.333 -164.334 83 -275.001 83z" />
    <glyph glyph-name="Ccedilla.round" horiz-adv-x="1415" 
d="M618 -221l-0.000976562 65c50.667 1.33301 76 12.333 76 33c0 15.333 -10.667 23 -32 23h-11v82c-181.333 17.333 -331 92 -449 224s-177 298 -177 498s67 367.667 201 503c134.667 136 302.334 204 503.001 204c173.333 0 317 -44.667 431 -134s188 -217.333 222 -384
h-229c-27.333 98 -77 174.667 -149 230c-72.667 55.333 -164.334 83 -275.001 83c-140.667 0 -253 -48 -337 -144s-126 -219.333 -126 -370s42 -273 126 -367c84 -95.333 192 -143 324 -143s237.333 34.667 316 104c78 69.333 126 163.666 144 282.999h221
c-23.333 -178.667 -93.666 -321.667 -210.999 -429s-266.333 -161.666 -447 -162.999v-26c57.333 -8 86 -32.667 86 -74c0 -65.333 -69 -98 -207 -98z" />
    <glyph glyph-name="Ccircumflex.round" horiz-adv-x="1415" 
d="M745 1499l-200 -59v112l147 109h103l147 -109v-112zM729 1206c-140.667 0 -253.001 -47.999 -337.001 -143.999s-126 -219.333 -126 -370s42 -273 126 -367c84 -95.333 192 -143 324 -143s237.333 34.667 316 104c78 69.333 126 163.666 144 282.999h221
c-23.333 -180 -94.666 -323.667 -213.999 -431s-275 -161 -467 -161s-355.333 67.667 -490 203s-202 306.333 -202 513s67.333 378 202 514s302.334 204 503.001 204c173.333 0 317 -44.667 431 -134s188 -217.333 222 -384h-229c-27.333 98 -77 174.667 -149 230
c-72.667 55.333 -164.334 83 -275.001 83z" />
    <glyph glyph-name="Cdotaccent.round" horiz-adv-x="1415" 
d="M633 1438v176h225v-176h-225zM729 1206c-140.667 0 -253.001 -47.999 -337.001 -143.999s-126 -219.333 -126 -370s42 -273 126 -367c84 -95.333 192 -143 324 -143s237.333 34.667 316 104c78 69.333 126 163.666 144 282.999h221
c-23.333 -180 -94.666 -323.667 -213.999 -431s-275 -161 -467 -161s-355.333 67.667 -490 203s-202 306.333 -202 513s67.333 378 202 514s302.334 204 503.001 204c173.333 0 317 -44.667 431 -134s188 -217.333 222 -384h-229c-27.333 98 -77 174.667 -149 230
c-72.667 55.333 -164.334 83 -275.001 83z" />
    <glyph glyph-name="D.round" horiz-adv-x="1255" 
d="M553 1192l-268 0.00195312v-995h268c139.333 0 247 44.667 323 134s113.667 209.666 113 360.999c0 151.333 -37.667 272.666 -113 363.999c-76 90.667 -183.667 136 -323 136zM586 0.00195312h-535v1389h535c194 0.666992 350 -63 468 -191s177 -296 177 -504
s-59 -376 -177 -504c-118 -126.667 -274 -190 -468 -190z" />
    <glyph glyph-name="Dcaron.round" horiz-adv-x="1255" 
d="M528 1599l201 60v-113l-147 -108h-103l-147 108v113zM553 1192l-268 0.00195312v-995h268c139.333 0 247 44.667 323 134s113.667 209.666 113 360.999c0 151.333 -37.667 272.666 -113 363.999c-76 90.667 -183.667 136 -323 136zM586 0.00195312h-535v1389h535
c194 0.666992 350 -63 468 -191s177 -296 177 -504s-59 -376 -177 -504c-118 -126.667 -274 -190 -468 -190z" />
    <glyph glyph-name="Dcroat.round" horiz-adv-x="1296" 
d="M594 1192l-268 0.000976562v-391h333v-189h-333v-415h268c138.667 0 246 44.667 322 134s114 209.666 114 360.999c0 152 -38 273.333 -114 364s-183.333 136 -322 136zM12 612.001l0.000976562 189h80v588h502c198 0 360.333 -66 487 -198
c127.333 -132 191 -298.333 191 -499c0 -200 -63.333 -365.333 -190 -496s-289.334 -196 -488.001 -196h-502v612h-80z" />
    <glyph glyph-name="Eth.round" horiz-adv-x="1296" 
d="M594 1192l-268 0.000976562v-391h333v-189h-333v-415h268c138.667 0 246 44.667 322 134s114 209.666 114 360.999c0 152 -38 273.333 -114 364s-183.333 136 -322 136zM12 612.001l0.000976562 189h80v588h502c198 0 360.333 -66 487 -198
c127.333 -132 191 -298.333 191 -499c0 -200 -63.333 -365.333 -190 -496s-289.334 -196 -488.001 -196h-502v612h-80z" />
    <glyph glyph-name="G.alt" horiz-adv-x="778" 
d="M403 557v184h326v-411c0 -230.667 -110 -346 -330 -346c-117.333 0 -204.666 34 -261.999 102s-86 158.667 -86 272v672c0 114.667 28.667 206 86 274s145.666 101.667 264.999 101c119.333 0 203.666 -30 252.999 -90s74 -146 74 -258v-123h-213v141
c0 90 -37.667 135 -113 135c-79.333 0 -118.666 -47.667 -117.999 -143v-745c0 -95.333 38 -143.333 114 -144c74 0 111 45 111 135v244h-107z" />
    <glyph glyph-name="Gbreve.alt" horiz-adv-x="778" 
d="M398 1440c-56 0 -102.334 17 -139.001 51c-37.333 34 -56.666 79 -57.999 135h137c4 -31.333 24 -47 60 -47s57 15.667 63 47h133c-1.33301 -56 -20.333 -101 -57 -135s-83 -51 -139 -51zM402.999 557v184h326v-411c0 -230.667 -110 -346 -330 -346
c-117.333 0 -204.666 34 -261.999 102s-86 158.667 -86 272v672c0 114.667 28.667 206 86 274s145.666 101.667 264.999 101c119.333 0 203.666 -30 252.999 -90s74 -146 74 -258v-123h-213v141c0 90 -37.667 135 -113 135c-79.333 0 -118.666 -47.667 -117.999 -143v-745
c0 -95.333 38 -143.333 114 -144c74 0 111 45 111 135v244h-107z" />
    <glyph glyph-name="Gcircumflex.alt" horiz-adv-x="778" 
d="M399 1499l-200 -59v112l147 109h103l147 -109v-112zM403 557v184h326v-411c0 -230.667 -110 -346 -330 -346c-117.333 0 -204.666 34 -261.999 102s-86 158.667 -86 272v672c0 114.667 28.667 206 86 274s145.666 101.667 264.999 101c119.333 0 203.666 -30 252.999 -90
s74 -146 74 -258v-123h-213v141c0 90 -37.667 135 -113 135c-79.333 0 -118.666 -47.667 -117.999 -143v-745c0 -95.333 38 -143.333 114 -144c74 0 111 45 111 135v244h-107z" />
    <glyph glyph-name="Gcommaaccent.alt" horiz-adv-x="778" 
d="M496 -43v-18l-64 -123h-139l12 141h191zM403 557v184h326v-411c0 -230.667 -110 -346 -330 -346c-117.333 0 -204.666 34 -261.999 102s-86 158.667 -86 272v672c0 114.667 28.667 206 86 274s145.666 101.667 264.999 101c119.333 0 203.666 -30 252.999 -90
s74 -146 74 -258v-123h-213v141c0 90 -37.667 135 -113 135c-79.333 0 -118.666 -47.667 -117.999 -143v-745c0 -95.333 38 -143.333 114 -144c74 0 111 45 111 135v244h-107z" />
    <glyph glyph-name="Gdotaccent.alt" horiz-adv-x="778" 
d="M287 1438v176h225v-176h-225zM403 557v184h326v-411c0 -230.667 -110 -346 -330 -346c-117.333 0 -204.666 34 -261.999 102s-86 158.667 -86 272v672c0 114.667 28.667 206 86 274s145.666 101.667 264.999 101c119.333 0 203.666 -30 252.999 -90s74 -146 74 -258v-123
h-213v141c0 90 -37.667 135 -113 135c-79.333 0 -118.666 -47.667 -117.999 -143v-745c0 -95.333 38 -143.333 114 -144c74 0 111 45 111 135v244h-107z" />
    <glyph glyph-name="G.round" horiz-adv-x="1435" 
d="M735 1206c-140.667 0 -254.004 -48.335 -340.004 -145.002s-129 -219.667 -129 -369s41 -271.666 123 -366.999s190.333 -143 325 -143s241.334 33.333 320.001 100s125.334 158.334 140.001 275.001h-343v184h553v-741h-167v260c-39.333 -86 -103 -154.667 -191 -206
s-191 -77 -309 -77c-198 0 -363 67.667 -495 203s-197.667 306 -197 512c0 206 68 377.333 204 514c136.667 136.667 305.334 205 506.001 205c173.333 0 317.333 -45 432 -135s184.334 -217.667 209.001 -383h-233c-44 208.667 -180 313 -408 313z" />
    <glyph glyph-name="Gbreve.round" horiz-adv-x="1435" 
d="M740 1440c-56 0 -102.334 17 -139.001 51c-37.333 34 -56.666 79 -57.999 135h137c4 -31.333 24 -47 60 -47s57 15.667 63 47h133c-1.33301 -56 -20.333 -101 -57 -135s-83 -51 -139 -51zM734.999 1206c-140.667 0 -254.004 -48.335 -340.004 -145.002
s-129 -219.667 -129 -369s41 -271.666 123 -366.999s190.333 -143 325 -143s241.334 33.333 320.001 100s125.334 158.334 140.001 275.001h-343v184h553v-741h-167v260c-39.333 -86 -103 -154.667 -191 -206s-191 -77 -309 -77c-198 0 -363 67.667 -495 203
s-197.667 306 -197 512c0 206 68 377.333 204 514c136.667 136.667 305.334 205 506.001 205c173.333 0 317.333 -45 432 -135s184.334 -217.667 209.001 -383h-233c-44 208.667 -180 313 -408 313z" />
    <glyph glyph-name="Gcircumflex.round" horiz-adv-x="1435" 
d="M741 1499l-200 -59v112l147 109h103l147 -109v-112zM735 1206c-140.667 0 -254.004 -48.335 -340.004 -145.002s-129 -219.667 -129 -369s41 -271.666 123 -366.999s190.333 -143 325 -143s241.334 33.333 320.001 100s125.334 158.334 140.001 275.001h-343v184h553
v-741h-167v260c-39.333 -86 -103 -154.667 -191 -206s-191 -77 -309 -77c-198 0 -363 67.667 -495 203s-197.667 306 -197 512c0 206 68 377.333 204 514c136.667 136.667 305.334 205 506.001 205c173.333 0 317.333 -45 432 -135s184.334 -217.667 209.001 -383h-233
c-44 208.667 -180 313 -408 313z" />
    <glyph glyph-name="Gcommaaccent.round" horiz-adv-x="1435" 
d="M813 -43v-18l-63 -123h-140l13 141h190zM735 1206c-140.667 0 -254.004 -48.335 -340.004 -145.002s-129 -219.667 -129 -369s41 -271.666 123 -366.999s190.333 -143 325 -143s241.334 33.333 320.001 100s125.334 158.334 140.001 275.001h-343v184h553v-741h-167v260
c-39.333 -86 -103 -154.667 -191 -206s-191 -77 -309 -77c-198 0 -363 67.667 -495 203s-197.667 306 -197 512c0 206 68 377.333 204 514c136.667 136.667 305.334 205 506.001 205c173.333 0 317.333 -45 432 -135s184.334 -217.667 209.001 -383h-233
c-44 208.667 -180 313 -408 313z" />
    <glyph glyph-name="Gdotaccent.round" horiz-adv-x="1435" 
d="M629 1438v176h225v-176h-225zM735 1206c-140.667 0 -254.004 -48.335 -340.004 -145.002s-129 -219.667 -129 -369s41 -271.666 123 -366.999s190.333 -143 325 -143s241.334 33.333 320.001 100s125.334 158.334 140.001 275.001h-343v184h553v-741h-167v260
c-39.333 -86 -103 -154.667 -191 -206s-191 -77 -309 -77c-198 0 -363 67.667 -495 203s-197.667 306 -197 512c0 206 68 377.333 204 514c136.667 136.667 305.334 205 506.001 205c173.333 0 317.333 -45 432 -135s184.334 -217.667 209.001 -383h-233
c-44 208.667 -180 313 -408 313z" />
    <glyph glyph-name="G.altround" horiz-adv-x="1433" 
d="M803 557l0.00195312 184.003h606v-59c0 -228 -58.333 -402.333 -175 -523s-279.334 -181 -488.001 -181s-381.334 67 -518.001 201c-136 134.667 -203.667 305.667 -203 513c0 207.333 69 379 207 515c138.667 136 311.334 204 518.001 204c168 0 306.667 -41 416 -123
s180.666 -200 213.999 -354h-235c-22 87.333 -67.667 154.666 -137 201.999s-155.333 70.666 -258 69.999c-146.667 0 -264 -48 -352 -144s-132 -219.333 -132 -370s42.667 -273 128 -367c85.333 -94.667 202.333 -142.334 351 -143.001c252.667 0 397 125 433 375h-375z
" />
    <glyph glyph-name="Gbreve.altround" horiz-adv-x="1433" 
d="M749 1440c-55.333 0 -102.001 17 -140.001 51c-37.333 34 -56.666 79 -57.999 135h137c4 -31.333 24 -47 60 -47s57 15.667 63 47h133c-1.33301 -56 -20.333 -101 -57 -135s-82.667 -51 -138 -51zM802.999 557l0.00195312 184.003h606v-59
c0 -228 -58.333 -402.333 -175 -523s-279.334 -181 -488.001 -181s-381.334 67 -518.001 201c-136 134.667 -203.667 305.667 -203 513c0 207.333 69 379 207 515c138.667 136 311.334 204 518.001 204c168 0 306.667 -41 416 -123s180.666 -200 213.999 -354h-235
c-22 87.333 -67.667 154.666 -137 201.999s-155.333 70.666 -258 69.999c-146.667 0 -264 -48 -352 -144s-132 -219.333 -132 -370s42.667 -273 128 -367c85.333 -94.667 202.333 -142.334 351 -143.001c252.667 0 397 125 433 375h-375z" />
    <glyph glyph-name="Gcircumflex.altround" horiz-adv-x="1433" 
d="M750 1499l-201 -59v112l147 109h103l147 -109v-112zM803 557l0.00195312 184.003h606v-59c0 -228 -58.333 -402.333 -175 -523s-279.334 -181 -488.001 -181s-381.334 67 -518.001 201c-136 134.667 -203.667 305.667 -203 513c0 207.333 69 379 207 515
c138.667 136 311.334 204 518.001 204c168 0 306.667 -41 416 -123s180.666 -200 213.999 -354h-235c-22 87.333 -67.667 154.666 -137 201.999s-155.333 70.666 -258 69.999c-146.667 0 -264 -48 -352 -144s-132 -219.333 -132 -370s42.667 -273 128 -367
c85.333 -94.667 202.333 -142.334 351 -143.001c252.667 0 397 125 433 375h-375z" />
    <glyph glyph-name="Gcommaaccent.altround" horiz-adv-x="1433" 
d="M852 -43v-18l-64 -123h-139l13 141h190zM803 557l0.00195312 184.003h606v-59c0 -228 -58.333 -402.333 -175 -523s-279.334 -181 -488.001 -181s-381.334 67 -518.001 201c-136 134.667 -203.667 305.667 -203 513c0 207.333 69 379 207 515
c138.667 136 311.334 204 518.001 204c168 0 306.667 -41 416 -123s180.666 -200 213.999 -354h-235c-22 87.333 -67.667 154.666 -137 201.999s-155.333 70.666 -258 69.999c-146.667 0 -264 -48 -352 -144s-132 -219.333 -132 -370s42.667 -273 128 -367
c85.333 -94.667 202.333 -142.334 351 -143.001c252.667 0 397 125 433 375h-375z" />
    <glyph glyph-name="Gdotaccent.altround" horiz-adv-x="1433" 
d="M637 1438v176h225v-176h-225zM803 557l0.00195312 184.003h606v-59c0 -228 -58.333 -402.333 -175 -523s-279.334 -181 -488.001 -181s-381.334 67 -518.001 201c-136 134.667 -203.667 305.667 -203 513c0 207.333 69 379 207 515c138.667 136 311.334 204 518.001 204
c168 0 306.667 -41 416 -123s180.666 -200 213.999 -354h-235c-22 87.333 -67.667 154.666 -137 201.999s-155.333 70.666 -258 69.999c-146.667 0 -264 -48 -352 -144s-132 -219.333 -132 -370s42.667 -273 128 -367c85.333 -94.667 202.333 -142.334 351 -143.001
c252.667 0 397 125 433 375h-375z" />
    <glyph glyph-name="O.round" horiz-adv-x="1474" 
d="M266 692c0 -148.667 43.333 -270.667 130 -366c86.667 -96 200.334 -144 341.001 -144s254.334 48 341.001 144s130 218 130 366s-43.333 270.667 -130 368s-200.334 146 -341.001 146s-254.334 -48.667 -341.001 -146s-130 -220 -130 -368zM25 692
c0 206 68.333 377.333 205 514c137.333 136.667 306.333 205 507 205s369.667 -68.333 507 -205s206 -308 206 -514s-68.333 -376.667 -205 -512s-306 -203 -508 -203s-371.333 67.667 -508 203c-136 135.333 -204 306 -204 512z" />
    <glyph glyph-name="Oacute.round" horiz-adv-x="1474" 
d="M924 1649v-162l-367 -47v131zM266 692c0 -148.667 43.333 -270.667 130 -366c86.667 -96 200.334 -144 341.001 -144s254.334 48 341.001 144s130 218 130 366s-43.333 270.667 -130 368s-200.334 146 -341.001 146s-254.334 -48.667 -341.001 -146s-130 -220 -130 -368z
M25 692c0 206 68.333 377.333 205 514c137.333 136.667 306.333 205 507 205s369.667 -68.333 507 -205s206 -308 206 -514s-68.333 -376.667 -205 -512s-306 -203 -508 -203s-371.333 67.667 -508 203c-136 135.333 -204 306 -204 512z" />
    <glyph glyph-name="Obreve.round" horiz-adv-x="1474" 
d="M734 1440c-55.333 0 -101.669 17 -139.002 51s-56.666 79 -57.999 135h137c4 -31.333 24 -47 60 -47s57 15.667 63 47h133c-1.33301 -56 -20.666 -101 -57.999 -135s-83.333 -51 -138 -51zM265.997 692c0 -148.667 43.333 -270.667 130 -366
c86.667 -96 200.334 -144 341.001 -144s254.334 48 341.001 144s130 218 130 366s-43.333 270.667 -130 368s-200.334 146 -341.001 146s-254.334 -48.667 -341.001 -146s-130 -220 -130 -368zM24.9971 692c0 206 68.333 377.333 205 514
c137.333 136.667 306.333 205 507 205s369.667 -68.333 507 -205s206 -308 206 -514s-68.333 -376.667 -205 -512s-306 -203 -508 -203s-371.333 67.667 -508 203c-136 135.333 -204 306 -204 512z" />
    <glyph glyph-name="Ocircumflex.round" horiz-adv-x="1474" 
d="M735 1499l-200 -59v112l147 109h102l148 -109v-112zM266 692c0 -148.667 43.333 -270.667 130 -366c86.667 -96 200.334 -144 341.001 -144s254.334 48 341.001 144s130 218 130 366s-43.333 270.667 -130 368s-200.334 146 -341.001 146s-254.334 -48.667 -341.001 -146
s-130 -220 -130 -368zM25 692c0 206 68.333 377.333 205 514c137.333 136.667 306.333 205 507 205s369.667 -68.333 507 -205s206 -308 206 -514s-68.333 -376.667 -205 -512s-306 -203 -508 -203s-371.333 67.667 -508 203c-136 135.333 -204 306 -204 512z" />
    <glyph glyph-name="Odieresis.round" horiz-adv-x="1474" 
d="M758 1438v176h198v-176h-198zM510 1438v176h199v-176h-199zM266 692c0 -148.667 43.333 -270.667 130 -366c86.667 -96 200.334 -144 341.001 -144s254.334 48 341.001 144s130 218 130 366s-43.333 270.667 -130 368s-200.334 146 -341.001 146
s-254.334 -48.667 -341.001 -146s-130 -220 -130 -368zM25 692c0 206 68.333 377.333 205 514c137.333 136.667 306.333 205 507 205s369.667 -68.333 507 -205s206 -308 206 -514s-68.333 -376.667 -205 -512s-306 -203 -508 -203s-371.333 67.667 -508 203
c-136 135.333 -204 306 -204 512z" />
    <glyph glyph-name="Ograve.round" horiz-adv-x="1474" 
d="M547 1487v162l366 -78v-131zM266 692c0 -148.667 43.333 -270.667 130 -366c86.667 -96 200.334 -144 341.001 -144s254.334 48 341.001 144s130 218 130 366s-43.333 270.667 -130 368s-200.334 146 -341.001 146s-254.334 -48.667 -341.001 -146s-130 -220 -130 -368z
M25 692c0 206 68.333 377.333 205 514c137.333 136.667 306.333 205 507 205s369.667 -68.333 507 -205s206 -308 206 -514s-68.333 -376.667 -205 -512s-306 -203 -508 -203s-371.333 67.667 -508 203c-136 135.333 -204 306 -204 512z" />
    <glyph glyph-name="Ohungarumlaut.round" horiz-adv-x="1474" 
d="M815 1663h184l-94 -219h-129zM592 1663h184l-94 -219h-129zM266 692c0 -148.667 43.333 -270.667 130 -366c86.667 -96 200.334 -144 341.001 -144s254.334 48 341.001 144s130 218 130 366s-43.333 270.667 -130 368s-200.334 146 -341.001 146
s-254.334 -48.667 -341.001 -146s-130 -220 -130 -368zM25 692c0 206 68.333 377.333 205 514c137.333 136.667 306.333 205 507 205s369.667 -68.333 507 -205s206 -308 206 -514s-68.333 -376.667 -205 -512s-306 -203 -508 -203s-371.333 67.667 -508 203
c-136 135.333 -204 306 -204 512z" />
    <glyph glyph-name="Omacron.round" horiz-adv-x="1474" 
d="M532 1454v137h402v-137h-402zM266 692c0 -148.667 43.333 -270.667 130 -366c86.667 -96 200.334 -144 341.001 -144s254.334 48 341.001 144s130 218 130 366s-43.333 270.667 -130 368s-200.334 146 -341.001 146s-254.334 -48.667 -341.001 -146s-130 -220 -130 -368z
M25 692c0 206 68.333 377.333 205 514c137.333 136.667 306.333 205 507 205s369.667 -68.333 507 -205s206 -308 206 -514s-68.333 -376.667 -205 -512s-306 -203 -508 -203s-371.333 67.667 -508 203c-136 135.333 -204 306 -204 512z" />
    <glyph glyph-name="Otilde.round" horiz-adv-x="1474" 
d="M635 1444h-115.001c5.33301 116 53.333 174 144 174c22.667 0 49.334 -5.66699 80.001 -17s50.334 -17.333 59.001 -18c19.333 0 28.666 10.333 27.999 31h115c-5.33301 -116 -53 -174 -143 -174c-22 0 -48.667 5.66699 -80 17s-51 17.333 -59 18
c-19.333 0 -29 -10.333 -29 -31zM265.999 692c0 -148.667 43.333 -270.667 130 -366c86.667 -96 200.334 -144 341.001 -144s254.334 48 341.001 144s130 218 130 366s-43.333 270.667 -130 368s-200.334 146 -341.001 146s-254.334 -48.667 -341.001 -146
s-130 -220 -130 -368zM24.999 692c0 206 68.333 377.333 205 514c137.333 136.667 306.333 205 507 205s369.667 -68.333 507 -205s206 -308 206 -514s-68.333 -376.667 -205 -512s-306 -203 -508 -203s-371.333 67.667 -508 203c-136 135.333 -204 306 -204 512z" />
    <glyph glyph-name="Oslash.round" horiz-adv-x="1474" 
d="M266 701c0 -142.667 36.333 -259.666 109 -350.999l618 783c-75.333 49.333 -160.666 73.666 -255.999 72.999c-140.667 0 -254.334 -48.667 -341.001 -146s-130 -217 -130 -359zM737 182.001c140.667 0 254.333 48.001 341 144.001s130 214.333 130 355
c0 141.333 -36.667 259.666 -110 354.999l-619 -782c76.667 -48 162.667 -72 258 -72zM24.999 690.002c0 207.333 68.3311 379.333 204.998 516c137.333 136.667 306.333 205 507 205c140.667 0 270.334 -37 389.001 -111l70 89h182l-141 -177
c142 -139.333 213 -312.333 213 -519s-68.333 -377.667 -205 -513s-306 -203 -508 -203c-143.333 0 -273.666 36.333 -390.999 109l-67 -86h-183l140 174c-140.667 136.667 -211 308.667 -211 516z" />
    <glyph glyph-name="Q.alt1" horiz-adv-x="808" 
d="M285 311c-0.666992 -44.667 9 -79.667 29 -105s46 -38 78 -38s57 4.66699 75 14l-105 197v4h162v684c0 95.333 -40 143 -120 143s-119.667 -47.667 -119 -143v-756zM51 358l-0.000976562 671.999c0 114.667 29.333 206 88 274s147 101.667 265 101
c118.667 0 207.334 -33.667 266.001 -101s88 -158.666 88 -273.999v-672c0 -86 -17.667 -160.333 -53 -223l116 -225v-4h-207l-55 104c-49.333 -18 -101.333 -26.667 -156 -26c-117.333 0 -205.333 34 -264 102s-88 158.667 -88 272z" />
    <glyph glyph-name="Q.alt2" horiz-adv-x="808" 
d="M403 156h35v73c0 54.667 -20.333 82 -61 82c-18 0 -32.667 -6.33301 -44 -19s-17 -30.667 -17 -54c0 -22.667 7.33301 -42 22 -58c16 -16 37.667 -24 65 -24zM524 1067c0 95.333 -40.001 143 -120.001 143s-119.667 -47.667 -119 -143v-715
c23.333 61.333 68.333 92 135 92c40.667 0 75.334 -14.333 104.001 -43v666zM617.999 -193c-122.667 0 -184.001 59.668 -184.001 179.001h-28c-118.667 0 -207.667 33.667 -267 101c-58.667 67.333 -88 157.666 -88 270.999v672c0 114.667 29.333 206 88 274
s147 101.667 265 101c118.667 0 207.334 -33.667 266.001 -101s88 -158.666 88 -273.999v-672c0 -140.667 -41.667 -242.334 -125 -305.001v-47c0 -38 12 -57 36 -57s36 17 36 51v63h77v-65c0 -127.333 -54.667 -191 -164 -191z" />
    <glyph glyph-name="Q.round" horiz-adv-x="1474" 
d="M266 692c0 -148.667 43.333 -270.667 130 -366c86.667 -96 200.334 -144 341.001 -144s254.334 48 341.001 144s130 218 130 366s-43.333 270.667 -130 368s-200.334 146 -341.001 146s-254.334 -48.667 -341.001 -146s-130 -220 -130 -368zM25 707
c0 196 68.334 362.332 205.001 498.999c137.333 136.667 306.333 205 507 205s369.667 -68.333 507 -205s206 -308 206 -514c0 -178.667 -45.333 -324 -136 -436s-218 -184.333 -382 -217l399 -41v-174l-706 70v102c-174.667 24.667 -318.334 100.334 -431.001 227.001
s-169 288 -169 484z" />
    <glyph glyph-name="Q.altround" horiz-adv-x="1474" 
d="M266 692c0 -148.667 43.335 -271.331 130.002 -367.998s200.334 -145.334 341.001 -146.001c69.333 0 133.666 11.667 192.999 35l-213 268v4h262l115 -149c76 91.333 114 210.666 114 357.999c0 146.667 -43.333 268.667 -130 366s-200.334 146 -341.001 146
s-254.334 -48.667 -341.001 -146s-130 -220 -130 -368zM25.002 692.003c0 206 68.333 377.333 205 514c137.333 136.667 306.333 205 507 205s369.667 -68.333 507 -205c137.333 -136 206 -309.333 206 -520s-74.333 -384.667 -223 -522l198 -254v-4h-251l-115 143
c-98 -48 -205.333 -72 -322 -72c-202 0 -371.333 67.667 -508 203c-136 135.333 -204 306 -204 512z" />
    <glyph glyph-name="R.alt1" horiz-adv-x="786" 
d="M362 1198h-77v-432h77c75.333 0 113 37.667 113 113v206c0 75.333 -37.667 113 -113 113zM51 0v1389h336c113.333 0 195.333 -25 246 -75s76 -125.667 76 -227v-172c0 -117.333 -48 -189.666 -144 -216.999c57.333 -12 100 -36.667 128 -74s42 -93 42 -167v-262
c0 -26 10.333 -39 31 -39h10v-156h-104c-62.667 0 -106.667 13.333 -132 40s-38 71.334 -38 134.001v297c0 80.667 -39 121 -117 121h-100v-592h-234z" />
    <glyph glyph-name="Racute.alt1" horiz-adv-x="786" 
d="M563 1649v-162l-366 -47v131zM362 1198h-77v-432h77c75.333 0 113 37.667 113 113v206c0 75.333 -37.667 113 -113 113zM51 0v1389h336c113.333 0 195.333 -25 246 -75s76 -125.667 76 -227v-172c0 -117.333 -48 -189.666 -144 -216.999c57.333 -12 100 -36.667 128 -74
s42 -93 42 -167v-262c0 -26 10.333 -39 31 -39h10v-156h-104c-62.667 0 -106.667 13.333 -132 40s-38 71.334 -38 134.001v297c0 80.667 -39 121 -117 121h-100v-592h-234z" />
    <glyph glyph-name="Rcaron.alt1" horiz-adv-x="786" 
d="M371 1599l200 60v-113l-147 -108h-102l-148 108v113zM362 1198h-77v-432h77c75.333 0 113 37.667 113 113v206c0 75.333 -37.667 113 -113 113zM51 0v1389h336c113.333 0 195.333 -25 246 -75s76 -125.667 76 -227v-172c0 -117.333 -48 -189.666 -144 -216.999
c57.333 -12 100 -36.667 128 -74s42 -93 42 -167v-262c0 -26 10.333 -39 31 -39h10v-156h-104c-62.667 0 -106.667 13.333 -132 40s-38 71.334 -38 134.001v297c0 80.667 -39 121 -117 121h-100v-592h-234z" />
    <glyph glyph-name="Rcommaaccent.alt1" horiz-adv-x="786" 
d="M514 -43v-18l-63 -123h-140l13 141h190zM362 1198h-77v-432h77c75.333 0 113 37.667 113 113v206c0 75.333 -37.667 113 -113 113zM51 0v1389h336c113.333 0 195.333 -25 246 -75s76 -125.667 76 -227v-172c0 -117.333 -48 -189.666 -144 -216.999
c57.333 -12 100 -36.667 128 -74s42 -93 42 -167v-262c0 -26 10.333 -39 31 -39h10v-156h-104c-62.667 0 -106.667 13.333 -132 40s-38 71.334 -38 134.001v297c0 80.667 -39 121 -117 121h-100v-592h-234z" />
    <glyph glyph-name="R.alt2" horiz-adv-x="792" 
d="M369 1198h-84v-432h84c76.667 0 114.667 37.667 114 113v206c0.666992 75.333 -37.333 113 -114 113zM51 0v1389h340c113.333 0 195.333 -26.667 246 -80s76 -130.666 76 -231.999v-172c0 -109.333 -44.333 -178.333 -133 -207c108 -26 161.667 -106.333 161 -241v-457
h-235v471c0 80.667 -37.667 121 -113 121h-108v-592h-234z" />
    <glyph glyph-name="Racute.alt2" horiz-adv-x="792" 
d="M551 1649v-162l-367 -47v131zM369 1198h-84v-432h84c76.667 0 114.667 37.667 114 113v206c0.666992 75.333 -37.333 113 -114 113zM51 0v1389h340c113.333 0 195.333 -26.667 246 -80s76 -130.666 76 -231.999v-172c0 -109.333 -44.333 -178.333 -133 -207
c108 -26 161.667 -106.333 161 -241v-457h-235v471c0 80.667 -37.667 121 -113 121h-108v-592h-234z" />
    <glyph glyph-name="Rcaron.alt2" horiz-adv-x="792" 
d="M358 1599l201 60v-113l-147 -108h-103l-147 108v113zM369 1198h-84v-432h84c76.667 0 114.667 37.667 114 113v206c0.666992 75.333 -37.333 113 -114 113zM51 0v1389h340c113.333 0 195.333 -26.667 246 -80s76 -130.666 76 -231.999v-172
c0 -109.333 -44.333 -178.333 -133 -207c108 -26 161.667 -106.333 161 -241v-457h-235v471c0 80.667 -37.667 121 -113 121h-108v-592h-234z" />
    <glyph glyph-name="Rcommaaccent.alt2" horiz-adv-x="792" 
d="M485 -43v-18l-63 -123h-139l12 141h190zM369 1198h-84v-432h84c76.667 0 114.667 37.667 114 113v206c0.666992 75.333 -37.333 113 -114 113zM51 0v1389h340c113.333 0 195.333 -26.667 246 -80s76 -130.666 76 -231.999v-172c0 -109.333 -44.333 -178.333 -133 -207
c108 -26 161.667 -106.333 161 -241v-457h-235v471c0 80.667 -37.667 121 -113 121h-108v-592h-234z" />
    <glyph glyph-name="X.round" horiz-adv-x="1193" 
d="M315 1389l291 -480l287 480h252l-412 -666l455 -723h-275l-329 541l-326 -541h-252l451 729l-414 660h272z" />
    <glyph glyph-name="f.short" horiz-adv-x="454" 
d="M29 989v171.998h82v35c0 66.667 17 115.334 51 146.001s89.333 46.334 166 47.001h110v-154h-55c-31.333 0 -47 -15.667 -47 -47v-27h102v-172h-102v-989h-225v989h-82z" />
    <glyph glyph-name="g.alt1" horiz-adv-x="704" 
d="M254 786c0 -74.667 31.667 -112 95 -112s95 37.333 95 112v107c0 75.333 -31.667 113 -95 113s-95 -37.667 -95 -113v-107zM365 211h-131.999c-130 0 -194.667 52.667 -194 158c0 84.667 47 141.334 141 170.001v2c-91.333 42 -137 129.333 -137 262v82
c0 184 101.667 276 305 276h332v-164h-94v-4c46.667 -28.667 69.667 -70.334 69 -125.001v-65c0 -196.667 -102.333 -295 -307 -295h-67c-39.333 0 -59.333 -15 -60 -45c0 -31.333 17 -47 51 -47h93c104.667 0 183 -20.667 235 -62s78 -111 78 -209v-47
c0 -199.333 -105.333 -299 -316 -299s-316.334 97.667 -317.001 293v66h215v-70c0 -74 33.667 -111 101 -111s101.333 36.333 102 109v35c0 60 -32.667 90 -98 90z" />
    <glyph glyph-name="gbreve.alt1" horiz-adv-x="704" 
d="M374 1354c36 0 57.332 15.667 63.999 47h133c-1.33301 -56 -20.333 -101 -57 -135c-36.667 -34.667 -82.667 -52 -138 -52s-101.666 17.333 -138.999 52s-57 79.667 -59 135h137c3.33301 -31.333 23 -47 59 -47zM253.999 786c0 -74.667 31.667 -112 95 -112
s95 37.333 95 112v107c0 75.333 -31.667 113 -95 113s-95 -37.667 -95 -113v-107zM364.999 211h-131.999c-130 0 -194.667 52.667 -194 158c0 84.667 47 141.334 141 170.001v2c-91.333 42 -137 129.333 -137 262v82c0 184 101.667 276 305 276h332v-164h-94v-4
c46.667 -28.667 69.667 -70.334 69 -125.001v-65c0 -196.667 -102.333 -295 -307 -295h-67c-39.333 0 -59.333 -15 -60 -45c0 -31.333 17 -47 51 -47h93c104.667 0 183 -20.667 235 -62s78 -111 78 -209v-47c0 -199.333 -105.333 -299 -316 -299
s-316.334 97.667 -317.001 293v66h215v-70c0 -74 33.667 -111 101 -111s101.333 36.333 102 109v35c0 60 -32.667 90 -98 90z" />
    <glyph glyph-name="gcircumflex.alt1" horiz-adv-x="704" 
d="M254 786c0 -74.667 31.667 -112 95 -112s95 37.333 95 112v107c0 75.333 -31.667 113 -95 113s-95 -37.667 -95 -113v-107zM377 1274l-201 -60v113l148 109h102l147 -109v-113zM365 211h-131.999c-130 0 -194.667 52.667 -194 158c0 84.667 47 141.334 141 170.001v2
c-91.333 42 -137 129.333 -137 262v82c0 184 101.667 276 305 276h332v-164h-94v-4c46.667 -28.667 69.667 -70.334 69 -125.001v-65c0 -196.667 -102.333 -295 -307 -295h-67c-39.333 0 -59.333 -15 -60 -45c0 -31.333 17 -47 51 -47h93c104.667 0 183 -20.667 235 -62
s78 -111 78 -209v-47c0 -199.333 -105.333 -299 -316 -299s-316.334 97.667 -317.001 293v66h215v-70c0 -74 33.667 -111 101 -111s101.333 36.333 102 109v35c0 60 -32.667 90 -98 90z" />
    <glyph glyph-name="gcommaaccent.alt1" horiz-adv-x="704" 
d="M272 1212v19l64 123h139l-12 -142h-191zM254 786c0 -74.667 31.667 -112 95 -112s95 37.333 95 112v107c0 75.333 -31.667 113 -95 113s-95 -37.667 -95 -113v-107zM365 211h-131.999c-130 0 -194.667 52.667 -194 158c0 84.667 47 141.334 141 170.001v2
c-91.333 42 -137 129.333 -137 262v82c0 184 101.667 276 305 276h332v-164h-94v-4c46.667 -28.667 69.667 -70.334 69 -125.001v-65c0 -196.667 -102.333 -295 -307 -295h-67c-39.333 0 -59.333 -15 -60 -45c0 -31.333 17 -47 51 -47h93c104.667 0 183 -20.667 235 -62
s78 -111 78 -209v-47c0 -199.333 -105.333 -299 -316 -299s-316.334 97.667 -317.001 293v66h215v-70c0 -74 33.667 -111 101 -111s101.333 36.333 102 109v35c0 60 -32.667 90 -98 90z" />
    <glyph glyph-name="gdotaccent.alt1" horiz-adv-x="704" 
d="M264 1212v177h225v-177h-225zM254 786c0 -74.667 31.667 -112 95 -112s95 37.333 95 112v107c0 75.333 -31.667 113 -95 113s-95 -37.667 -95 -113v-107zM365 211h-131.999c-130 0 -194.667 52.667 -194 158c0 84.667 47 141.334 141 170.001v2
c-91.333 42 -137 129.333 -137 262v82c0 184 101.667 276 305 276h332v-164h-94v-4c46.667 -28.667 69.667 -70.334 69 -125.001v-65c0 -196.667 -102.333 -295 -307 -295h-67c-39.333 0 -59.333 -15 -60 -45c0 -31.333 17 -47 51 -47h93c104.667 0 183 -20.667 235 -62
s78 -111 78 -209v-47c0 -199.333 -105.333 -299 -316 -299s-316.334 97.667 -317.001 293v66h215v-70c0 -74 33.667 -111 101 -111s101.333 36.333 102 109v35c0 60 -32.667 90 -98 90z" />
    <glyph glyph-name="g.alt2" horiz-adv-x="704" 
d="M254 776c0 -74.667 31.667 -112 95 -112s95 37.333 95 112v117c0 75.333 -31.667 113 -95 113s-95 -37.667 -95 -113v-117zM682 997l-87.999 0.000976562v-4c40.667 -18 61 -59.667 61 -125v-77c0 -188.667 -101.667 -286.334 -305 -293.001
c-38 -2.66699 -68.333 -10.667 -91 -24s-34 -31.333 -34 -54v-4h140c104.667 0 183 -20.667 235 -62s78 -111 78 -209v-47c0 -199.333 -105.333 -299 -316 -299s-315.667 97.667 -315 293v66h213v-70c0 -74 34 -111 102 -111s102.333 36.333 103 109v35
c0 60 -33.333 90 -100 90h-318v111c0 60 11.667 105 35 135s58.666 51 105.999 63v4c-96.667 42 -145 131 -145 267v94c0 184 102.333 276 307 276h332v-164z" />
    <glyph glyph-name="gbreve.alt2" horiz-adv-x="704" 
d="M374 1354c36 0 57.332 15.667 63.999 47h133c-1.33301 -56 -20.333 -101 -57 -135c-36.667 -34.667 -82.667 -52 -138 -52s-101.666 17.333 -138.999 52s-57 79.667 -59 135h137c3.33301 -31.333 23 -47 59 -47zM253.999 776c0 -74.667 31.667 -112 95 -112
s95 37.333 95 112v117c0 75.333 -31.667 113 -95 113s-95 -37.667 -95 -113v-117zM681.999 997l-88 0.000976562v-4c40.667 -18 61 -59.667 61 -125v-77c0 -188.667 -100.333 -286.334 -301 -293.001h-12c-35.333 -2.66699 -63.666 -10.667 -84.999 -24s-32 -31.333 -32 -54
v-4h140c104.667 0 183 -20.667 235 -62s78 -111 78 -209v-47c0 -199.333 -105.333 -299 -316 -299s-315.667 97.667 -315 293v66h213v-70c0 -74 34 -111 102 -111s102.333 36.333 103 109v35c0 60 -33.333 90 -100 90h-318v111c0 60 11.667 105 35 135s58.666 51 105.999 63
v4c-96.667 42 -145 131 -145 267v94c0 184 102.333 276 307 276h332v-164z" />
    <glyph glyph-name="gcircumflex.alt2" horiz-adv-x="704" 
d="M254 776c0 -74.667 31.667 -112 95 -112s95 37.333 95 112v117c0 75.333 -31.667 113 -95 113s-95 -37.667 -95 -113v-117zM377 1274l-201 -60v113l148 109h102l147 -109v-113zM682 997l-88 0.000976562v-4c40.667 -18 61 -59.667 61 -125v-77
c0 -188.667 -100.333 -286.334 -301 -293.001h-12c-35.333 -2.66699 -63.666 -10.667 -84.999 -24s-32 -31.333 -32 -54v-4h140c104.667 0 183 -20.667 235 -62s78 -111 78 -209v-47c0 -199.333 -105.333 -299 -316 -299s-315.667 97.667 -315 293v66h213v-70
c0 -74 34 -111 102 -111s102.333 36.333 103 109v35c0 60 -33.333 90 -100 90h-318v111c0 60 11.667 105 35 135s58.666 51 105.999 63v4c-96.667 42 -145 131 -145 267v94c0 184 102.333 276 307 276h332v-164z" />
    <glyph glyph-name="gcommaaccent.alt2" horiz-adv-x="704" 
d="M264 1212v19l64 123h139l-12 -142h-191zM254 776c0 -74.667 31.667 -112 95 -112s95 37.333 95 112v117c0 75.333 -31.667 113 -95 113s-95 -37.667 -95 -113v-117zM682 997l-88 0.000976562v-4c40.667 -18 61 -59.667 61 -125v-77
c0 -188.667 -101.667 -286.334 -305 -293.001h-8c-35.333 -2.66699 -63.666 -10.667 -84.999 -24s-32 -31.333 -32 -54v-4h140c104.667 0 183 -20.667 235 -62s78 -111 78 -209v-47c0 -199.333 -105.333 -299 -316 -299s-315.667 97.667 -315 293v66h213v-70
c0 -74 34 -111 102 -111s102.333 36.333 103 109v35c0 60 -33.333 90 -100 90h-318v111c0 60 11.667 105 35 135s58.666 51 105.999 63v4c-96.667 42 -145 131 -145 267v94c0 184 102.333 276 307 276h332v-164z" />
    <glyph glyph-name="gdotaccent.alt2" horiz-adv-x="704" 
d="M256 1212v177h225v-177h-225zM254 776c0 -74.667 31.667 -112 95 -112s95 37.333 95 112v117c0 75.333 -31.667 113 -95 113s-95 -37.667 -95 -113v-117zM682 997l-88 0.000976562v-4c40.667 -18 61 -59.667 61 -125v-77c0 -188.667 -100.333 -286.334 -301 -293.001h-12
c-35.333 -2.66699 -63.666 -10.667 -84.999 -24s-32 -31.333 -32 -54v-4h140c104.667 0 183 -20.667 235 -62s78 -111 78 -209v-47c0 -199.333 -105.333 -299 -316 -299s-315.667 97.667 -315 293v66h213v-70c0 -74 34 -111 102 -111s102.333 36.333 103 109v35
c0 60 -33.333 90 -100 90h-318v111c0 60 11.667 105 35 135s58.666 51 105.999 63v4c-96.667 42 -145 131 -145 267v94c0 184 102.333 276 307 276h332v-164z" />
    <glyph glyph-name="i.low" horiz-adv-x="327" 
d="M51 1212v177h225v-177h-225zM51 0v1161h225v-1161h-225z" />
    <glyph glyph-name="j.low" horiz-adv-x="327" 
d="M51 1212v177h225v-177h-225zM51 1161l225 -0.000976562v-1147c0 -73.333 -19 -124.666 -57 -153.999s-105 -44 -201 -44h-28v153h14c31.333 0 47 16.333 47 49v1143z" />
    <glyph glyph-name="zero.round" horiz-adv-x="1474" 
d="M266 692c0 -148.667 43.333 -270.667 130 -366c86.667 -96 200.334 -144 341.001 -144s254.334 48 341.001 144s130 218 130 366s-43.333 270.667 -130 368s-200.334 146 -341.001 146s-254.334 -48.667 -341.001 -146s-130 -220 -130 -368zM25 692
c0 206 68.333 377.333 205 514c137.333 136.667 306.333 205 507 205s369.667 -68.333 507 -205s206 -308 206 -514s-68.333 -376.667 -205 -512s-306 -203 -508 -203s-371.333 67.667 -508 203c-136 135.333 -204 306 -204 512z" />
    <glyph glyph-name="f_f.short" horiz-adv-x="866" 
d="M29 989v171.996h82v35c0 66.667 17 115.334 51 146.001s89.333 46.334 166 47.001h129v-154h-74c-31.333 0 -47 -15.667 -47 -47v-27h186v35c0 66.667 17 115.334 51 146.001s89.333 46.334 166 47.001h111v-154h-55c-31.333 0 -47 -15.667 -47 -47v-27h102v-172h-102
v-989h-226v989h-186v-989h-225v989h-82z" />
    <glyph glyph-name="ampersand.alt1" horiz-adv-x="794" 
d="M383 178c76.667 0 115 45 115 135v332h-113c-39.333 0 -67.333 -9.33301 -84 -28s-25 -47 -25 -85v-229c0 -38 9.33301 -68.333 28 -91s45 -34 79 -34zM371 1405c117.333 0 200.333 -27.332 249 -81.999s72.667 -138.667 72 -252v-96h-213v100c0 90 -32.333 135 -97 135
s-97 -41.667 -97 -125v-149c0 -75.333 39.333 -113 118 -113h363v-178h-55v-315c0 -230.667 -109.333 -346 -328 -346c-114.667 0 -200 28 -256 84s-84 133.667 -84 233v205c0 132.667 55.333 211 166 235c-96.667 31.333 -145.334 106.666 -146.001 225.999v120
c0.666992 212 103.334 318 308.001 318z" />
    <glyph glyph-name="ampersand.alt2" horiz-adv-x="892" 
d="M389 172c56 0 97.001 28.667 123.001 86l-227 442c-6.66699 -20.667 -10.334 -54 -11.001 -100v-285c0 -52.667 9.33301 -89.667 28 -111s47.667 -32 87 -32zM446.001 1405c192.667 0 288.334 -99.665 287.001 -298.998v-148h-209v142c0 76.667 -25 114.667 -75 114
c-52 0 -78 -36.667 -78 -110s15.667 -141 47 -203l178 -350l76 272h194l-147 -510l67 -131c8 -18 23 -26.667 45 -26h31v-156h-114c-40.667 0 -71.334 6.33301 -92.001 19c-20 12.667 -38.667 36.334 -56 71.001c-49.333 -70.667 -127.666 -106 -234.999 -106
c-212.667 0 -319.334 113.333 -320.001 340v223c0 76.667 14 137 42 181s70.667 80.667 128 110c-40.667 85.333 -61 174.666 -61 267.999s24.667 166.666 74 219.999s122 79.666 218 78.999z" />
    <glyph glyph-name="ampersand.alt3" horiz-adv-x="886" 
d="M440 1219c-50.667 0.666992 -75.667 -34.333 -75 -105c0 -70.667 13.667 -134.667 41 -192c42 20 71 43.333 87 70s23.667 62.667 23 108c0 79.333 -25.333 119 -76 119zM389 172c57.333 0 99.001 28 125.001 84l-229 444c-6.66699 -20.667 -10.334 -54 -11.001 -100
v-285c0 -52.667 9.33301 -89.667 28 -111s47.667 -32 87 -32zM45.001 547c0 76.667 14.001 137 42.001 181s70.667 80.667 128 110c-45.333 90.667 -68 181.334 -68 272.001s24.667 162.667 74 216s122.333 79.666 219 78.999c187.333 0 281 -99.667 281 -299
c0 -146 -84 -248.333 -252 -307l131 -254l76 278h184l-145 -501l164 -322h-234l-47 90c-49.333 -70.667 -127 -106 -233 -106c-212.667 0 -319.334 113.333 -320.001 340v223z" />
    <glyph glyph-name="hyphen.uc" horiz-adv-x="401" 
d="M37 633v188h328v-188h-328z" />
    <glyph glyph-name="endash.uc" horiz-adv-x="684" 
d="M45 633v188h594v-188h-594z" />
    <glyph glyph-name="emdash.uc" horiz-adv-x="1277" 
d="M45 633v188h1188v-188h-1188z" />
    <glyph glyph-name="exclamdown.uc" horiz-adv-x="339" 
d="M225 1110l66 -1110h-242l64 1110h112zM281 1389v-205h-224v205h224z" />
    <glyph glyph-name="questiondown.uc" horiz-adv-x="700" 
d="M498 1389v-205h-224v205h224zM287 1110l197.998 -0.000976562v-172c0 -74.667 -11.333 -133.667 -34 -177c-8 -16 -26 -45 -54 -87l-84 -133c-26 -42 -39 -88.667 -39 -140v-116c0 -75.333 29.333 -113 88 -113s88.334 36.333 89.001 109v174h215v-168
c0 -98 -26.333 -173 -79 -225s-131 -78 -235 -78s-180.667 24 -230 72s-73.666 127 -72.999 237v110c0 48 6 87.333 18 118c11.333 30.667 34 71.334 68 122.001l94 141c38.667 58.667 58 110.667 58 156v170z" />
    <glyph glyph-name="asterisk.alt" horiz-adv-x="569" 
d="M274 1087l-53 -169l-141 102l145 104zM221 1143l-178 -2l53 166l146 -111zM348 918l-53 169l49 37l145 -104zM526 1141l-178 2l-20 53l145 111zM373 1389l-58 -170h-61l-57 170h176z" />
    <glyph glyph-name="caron.alt" horiz-adv-x="819" 
d="M518 1389v-19l-51 -172h-109v191h160z" />
    <glyph glyph-name="space_uni0326.alt" horiz-adv-x="819" 
d="M301 1212v19l64 123h139l-12 -142h-191z" />
    </font>
</defs>
</svg>
